<svg xmlns="http://www.w3.org/2000/svg" height="1024" width="1024"><path d="M64 589.951V446.974h166.4v142.977zM64 161h166.4v143.971H64zm729.6 428.951V446.974H960v142.977zm0-428.951H960v143.971H793.6z"/><path d="M323.465 16l-58.502 76.553 203.945 441.05-60.156 134.43c-19.706-19.494-45.496-32.82-73.035-35.66-87.796-9.052-142.57 23.921-198.133 123.291-27.707 54.672-32.196 128.156-2.887 184.106 21.105 42.26 68.175 70.591 114.989 68.074 66.554-2.692 127.535-46.709 162.767-101.121 27.008-41.55 41.059-95.096 37.068-144.815L512 626.793l62.479 135.115c-3.99 49.719 10.06 103.266 37.068 144.815 35.232 54.412 96.213 98.429 162.767 101.12 46.814 2.519 93.884-25.813 114.989-68.073 29.309-55.95 24.82-129.434-2.887-184.106-55.563-99.37-110.337-132.343-198.133-123.29-27.54 2.838-53.329 16.165-73.035 35.66l-60.156-134.43L759.037 92.553 700.535 16 512 437.31 323.465 16zm-17.56 681.49c36.354 1.094 57.568 12.484 75.882 41.766 19.41 33.985 10.942 84.652-30.988 142.633-27.9 37.812-61.4 58.06-99.873 58.61-31.099-.241-55.747-22.558-63.18-52.032-11.071-37.958-6.555-67.4 10.73-102.121 22.877-44.813 55.766-81.684 107.428-88.856zm412.19 0c51.663 7.172 84.552 44.043 107.428 88.856 17.286 34.72 21.802 64.163 10.73 102.12-7.432 29.475-32.08 51.792-63.179 52.032-38.474-.55-71.972-20.797-99.873-58.61-41.93-57.98-50.398-108.648-30.988-142.632 18.314-29.282 39.528-40.672 75.883-41.766z"/></svg>