<svg xmlns="http://www.w3.org/2000/svg" xmlns:xlink="http://www.w3.org/1999/xlink" viewBox="0 0 48 48"><defs><linearGradient xlink:href="#a" id="e" x1="109.786" y1="134.533" x2="120.047" y2="-35.064" gradientUnits="userSpaceOnUse" gradientTransform="matrix(.21468 0 0 .21418 -49.235 -23.2)"/><linearGradient id="a"><stop stop-color="#5d5d5d" offset="0"/><stop stop-opacity=".996" stop-color="#cecece" offset="1"/></linearGradient><linearGradient id="f" y2="93.36" gradientUnits="userSpaceOnUse" x2="167.111" gradientTransform="matrix(-.20301 0 0 -.1824 53.678 37.485)" y1="20.476" x1="210.583"><stop stop-color="#fff" offset="0"/><stop stop-opacity="0" stop-color="#fff" offset="1"/></linearGradient><linearGradient xlink:href="#b" id="g" gradientUnits="userSpaceOnUse" gradientTransform="matrix(-.2144 0 0 -.21628 37.455 38.422)" x1="38.214" y1="132.79" x2="62.749" y2="110.64"/><linearGradient id="b" y2="110.64" gradientUnits="userSpaceOnUse" x2="62.749" gradientTransform="translate(4.018 2.59)" y1="132.79" x1="38.214"><stop stop-color="#fff" offset="0"/><stop stop-opacity="0" stop-color="#fff" offset="1"/></linearGradient><linearGradient y2="175.968" x2="189.029" y1="224.469" x1="149.541" gradientTransform="matrix(-.0752 .0033 -.00321 -.06926 19.046 18.68)" gradientUnits="userSpaceOnUse" id="c" xlink:href="#a"/><radialGradient id="d" gradientUnits="userSpaceOnUse" cy="87.666" cx="154.851" gradientTransform="matrix(.35949 .0031 -.00439 .50887 -84.316 -44.25)" r="63.571" fx="154.851" fy="87.666"><stop stop-opacity=".8" stop-color="#dcdcf7" offset="0"/><stop stop-color="#dcdcf7" offset="1"/></radialGradient></defs><g transform="matrix(1.33333 0 0 -1.33333 0 48)"><path d="M10.126 6.823L4.08.75c-.616.255-3.05 2.775-3.33 3.313l6.416 5.7z" fill="url(#c)" fill-rule="evenodd"/><ellipse ry="14.99" rx="14.997" cy="-11.647" cx="-24.994" transform="rotate(-160.002) skewX(-.022)" fill="url(#d)" stroke="url(#e)" stroke-width="1.5"/><path d="M14.811 32.946c4.814 1.575 12.938.76 15.142-4.948-2.385-.127-5.759-2.227-8.176-3.018-9.007-1.665-14.56-3.069-16.207-7.789-1.137 5.824 1.87 13.344 9.241 15.755z" fill="url(#f)"/><path d="M33.078 19.27c-.102-3.34-1.69-7.567-4.88-10.15-2.98-2.41-6.406-3.607-10.892-3.185 3.838.963 6.837 2.66 9.58 5.005 2.626 2.243 5.123 5.453 6.192 8.33z" opacity=".7" fill="url(#g)"/><path d="M27.624 9H11.376c-.482 0-.876.483-.876 1.072v3.855c0 .59.394 1.073.876 1.073h16.248c.482 0 .876-.483.876-1.073v-3.855c0-.59-.394-1.072-.876-1.072" fill="#1e8ac8"/><rect ry="0" y="-12.75" x="11.94" height="1.5" width="1.44" transform="scale(1 -1)" fill="#fff" fill-rule="evenodd"/><g transform="translate(0 7.5)"><path d="M27.624 9H11.376c-.482 0-.876.483-.876 1.072v3.855c0 .59.394 1.073.876 1.073h16.248c.482 0 .876-.483.876-1.073v-3.855c0-.59-.394-1.072-.876-1.072" fill="#1e8ac8"/><rect transform="scale(1 -1)" width="1.44" height="1.5" x="11.94" y="-12.75" ry="0" fill="#fff" fill-rule="evenodd"/></g><g transform="translate(0 15)"><path d="M27.624 9H11.376c-.482 0-.876.483-.876 1.072v3.855c0 .59.394 1.073.876 1.073h16.248c.482 0 .876-.483.876-1.073v-3.855c0-.59-.394-1.072-.876-1.072" fill="#1e8ac8"/><rect ry="0" y="-12.75" x="11.94" height="1.5" width="1.44" transform="scale(1 -1)" fill="#fff" fill-rule="evenodd"/></g></g></svg>