<svg xmlns="http://www.w3.org/2000/svg" xmlns:xlink="http://www.w3.org/1999/xlink" viewBox="0 0 48 48"><defs><linearGradient gradientTransform="matrix(.28624 0 0 .28557 -49.214 14.173)" gradientUnits="userSpaceOnUse" y2="-35.064" x2="120.047" y1="134.533" x1="109.786" id="e" xlink:href="#a"/><linearGradient id="a"><stop offset="0" stop-color="#5d5d5d"/><stop offset="1" stop-color="#cecece" stop-opacity=".996"/></linearGradient><linearGradient x1="210.583" y1="20.476" gradientTransform="matrix(-.27068 0 0 .2432 71.57 -1.98)" x2="167.111" gradientUnits="userSpaceOnUse" y2="93.36" id="f"><stop offset="0" stop-color="#fff"/><stop offset="1" stop-color="#fff" stop-opacity="0"/></linearGradient><linearGradient y2="110.64" x2="62.749" y1="132.79" x1="38.214" gradientTransform="matrix(-.28587 0 0 .28837 49.94 -3.23)" gradientUnits="userSpaceOnUse" id="g" xlink:href="#b"/><linearGradient x1="38.214" y1="132.79" gradientTransform="translate(4.018 2.59)" x2="62.749" gradientUnits="userSpaceOnUse" y2="110.64" id="b"><stop offset="0" stop-color="#fff"/><stop offset="1" stop-color="#fff" stop-opacity="0"/></linearGradient><linearGradient xlink:href="#a" id="c" gradientUnits="userSpaceOnUse" gradientTransform="matrix(-.10027 -.0044 -.00428 .09235 25.395 23.093)" x1="149.541" y1="224.469" x2="189.029" y2="175.968"/><radialGradient fy="87.666" fx="154.851" r="63.571" gradientTransform="matrix(.47932 .00413 -.00585 .6785 -95.988 -13.894)" cx="154.851" cy="87.666" gradientUnits="userSpaceOnUse" id="d"><stop offset="0" stop-color="#dcdcf7" stop-opacity=".8"/><stop offset="1" stop-color="#dcdcf7"/></radialGradient></defs><path d="M13.501 38.903L5.44 47c-.821-.34-4.067-3.7-4.44-4.417l8.555-7.6z" fill="url(#c)" fill-rule="evenodd"/><ellipse ry="19.987" rx="19.996" cy="29.577" cx="-16.893" transform="matrix(-.9397 .34199 .34235 .93957 0 0)" fill="url(#d)" stroke="url(#e)" stroke-width="2"/><path d="M19.748 4.072c6.419-2.1 17.25-1.013 20.19 6.597-3.18.17-7.68 2.97-10.902 4.024-12.01 2.22-19.413 4.092-21.61 10.386C5.912 17.313 9.92 7.287 19.749 4.072z" fill="url(#f)"/><path d="M44.104 22.307c-.136 4.453-2.253 10.089-6.507 13.533-3.973 3.213-8.541 4.81-14.522 4.247 5.117-1.284 9.116-3.547 12.773-6.674 3.501-2.99 6.83-7.27 8.256-11.106z" opacity=".7" fill="url(#g)"/><text y="37.017" x="10.169" style="line-height:1.25" font-weight="400" font-size="40" font-family="sans-serif" letter-spacing="0" word-spacing="0"/><text y="37.017" x="26.034" style="line-height:1.25" font-weight="400" font-size="40" font-family="sans-serif" letter-spacing="0" word-spacing="0"/><text y="3.254" x="16.678" style="line-height:1.25" font-weight="400" font-size="40" font-family="sans-serif" letter-spacing="0" word-spacing="0"/><text y="-14.136" x="21.864" style="line-height:1.25" font-weight="400" font-size="40" font-family="sans-serif" letter-spacing="0" word-spacing="0"/><path d="M13 12h16v6h-5v16h-6V18h-5z" fill="#500" aria-label="T" font-weight="700" font-size="27.111" font-family="sans-serif" letter-spacing="0" word-spacing="0"/><path d="M27 20l4.773 7L27 34h3.455l3.045-4.467L36.545 34H40l-4.773-7L40 20h-3.455L33.5 24.467 30.455 20H27z" style="line-height:normal;font-variant-ligatures:normal;font-variant-position:normal;font-variant-caps:normal;font-variant-numeric:normal;font-variant-alternates:normal;font-feature-settings:normal;text-indent:0;text-align:start;text-decoration-line:none;text-decoration-style:solid;text-decoration-color:#000;text-transform:none;text-orientation:mixed;white-space:normal;shape-padding:0;isolation:auto;mix-blend-mode:normal;solid-color:#000;solid-opacity:1" color="#000" font-weight="400" font-family="sans-serif" overflow="visible" fill="#500"/></svg>