<svg xmlns="http://www.w3.org/2000/svg" version="1" viewBox="0 0 48 48"><path transform="matrix(-.98838 -.15201 -.1682 .98575 -145.17 -813.257)" fill="#fff" stroke="#000" d="M-326.545 781.595h31.19v31.031h-31.19z"/><path transform="matrix(-1 .001 .00183 1 -145.17 -813.257)" fill="#fff" stroke="#000" d="M-183.015 821.478h29.941v30.969h-29.941z"/><path transform="matrix(-.9839 .17871 .19826 .98015 -145.17 -813.257)" fill="#fff" stroke="#000" d="M-10.697 842.387h31.275v30.948h-31.275z"/><g fill-rule="evenodd"><path fill="#4f4f4f" d="M4.34 18.06l15.438-3.055.805 4.065-15.438 3.056z"/><path fill="#333" fill-opacity=".434" d="M5.94 26.918l24.525-4.854.194.981L6.135 27.9z"/><path fill="#333" fill-opacity=".434" d="M6.651 30.507l10.79-2.136.195.981-10.79 2.136z"/><path fill="#b9b9b9" fill-opacity=".974" d="M21.274 27.946l9.282-1.837 1.649 8.33-9.282 1.837z"/><path fill="#333" fill-opacity=".434" d="M8.853 41.633l24.525-4.854.194.98-24.524 4.855z"/><path fill="#333" fill-opacity=".434" d="M7.428 34.43l10.79-2.135.195.98-10.791 2.137z"/><path fill="#333" fill-opacity=".434" d="M8.204 38.355l10.791-2.136.194.98L8.4 39.336z"/></g></svg>