<svg xmlns="http://www.w3.org/2000/svg" xmlns:xlink="http://www.w3.org/1999/xlink" viewBox="0 0 48 48"><defs><linearGradient id="d"><stop offset="0" stop-color="#0a5b75"/><stop offset="1" stop-color="#4bc7ef" stop-opacity=".965"/></linearGradient><linearGradient id="c"><stop/><stop stop-opacity="0" offset="1"/></linearGradient><linearGradient id="b"><stop stop-color="#2ab9e6"/><stop stop-color="#10637e" offset="1"/></linearGradient><linearGradient id="a"><stop stop-color="#eee"/><stop stop-color="#ddd" offset="1"/></linearGradient><radialGradient gradientUnits="userSpaceOnUse" gradientTransform="matrix(.30565 -.04056 .02152 .15278 2.031 -.817)" r="55.766" cy="62.08" cx="36.794" id="e" xlink:href="#a"/><radialGradient fy="23.214" fx="49.509" gradientUnits="userSpaceOnUse" gradientTransform="matrix(.63515 .01445 .00837 .42896 -6.791 7.624)" r="62.2" cy="23.214" cx="49.509" id="h" xlink:href="#b"/><filter height="1.792" y="-.396" width="1.025" x="-.012" id="g"><feGaussianBlur stdDeviation=".599"/></filter><linearGradient gradientUnits="userSpaceOnUse" y2="25.688" x2="0" y1="29.321" id="f" xlink:href="#c"/><linearGradient gradientTransform="translate(0 1)" gradientUnits="userSpaceOnUse" y2="8.18" x2="23.063" y1="41.93" x1="22.813" id="i" xlink:href="#d"/></defs><path d="M6.03 5.5c-.82 0-1.479.64-1.479 1.435v2.276h-.529c-.82 0-1.434.64-1.479 1.436l-1.6 28.417c-.044.796.659 1.436 1.48 1.436h43.143c.82 0 1.535-.64 1.49-1.436l-1.6-28.417c-.044-.795-.67-1.436-1.49-1.436H20.062V6.935c0-.796-.658-1.435-1.479-1.435z" fill="url(#e)" stroke="#898989" stroke-linecap="round" stroke-linejoin="round"/><path transform="matrix(.37323 0 0 .66496 -.283 -3.377)" d="M122.219 25.688L6.375 25.71v3.339c0 .148 2.8.271 6.188.271h103.812c3.388 0 6.219-.122 6.219-.271V25.71c0-.007-.018-.014-.031-.022l-.344-.001z" opacity=".429" fill="url(#f)" filter="url(#g)"/><path d="M1.837 15.921l44.326-.186c.74 0 1.337.541 1.337 1.213l-.075 24.34c0 .671-.597 1.212-1.337 1.212H1.894c-.74 0-1.337-.541-1.337-1.213L.5 17.134c0-.672.596-1.213 1.337-1.213z" fill="url(#h)" stroke="url(#i)" stroke-linecap="round" stroke-linejoin="bevel"/></svg>