<svg xmlns="http://www.w3.org/2000/svg" viewBox="0 0 1000 1000" width="1000" height="1000"><path d="M611-2c-28.843 0-53 24.157-53 53v314c0 28.843 24.157 53 53 53h334c28.843 0 53-24.157 53-53V51c0-28.843-24.157-53-53-53H611zM55.34 6.576c-28.843 0-53 24.157-53 53v894c0 28.843 24.157 53 53 53h334c28.843 0 53-24.157 53-53v-894c0-28.843-24.157-53-53-53h-334zM618 58h320v300H618V58zM62.34 66.576h320v880h-320v-880zM571 578c-28.843 0-53 24.157-53 53v314c0 28.843 24.157 53 53 53h374c28.843 0 53-24.157 53-53V631c0-28.843-24.157-53-53-53H571zm7 60h360v300H578V638z" color="#000"/></svg>
