<svg xmlns="http://www.w3.org/2000/svg" width="322" height="64"><path class="st2" d="M8.686 50.27C1.131 50.27 1 46.285 1 43.365V21.55c0-2.92.175-6.903 7.686-6.903 7.555 0 7.687 3.982 7.687 6.903V29H9.996v-8.956c.077-1.732-2.706-1.645-2.62 0v24.827c.01 1.82 2.534 1.732 2.62 0V34h6.377v9.366c0 2.921-.133 6.904-7.687 6.904zM33.534 50l.263-20.928L30.39 50h-3.406l-3.19-20.928L24.057 50h-5.415V15h7.03l3.016 18.277L32.618 15h6.68v35zm23.495-6.679c0 2.921-.174 6.904-7.686 6.904-7.555 0-7.686-3.984-7.686-6.904V37h6.42v7.87c.01 1.907 2.706 1.733 2.62.001V34h-9.084V21.55c0-2.92.175-6.903 7.687-6.903 7.555 0 7.686 3.982 7.686 6.903V27h-6.42v-6.956c.077-1.732-2.964-1.732-2.62 0V30h8.996zM144.065 50l.261-20.928L140.92 50h-3.407l-3.187-20.928.261 20.928h-5.37V15h7.03l2.97 18.277L143.19 15h6.682v35zm17.075 0v-1.413c-1.485 1.77-4.02 1.992-5.416 1.505-2.577-.928-3.625-2.655-3.625-6.327v-7.346c0-2.92 1.485-6.948 8.997-6.948v-9.427c.163-1.732-2.792-1.646-2.62 0v6.816H152.1v-5.31c0-2.92.173-6.903 7.686-6.903 7.598 0 7.685 3.982 7.685 6.903V50zm0-16.238h-1.354c-.743 0-1.31.576-1.31 1.329v9.78c-.075 1.965 2.63 1.851 2.663 0zM178.695 50v-1.767c-.656 1.194-2.053 2.035-3.494 2.035-3.58 0-5.502-1.902-5.502-5.532V21.284c.03-4.67 1.392-6.659 5.153-6.637 1.354 0 2.838.53 3.843 1.637V6h6.42v44zm-2.62-29.866V44.87c.095 1.906 2.62 1.818 2.62 0V20.134c-.092-1.949-2.782-1.876-2.62 0zm19.04 30.135c-7.065-.079-7.686-3.983-7.686-6.904V21.55c0-2.92.174-6.903 7.686-6.903 7.555 0 7.686 3.982 7.686 6.903V34h-8.996v10.87c.095 1.734 2.533 1.646 2.62 0V37h6.42v6.32c-.13 2.886-.665 7.028-7.73 6.949zm1.31-30.225c-.009-1.732-2.706-1.732-2.62 0V30h2.577zm30.264 23.277c0 2.921-.175 6.904-7.686 6.904-7.555 0-7.686-3.984-7.686-6.904v-6.32h6.42v7.87c.01 1.82 2.706 1.646 2.62 0V34h-8.997V21.55c0-2.922.175-6.904 7.687-6.904 7.554 0 7.686 3.982 7.686 6.903V27h-6.42v-6.956c-.009-1.818-2.792-1.732-2.62 0V30h8.996zM229.047 12V6h6.42v6zm0 38.021V15h6.42v35.021zm27.032 0V20.09c-.002-1.862-2.8-1.695-2.664-.045V50.02h-6.42V20.09c-.005-1.689-2.78-1.616-2.62 0v29.932h-6.419V15.001h6.42v1.682c.654-1.194 2.05-2.035 3.58-2.035 2.052 0 3.625.619 4.5 1.946 1.484-1.505 3.01-1.947 4.497-1.947 3.58 0 5.458 1.902 5.458 5.532v29.799zm19.04.293c-1.353 0-2.838-.576-3.843-1.637V59h-6.42V15h6.42v1.682c.655-1.15 2.053-1.991 3.58-1.991 3.538 0 5.417 1.813 5.417 5.532v23.453c.022 3.39-1.646 6.57-5.154 6.638zm-1.265-30.224c.077-1.906-2.793-1.646-2.62 0v24.737c-.077 1.65 2.533 1.646 2.62 0zM282.763 50V6h6.42v44zm16.508.27c-7.46-.14-7.687-3.984-7.687-6.904V21.55c0-2.92.175-6.903 7.687-6.903 7.555 0 7.685 3.982 7.685 6.903V34h-8.996v10.87c.182 1.647 2.62 1.56 2.62 0V37H307v6.32c.012 2.814-.27 7.09-7.73 6.95zm1.31-30.225c.077-1.82-2.707-1.817-2.622 0V30h2.578z" fill="#595a5c"/><path d="M308.116 7.543H306V6h6v1.543h-2.114v6.407h-1.771zm11.36.117l-1.563 6.338h-1.546l-1.662-6.338.12 6.34h-1.546V6.05h2.36l1.501 5.535 1.45-5.535H321V14h-1.543z" class="st3" fill="#ffa041"/><path d="M62 31.973A31 31 0 0193.022 1 31 31 0 01124 32.016 31 31 0 0192.99 63 31 31 0 0162 31.993" fill="#ffa041"/><path class="st3" d="M73.513 23.32c.06.775.212 1.286.402 1.954l4.217-4.065.409 1.11 2.471-1.74.355 1.204 2.278-1.335c.17.188.105.738.105.738-4.088 3.816-5.505 8.06-3.767 14.007.397.97 1.14 1.85 1.782 2.008l.652-2.75 1.718.427.778-2.936 1.456.894.331-2.461 1.725.718.115-1.596 1.169.212c-.283-1.678-.995-3.445-1.604-4.81l.68-.223s1.685 2.54 1.743 3.41c.098.876.341 5.104.189 6.75-.148 1.597-1.545 7.871-1.16 8.297 0 0 1.028 1.14 2.86.98 1.828-.115 3.098-.708 3.258-1.434.162-.73-.257-7.299-.417-8.958-.204-1.702-1.409-6.333-1.441-6.653-.077-.326-.11-1.84-.11-1.84l.975.13 1.213 2.42 1.221-.92 1.03 2.96.865-.814.73 2.73 1.02-1.083.56 2.934c.538-.117 4-3.902 4.545-6.495 1.131-5.122-1.93-8.792-6.14-9.058-3.201-.12-6.593.587-7.42 1.24l.984-2.012 1.381.405.636-1.5 2.055.768.478-1.961 2.653 1.225.027-2.258 2.13 1.808.74-1.375 1.195 1.183c.161-4.318-2.91-8.002-6.767-8.324-5.17-.182-8.259 6.802-9.47 11.333-2.935-3.73-7.213-6.772-11.579-4.793-3.377 2.038-5.62 4.859-6.956 8.491-.311 1.671-.27 3.775.17 4.913zm22.615 13.325c.162 2.803.309 5.925.201 6.47-.211.862-1.708 1.54-3.94 1.731-2.234.144-3.431-1.186-3.431-1.186-.44-.54.24-3.647.884-6.887-10.405.752-18.283 4.123-18.258 8.157.008 4.493 9.984 8.033 22.28 7.948 12.298-.086 22.204-4.094 22.185-8.33-.016-4.232-9.08-7.483-19.92-7.903z" fill="#fff"/></svg>