<svg width="512" height="300" xmlns="http://www.w3.org/2000/svg"><style>path{fill:none;stroke:#f59b15;stroke-width:.29px}.s1{fill:#f59b15}</style><path d="M210.129 227.055l26.794-10.581-27.896-7.19-26.791 10.583 27.893 7.188zM218.58 194.26l-27.893-7.187 18.34 22.211 27.896 7.19-18.343-22.214zM219.813 109.707l-1.784-28.751-15.457 24.308 1.784 28.751 15.457-24.308zM245.925 88.143l26.79-10.58-27.893-7.187-26.793 10.58 27.896 7.187zM259.046 130.621l15.453-24.307-26.79 10.58-15.457 24.308 26.794-10.581zM292.842 128.524l27.896 7.188-18.343-22.211-27.896-7.187 18.343 22.21zM250.595 163.413l-18.343-22.211 1.784 28.751 18.343 22.21-1.784-28.75zM279.17 181.583l-26.791 10.58 27.893 7.191 26.794-10.584-27.896-7.187z"/><path d="M305.282 160.019l1.784 28.751 15.456-24.308-1.784-28.75-15.456 24.307zM254.375 55.352l-27.896-7.187 18.343 22.211 27.893 7.187-18.34-22.211z"/><path d="M291.609 213.081l15.457-24.311-26.794 10.584-15.453 24.307 26.79-10.58zM288.172 53.255l-15.457 24.308 26.794-10.581 15.456-24.308-26.793 10.581zM333.859 178.189l15.454-24.307-26.791 10.58-15.456 24.308 26.793-10.581zM353.302 218.171l26.793-10.581-27.896-7.19-26.79 10.584 27.893 7.187z"/><path d="M300.611 84.75l26.794-10.58-27.896-7.188-26.794 10.581 27.896 7.187zM327.192 239.734l-1.783-28.75-15.457 24.308 1.784 28.75 15.456-24.308zM367.655 176.092l27.896 7.188-18.342-22.211-27.896-7.187 18.342 22.21zM329.189 102.92l18.34 22.211-1.784-28.751-18.34-22.21 1.784 28.75zM381.879 236.341l18.343 22.211-1.784-28.751-18.343-22.211 1.784 28.751zM393.767 154.529l-18.342-22.211 1.784 28.751 18.342 22.211-1.784-28.751z"/><path d="M362.985 100.823l-1.784-28.75-15.456 24.307 1.784 28.751 15.456-24.308zM402.218 121.738l15.454-24.308-26.791 10.581-15.456 24.307 26.793-10.58zM413.894 205.493l27.893 7.188-18.342-22.211-27.894-7.19 18.343 22.213z"/><path d="M389.097 79.26l26.791-10.581-27.893-7.187-26.794 10.581 27.896 7.187z"/><path class="s1" d="M422.342 172.699l-26.791 10.581 27.894 7.19 26.793-10.583-27.896-7.188z"/><path d="M436.015 119.641l27.896 7.187-18.343-22.211-27.896-7.187 18.343 22.211zM397.548 46.469l-27.896-7.188 18.343 22.211 27.893 7.187-18.34-22.21zM66.96 235.938l-15.457 24.308 26.791-10.581 15.456-24.307-26.79 10.58z"/><path class="s1" d="M47.514 195.957l-26.793 10.58 27.896 7.19 26.79-10.583-27.893-7.187z"/><path d="M117.657 168.256L136 190.466l-1.784-28.75-18.343-22.211 1.784 28.751z"/><path class="s1" d="M184.02 248.618l-1.784-28.751-15.456 24.308 1.784 28.751 15.456-24.308z"/><path d="M223.25 269.533l15.457-24.308-26.794 10.58-15.453 24.308 26.79-10.58zM257.049 267.435l27.893 7.188-18.339-22.211-27.896-7.187 18.342 22.21zM177.566 144.595l-15.457 24.308 26.794-10.581 15.453-24.307-26.79 10.58z"/><path d="M206.14 162.765l-1.784-28.75-15.453 24.307 1.784 28.751 15.453-24.308zM143.766 146.692l-27.893-7.187 18.343 22.211 27.893 7.187-18.343-22.211zM131.33 115.197l-1.784-28.751-15.457 24.308 1.784 28.751 15.457-24.308zM157.439 93.634l26.793-10.581-27.896-7.187-26.79 10.58 27.893 7.188zM186.016 111.804l18.34 22.211-1.784-28.751-18.34-22.211 1.784 28.751zM283.159 245.872l-18.34-22.211 1.784 28.751 18.339 22.211-1.783-28.751zM339.632 271.229l-27.896-7.187 18.343 22.211 27.893 7.187-18.34-22.211z"/><g><path d="M238.707 245.225l-1.784-28.751-26.794 10.581 1.784 28.75 26.794-10.58z"/><path d="M264.819 223.661l-27.896-7.187 1.784 28.751 27.896 7.187-1.784-28.751zM206.14 162.765l-15.453 24.308 27.893 7.187 15.456-24.307-27.896-7.188zM218.58 194.26l18.343 22.214 15.456-24.311-18.343-22.21-15.456 24.307zM232.252 141.202l-27.896-7.187 1.784 28.75 27.896 7.188-1.784-28.751zM218.029 80.956l-18.343-22.211-15.454 24.308 18.34 22.211 15.457-24.308zM226.479 48.165l-26.793 10.58 18.343 22.211 26.793-10.58-18.343-22.211zM245.925 88.143l-27.896-7.187 1.784 28.751 27.896 7.187-1.784-28.751z"/><path d="M219.813 109.707l-15.457 24.308 27.896 7.187 15.457-24.308-27.896-7.187zM274.499 106.314l-1.784-28.751-26.79 10.58 1.784 28.751 26.79-10.58z"/><path d="M292.842 128.524l-18.343-22.21-15.453 24.307 18.34 22.211 15.456-24.308zM259.046 130.621l-26.794 10.581 18.343 22.211 26.791-10.581-18.34-22.211z"/><path d="M300.611 84.75l-27.896-7.187 1.784 28.751 27.896 7.187-1.784-28.751z"/><path class="s1" d="M305.282 160.019l15.456-24.307-27.896-7.188-15.456 24.308 27.896 7.187z"/><path d="M250.595 163.413l1.784 28.75 26.791-10.58-1.784-28.751-26.791 10.581z"/><path d="M279.17 181.583l27.896 7.187-1.784-28.751-27.896-7.187 1.784 28.751zM241.936 23.854l-15.457 24.311 27.896 7.187 15.454-24.308-27.893-7.19z"/><path class="s1" d="M252.379 192.163l-15.456 24.311 27.896 7.187 15.453-24.307-27.893-7.191z"/><path d="M254.375 55.352l18.34 22.211 15.457-24.308-18.343-22.211-15.454 24.308zM325.409 210.984l-18.343-22.214-15.457 24.311 18.343 22.211 15.457-24.308z"/><path d="M291.609 213.081l-26.79 10.58 18.34 22.211 26.793-10.58-18.343-22.211zM288.172 53.255l26.793-10.581-18.343-22.213-26.793 10.583 18.343 22.211zM333.859 178.189l-26.793 10.581 18.343 22.214 26.79-10.584-18.34-22.211z"/><path d="M327.405 74.17l15.453-24.308-27.893-7.188-15.456 24.308 27.896 7.188zM367.655 176.092l-18.342-22.21-15.454 24.307 18.34 22.211 15.456-24.308zM349.313 153.882l-1.784-28.751-26.791 10.581 1.784 28.75 26.791-10.58zM381.879 236.341l-1.784-28.751-26.793 10.581 1.784 28.751 26.793-10.581z"/><path d="M353.302 218.171l-27.893-7.187 1.783 28.75 27.894 7.188-1.784-28.751zM380.095 207.59l15.456-24.31-27.896-7.188-15.456 24.308 27.896 7.19zM361.201 72.073l-18.343-22.211-15.453 24.308 18.34 22.21 15.456-24.307zM314.965 42.674l27.893 7.188-1.784-28.751-27.893-7.187 1.784 28.75zM329.189 102.92l-1.784-28.75-26.794 10.58 1.784 28.751 26.794-10.581zM375.425 132.318l-27.896-7.187 1.784 28.751 27.896 7.187-1.784-28.751z"/><path d="M320.738 135.712l26.791-10.581-18.34-22.211-26.794 10.581 18.343 22.211zM413.894 205.493l-18.343-22.213-15.456 24.31 18.343 22.211 15.456-24.308zM402.218 121.738l-26.793 10.58 18.342 22.211 26.791-10.58-18.34-22.211zM393.767 154.529l1.784 28.751 26.791-10.581-1.784-28.75-26.791 10.58zM426.331 236.989l15.456-24.308-27.893-7.188-15.456 24.308 27.893 7.188zM389.097 79.26l-27.896-7.187 1.784 28.75 27.896 7.188-1.784-28.751z"/><path d="M362.985 100.823l-15.456 24.308 27.896 7.187 15.456-24.307-27.896-7.188zM417.672 97.43l-1.784-28.751-26.791 10.581 1.784 28.751 26.791-10.581zM436.015 119.641L417.672 97.43l-15.454 24.308 18.34 22.211 15.457-24.308z"/><path class="s1" d="M369.652 39.281l-26.794 10.581 18.343 22.211 26.794-10.581-18.343-22.211zM496.474 209.288l-27.893-7.188 1.784 28.751 27.893 7.187-1.784-28.75z"/><path d="M422.342 172.699l27.896 7.188-1.784-28.751-27.896-7.187 1.784 28.75z"/><path d="M448.454 151.136l15.457-24.308-27.896-7.187-15.457 24.308 27.896 7.187zM431.344 44.372l26.794-10.581-18.343-22.214-26.794 10.584 18.343 22.211zM470.577 65.286l15.454-24.308-27.893-7.187-15.457 24.308 27.896 7.187z"/><path class="s1" d="M463.911 126.828l26.79-10.58-18.34-22.211-26.793 10.58 18.343 22.211z"/><path d="M484.037 177.789l26.791-10.58-18.343-22.211-26.791 10.581 18.343 22.21zM95.534 254.108l-15.456 24.308 27.896 7.187 15.456-24.308-27.896-7.187zM27.387 144.995L.594 155.576l18.343 22.211 26.793-10.581-18.343-22.211zM148.437 221.964l15.456-24.31L136 190.466l-15.456 24.308 27.893 7.19zM109.206 201.047L136 190.466l-18.343-22.21-26.793 10.58 18.342 22.211z"/><path d="M182.236 219.867l-18.343-22.213-15.456 24.31 18.343 22.211 15.456-24.308zM136 190.466l27.893 7.188-1.784-28.751-27.893-7.187 1.784 28.75zM117.657 168.256l-1.784-28.751-26.793 10.581 1.784 28.75 26.793-10.58zM184.02 248.618l-15.456 24.308 27.896 7.187 15.453-24.308-27.893-7.187z"/><path d="M210.129 227.055l-27.893-7.188 1.784 28.751 27.893 7.187-1.784-28.75zM257.049 267.435l-18.342-22.21-15.457 24.308 18.343 22.21 15.456-24.308zM190.687 187.073l-26.794 10.581 18.343 22.213 26.791-10.583-18.34-22.211z"/><path d="M162.109 168.903l1.784 28.751 26.794-10.581-1.784-28.751-26.794 10.581zM269.489 298.93l15.453-24.307-27.893-7.188-15.456 24.308 27.896 7.187zM143.766 146.692l18.343 22.211 15.457-24.308-18.343-22.211-15.457 24.308z"/><path class="s1" d="M177.566 144.595l26.79-10.58-18.34-22.211-26.793 10.58 18.343 22.211z"/><path d="M131.33 115.197l-15.457 24.308 27.893 7.187 15.457-24.308-27.893-7.187z"/><path class="s1" d="M68.953 99.124L41.06 91.937l1.784 28.75 27.893 7.188-1.784-28.751zM137.994 53.655l-26.791 10.581 18.343 22.21 26.79-10.58-18.342-22.211z"/><path d="M157.439 93.634l-27.893-7.188 1.784 28.751 27.893 7.187-1.784-28.75zM56.516 67.629l26.791-10.581-18.343-22.213-26.791 10.583 18.343 22.211z"/><path d="M186.016 111.804l-1.784-28.751-26.793 10.581 1.784 28.75 26.793-10.58zM184.232 83.053l15.454-24.308-27.893-7.187-15.457 24.308 27.896 7.187zM179.562 7.784L151.666.594l1.784 28.75 27.896 7.191-1.784-28.751zM283.159 245.872l1.783 28.751 26.794-10.581-1.784-28.75-26.793 10.58z"/><path d="M311.736 264.042l-26.794 10.581 18.343 22.21 26.794-10.58-18.343-22.211z"/><path d="M327.192 239.734l-15.456 24.308 27.896 7.187 15.454-24.307-27.894-7.188z"/><path class="s1" d="M339.632 271.229l18.34 22.211 15.456-24.308-18.342-22.21-15.454 24.307z"/><path d="M373.428 269.132l26.794-10.58-18.343-22.211-26.793 10.581 18.342 22.21zM454.908 255.159l-26.793 10.58 18.343 22.211 26.793-10.581-18.343-22.21z"/></g></svg>