<svg xmlns="http://www.w3.org/2000/svg" xmlns:xlink="http://www.w3.org/1999/xlink" height="24" width="24"><defs><radialGradient gradientUnits="userSpaceOnUse" gradientTransform="matrix(1 0 0 .80682 .016 .366)" r="11" fy="5.201" fx="12.234" cy="5.201" cx="12.234" id="b" xlink:href="#a"/><linearGradient id="a"><stop offset="0" stop-color="#ff5050"/><stop offset="1" stop-color="#db2121"/></linearGradient></defs><path d="M11.965 1C5.924 1.02.987 5.982 1 12.023 1.013 18.064 5.97 23.006 12.012 23 18.052 22.994 23 18.041 23 12v-.047C22.974 5.913 18.006.981 11.965 1zm.015 5A5.963 5.963 0 0118 11.975v.03a6.06 6.06 0 01-.383 2.108 63685.33 63685.33 0 01-7.73-7.73A6.063 6.063 0 0111.98 6zM6.365 9.932l7.703 7.703a6.064 6.064 0 01-2.062.365A5.961 5.961 0 016 12.014a6.067 6.067 0 01.365-2.082z" style="line-height:normal;font-variant-ligatures:normal;font-variant-position:normal;font-variant-caps:normal;font-variant-numeric:normal;font-variant-alternates:normal;font-feature-settings:normal;text-indent:0;text-align:start;text-decoration-line:none;text-decoration-style:solid;text-decoration-color:#000;text-transform:none;text-orientation:mixed;white-space:normal;shape-padding:0;isolation:auto;mix-blend-mode:normal;solid-color:#000;solid-opacity:1" color="#000" font-weight="400" font-family="sans-serif" overflow="visible" fill="url(#b)" paint-order="markers stroke fill"/></svg>