<svg xmlns="http://www.w3.org/2000/svg" xmlns:xlink="http://www.w3.org/1999/xlink" height="24" width="24"><defs><radialGradient gradientTransform="matrix(1.85164 .01778 -.01122 1.16838 23.26 -2.56)" gradientUnits="userSpaceOnUse" r="13" fy="6.424" fx="-6.133" cy="6.424" cx="-6.133" id="b" xlink:href="#a"/><linearGradient id="a"><stop offset="0" stop-color="#ff5050"/><stop offset="1" stop-color="#920c0c"/></linearGradient></defs><path d="M23 12a11 11 0 01-10.995 11A11 11 0 011 12.01 11 11 0 0111.986 1 11 11 0 0123 11.982L12 12z" fill="url(#b)"/><path d="M12 18.549v.169" fill="none" stroke="#fff" stroke-width="4.5" stroke-linecap="round" stroke-miterlimit="3"/><path d="M12.013 2.95c-1.161-.03-2.121 1.036-2 2.125L9.998 9.05c.019 1.951.724 4.648 1.289 4.93.292.219 1.15.238 1.476 0 .727-.424 1.24-2.997 1.24-4.958-.03-.24 0-4.297 0-4.297-.056-.98-.964-1.795-1.99-1.775z" style="line-height:normal;font-variant-ligatures:normal;font-variant-position:normal;font-variant-caps:normal;font-variant-numeric:normal;font-variant-alternates:normal;font-feature-settings:normal;text-indent:0;text-align:start;text-decoration-line:none;text-decoration-style:solid;text-decoration-color:#000;text-transform:none;text-orientation:mixed;white-space:normal;shape-padding:0;isolation:auto;mix-blend-mode:normal;solid-color:#000;solid-opacity:1" color="#000" font-weight="400" font-family="sans-serif" overflow="visible" fill="#fff"/></svg>