<svg xmlns="http://www.w3.org/2000/svg" xmlns:xlink="http://www.w3.org/1999/xlink" width="24" height="24"><defs><linearGradient id="a"><stop stop-color="#8189ff" offset="0"/><stop stop-color="#484df0" offset="1"/></linearGradient><radialGradient xlink:href="#a" id="b" gradientUnits="userSpaceOnUse" gradientTransform="matrix(1.13082 .0409 -.0275 .76002 18.944 .205)" cx="-6.133" cy="6.424" fx="-6.133" fy="6.424" r="13"/></defs><path d="M23 12c.013 5.833-4.922 10.997-10.995 11-6.073.003-11-4.917-11.005-10.99C.994 5.936 5.912 1.008 11.986 1 18.214 1.067 22.987 6.275 23 12z" fill="url(#b)"/><path fill="#fff" word-spacing="0" letter-spacing="0" font-family="Densmore" font-weight="400" d="M14 21h-4V9h4z" style="line-height:150%;-inkscape-font-specification:'Densmore, Normal';font-variant-ligatures:normal;font-variant-caps:normal;font-variant-numeric:normal;font-feature-settings:normal;text-align:start"/><path paint-order="markers stroke fill" fill-opacity=".938" fill="#fff" d="M13.987 4.775a2 2 0 0 1-1.754 2.211 2 2 0 0 1-2.219-1.746 2 2 0 0 1 1.739-2.225 2 2 0 0 1 2.23 1.73"/><path fill="#fff" word-spacing="0" letter-spacing="0" font-family="Densmore" font-weight="400" style="line-height:150%;-inkscape-font-specification:'Densmore, Normal';font-variant-ligatures:normal;font-variant-caps:normal;font-variant-numeric:normal;font-feature-settings:normal;text-align:start" d="M35.5 21h-3v-9h3z"/><path paint-order="markers stroke fill" fill-opacity=".938" fill="#fff" d="M35.49 8.33a1.5 1.5 0 0 1-1.315 1.66 1.5 1.5 0 0 1-1.664-1.31 1.5 1.5 0 0 1 1.304-1.668 1.5 1.5 0 0 1 1.673 1.297"/></svg>