<svg xmlns="http://www.w3.org/2000/svg" xmlns:xlink="http://www.w3.org/1999/xlink" width="20" height="20"><defs><linearGradient id="a"><stop offset="0" stop-color="#f93c3c"/><stop offset="1" stop-color="#df0707"/></linearGradient><linearGradient xlink:href="#a" id="b" x1="11.445" y1="1.1" x2="11.749" y2="22.197" gradientUnits="userSpaceOnUse" gradientTransform="matrix(.7916 0 0 .83636 .576 -.6)"/></defs><path d="M2.735 17h14.532L10.001 4.06 2.735 17z" transform="translate(-1.412 -.398) scale(1.14107)" fill="#df0707" fill-rule="evenodd" stroke="url(#b)" stroke-width="1.753"/><path style="line-height:normal;font-variant-ligatures:normal;font-variant-position:normal;font-variant-caps:normal;font-variant-numeric:normal;font-variant-alternates:normal;font-feature-settings:normal;text-indent:0;text-align:start;text-decoration-line:none;text-decoration-style:solid;text-decoration-color:#000;text-transform:none;text-orientation:mixed;white-space:normal;shape-padding:0;isolation:auto;mix-blend-mode:normal;solid-color:#000;solid-opacity:1" d="M10 7c-.897 0-1.507.476-1.488 1.269L8.5 11.357c.014 1.394.542 3.32.965 3.52.22.157.862.17 1.105 0 .545-.302.93-2.14.93-3.54-.023-.17 0-3.068 0-3.068C11.498 7.459 10.897 7 10 7z" color="#000" font-weight="400" font-family="sans-serif" overflow="visible" fill="#fff"/><path d="M11.49 17.331a1.5 1.5 0 01-1.315 1.659 1.5 1.5 0 01-1.664-1.31 1.5 1.5 0 011.304-1.668 1.5 1.5 0 011.673 1.297" fill="#fff" paint-order="markers stroke fill"/></svg>