<svg xmlns="http://www.w3.org/2000/svg" xmlns:xlink="http://www.w3.org/1999/xlink" height="20" width="20"><defs><linearGradient id="a"><stop offset="0" stop-color="#f93c3c"/><stop offset="1" stop-color="#df0707"/></linearGradient><linearGradient gradientTransform="matrix(.7916 0 0 .83636 .576 -.6)" gradientUnits="userSpaceOnUse" y2="22.197" x2="11.749" y1="1.1" x1="11.445" id="b" xlink:href="#a"/></defs><path d="M2.735 17h14.532L10.001 4.06 2.735 17z" fill="#df0707" fill-rule="evenodd" stroke="url(#b)" stroke-width="2"/><path d="M10.006 6.5c-.58-.018-1.059.601-.998 1.233L9 10.04c.01 1.132.362 2.697.643 2.86.146.128.575.139.737 0 .364-.245.62-1.738.62-2.876-.016-.139 0-2.493 0-2.493-.028-.569-.482-1.042-.994-1.03z" style="line-height:normal;font-variant-ligatures:normal;font-variant-position:normal;font-variant-caps:normal;font-variant-numeric:normal;font-variant-alternates:normal;font-feature-settings:normal;text-indent:0;text-align:start;text-decoration-line:none;text-decoration-style:solid;text-decoration-color:#000;text-transform:none;text-orientation:mixed;white-space:normal;shape-padding:0;isolation:auto;mix-blend-mode:normal;solid-color:#000;solid-opacity:1" color="#000" font-weight="400" font-family="sans-serif" overflow="visible" fill="#fff"/><path d="M10.994 15.887a1 1 0 0 1-.878 1.106 1 1 0 0 1-1.109-.873 1 1 0 0 1 .87-1.112 1 1 0 0 1 1.115.865" fill="#fff" paint-order="markers stroke fill"/></svg>