<svg xmlns="http://www.w3.org/2000/svg" xmlns:xlink="http://www.w3.org/1999/xlink" viewBox="0 0 5.292 5.292" height="20" width="20"><defs><linearGradient id="a"><stop offset="0" stop-color="#f6ed62"/><stop offset="1" stop-color="#f7c700"/></linearGradient><radialGradient gradientUnits="userSpaceOnUse" gradientTransform="matrix(1.14426 1.13126 -.38803 .3925 110.755 358.686)" r="1.808" fy="208.491" fx="-205.085" cy="208.491" cx="-205.085" id="b" xlink:href="#a"/></defs><g transform="translate(0 -291.708)"><rect transform="rotate(-45)" ry=".426" y="208.202" x="-208.077" height="3.617" width="3.617" fill="url(#b)" fill-rule="evenodd"/><path d="M2.647 292.502c-.153-.009-.28.181-.264.464L2.381 294c.003.507.096 1.031.17 1.104.04.057.152.062.195 0 .097-.11.164-.602.164-1.111-.004-.062 0-1.116 0-1.116-.007-.255-.127-.379-.263-.374z" style="line-height:normal;font-variant-ligatures:normal;font-variant-position:normal;font-variant-caps:normal;font-variant-numeric:normal;font-variant-alternates:normal;font-feature-settings:normal;text-indent:0;text-align:start;text-decoration-line:none;text-decoration-style:solid;text-decoration-color:#000;text-transform:none;text-orientation:mixed;white-space:normal;shape-padding:0;isolation:auto;mix-blend-mode:normal;solid-color:#000;solid-opacity:1" color="#000" font-weight="400" font-family="sans-serif" overflow="visible" fill="#1a1a1a"/><path d="M2.91 295.942a.265.265 0 0 1-.264.264.265.265 0 0 1-.265-.264.265.265 0 0 1 .265-.265.265.265 0 0 1 .264.264h-.264z" paint-order="markers stroke fill"/></g></svg>