<svg xmlns="http://www.w3.org/2000/svg" xmlns:xlink="http://www.w3.org/1999/xlink" width="22" height="22"><defs><radialGradient xlink:href="#a" id="b" cx="-6.133" cy="6.424" fx="-6.133" fy="6.424" r="13" gradientUnits="userSpaceOnUse" gradientTransform="matrix(1.85163 .01778 -.01122 1.16833 22.26 -3.56)"/><linearGradient id="a"><stop offset="0" stop-color="#959cff" stop-opacity=".992"/><stop offset="1" stop-color="#484df0"/></linearGradient></defs><path d="M22 11a11 11 0 01-10.919 11A11 11 0 01.001 11.163 11 11 0 0110.756.003a11 11 0 0111.24 10.672" fill="url(#b)"/><path d="M9.16 16h3.805v3H9.159zm.1-2c.052-1.145-.272-2.042.865-3.037C11.3 9.96 13.01 9.06 14.279 8.11c.741-.54.814-1.702-.222-2.21-1.62-.853-3.273-.646-5.136-.212-1.32.316-1.725.593-2.921 1.064V4.685c1.898-1.195 3.482-1.779 6.36-1.66 1.94.145 3.126.765 4.319 1.721 1.509 1.334 1.22 3.46-.202 4.699-.434.341-.768.671-1.745 1.284-.837.49-1.806 1.03-1.819 1.8-.082.609-.04.86-.05 1.471z" aria-label="?" font-weight="400" font-size="19.305" font-family="sans-serif" letter-spacing="0" word-spacing="0" fill="#fff"/></svg>