<svg xmlns="http://www.w3.org/2000/svg" xmlns:xlink="http://www.w3.org/1999/xlink" height="22" width="22"><defs><radialGradient gradientTransform="matrix(1.85164 .01778 -.01122 1.16838 22.26 -3.56)" gradientUnits="userSpaceOnUse" r="13" fy="6.424" fx="-6.133" cy="6.424" cx="-6.133" id="b" xlink:href="#a"/><linearGradient id="a"><stop stop-opacity=".992" stop-color="#959cff" offset="0"/><stop stop-color="#484df0" offset="1"/></linearGradient></defs><path fill="url(#b)" d="M22 11a11 11 0 01-10.919 11A11 11 0 01.001 11.163 11 11 0 0110.756.003a11 11 0 0111.24 10.672"/><g style="line-height:150%;-inkscape-font-specification:'Bitstream Vera Sans, Bold';font-variant-ligatures:normal;font-variant-caps:normal;font-variant-numeric:normal;font-feature-settings:normal;text-align:start"><path fill="#fff" font-family="Bitstream Vera Sans" d="M8.987 13a3.206 3.206 0 01.813-2.28c.723-.946 1.806-1.57 2.558-2.49.558-.637.653-1.751-.128-2.27-.906-.57-2.093-.344-3.062-.052-.772.245-2.485.834-3.168 1.25v-2.87C8.125 2.794 12.062 2.24 13.954 3.1c1.38.562 2.353 1.618 2.556 2.882.263 1.235-.048 2.588-.97 3.527-.716.877-1.82 1.226-2.414 2.196-.203.362-.132.9-.136 1.295zm0 2h4.003v4H8.987z" style="-inkscape-font-specification:'Bitstream Vera Sans, Bold';font-variant-ligatures:normal;font-variant-caps:normal;font-variant-numeric:normal;font-feature-settings:normal;text-align:start" aria-label="?" font-weight="700" font-size="30.502" letter-spacing="0" word-spacing="0"/></g></svg>