<svg xmlns="http://www.w3.org/2000/svg" xmlns:xlink="http://www.w3.org/1999/xlink" viewBox="0 0 48 48"><defs><linearGradient gradientTransform="matrix(.89843 0 0 .90435 -.04 287.21)" xlink:href="#a" id="b" x1="16.278" y1="19.892" x2="13.942" y2="6.25" gradientUnits="userSpaceOnUse"/><linearGradient id="a"><stop offset="0" stop-color="#1f77d1"/><stop offset="1" stop-color="#98c3f0"/></linearGradient></defs><path d="M27.54 30.58c1.6-.001 3.997.002 5.596 0 .005-.346-.004-.692.004-1.037-.022.03-.055.041-.098.03-1.698-.004-3.396.002-5.094-.003z" fill="#494c4f"/><path d="M27.948 29.57c1.698.004 3.396-.001 5.094.003.043.011.076 0 .098-.03-.006-.322 0-.644-.004-.966-1.672-.002-3.344 0-5.015 0z" fill="#a7adb1"/><path d="M32.397 15.358l-7.133 23.185c-.448 1.459-1.332 2.185-2.572 2.088L1.909 38.396c-.789-.097-1.062-1.35-.613-2.809l7.132-23.185c.45-1.459 1.446-2.555 2.234-2.457l21.121 2.604c.79.097 1.063 1.35.614 2.809z" fill="#265c93"/><path d="M13.782 10.01l15.55.16c1.47.015 2.212 1.566 1.665 3.478l-5.88 20.542c-.77 2.281-1.162 3.5-3.64 3.423l-15.55-.16c-1.47-.016-2.213-1.567-1.666-3.478l5.88-20.542c.548-1.912 2.171-3.439 3.64-3.423z" fill="#e9ddaf" stroke="#d4bc62" stroke-width=".265"/><path d="M30.604 293.578l-7.55 22.38c-.6 1.504-.856 2.84-2.431 2.905l-18.835 3.245c-.747.2-1.004-.774-.593-2.185l7.072-22.958c.43-1.397 1.042-2.693 2.14-2.788l18.473-2.482c.747-.2 2.135.472 1.724 1.883z" fill="url(#b)" transform="translate(0 -284.3)"/><g><path d="M21.66 23.752l2.1-.666a4.238 4.238 0 0 1 .41-1.92c.614-1.31 1.962-2.284 3.478-2.542-2.261.25-4.321 1.624-5.325 3.51-.31.547-.625 1.19-.663 1.618z" fill="#bec3c7"/><path d="M24.074 19.046c-1.545 1.415-2.49 3.162-2.414 4.717.143-.626.343-1.057.663-1.63 1.004-1.885 3.064-3.26 5.325-3.509.231-.025.463-.054.696-.055h5.015c.001-.336.004-.672 0-1.008H28.56c-1.622-.016-3.246.518-4.487 1.485z" fill="#ebedef"/><path d="M24.17 21.166a4.238 4.238 0 0 0-.41 1.92c.08-.307.19-.662.352-.965.707-1.453 2.328-2.476 4.05-2.548 1.732-.02 3.465-.001 5.198-.01 0-.33.002-.662 0-.993h-5.016c-.233 0-.465.029-.696.054-1.516.258-2.864 1.231-3.478 2.542zM33.433 16.997c.002 4.658-.001 9.316.002 13.974l.013-.002c0-.192 0-.384-.002-.575.004-4.466.002-8.933.001-13.399l-.014.001z" fill="#676b6e"/><rect width="13.976" height="15.972" x="33.024" y="15.997" ry=".659" fill="#f9c425" fill-rule="evenodd"/><path d="M33.034 30.607l.002.796c.016.328.274.6.536.562 4.312-.002 8.625 0 12.938 0 .257.005.484-.3.477-.62.001-.245.002-.491.001-.737l-.013-.007c-.074.248-.289.405-.497.396-4.312 0-8.624-.002-12.936 0-.207.01-.42-.152-.495-.396z" fill="#ae8c20"/><path d="M33.034 17.366c.002-.265.001-.53.002-.796.016-.328.274-.6.537-.563 4.316.002 8.632 0 12.948 0 .257-.005.484.3.477.62.002.245.003.492.001.737l-.012.007c-.075-.247-.29-.405-.498-.395-4.315-.001-8.63.002-12.946-.002-.207-.008-.42.153-.496.397z" fill="#fce7a1"/></g></svg>