<svg xmlns="http://www.w3.org/2000/svg" xmlns:xlink="http://www.w3.org/1999/xlink" width="48" version="1" height="48"><defs><linearGradient id="b"><stop offset="0" stop-color="#1f77d1"/><stop offset="1" stop-color="#98c3f0"/></linearGradient><linearGradient id="a"><stop offset="0" stop-color="#ba8810"/><stop offset=".75" stop-color="#f5b01b"/><stop offset="1" stop-color="#e5be3d"/></linearGradient><linearGradient y2="52.609" y1="52.609" xlink:href="#a" x2="44.724" x1="15.086" spreadMethod="reflect" id="d" gradientUnits="userSpaceOnUse" gradientTransform="matrix(.39867 0 0 .29248 -36.279 26.873)"/><linearGradient gradientUnits="userSpaceOnUse" y2="6.25" x2="13.942" y1="33" x1="16" id="c" xlink:href="#b"/></defs><path d="M35.897 13.86l-7.94 25.806c-.5 1.624-1.482 2.433-2.863 2.324L1.962 39.503c-.878-.108-1.183-1.502-.683-3.126L9.218 10.57c.5-1.624 1.609-2.844 2.487-2.736l23.509 2.899c.877.108 1.182 1.502.683 3.126z" fill="#265c93"/><path d="M15.177 7.907l17.308.178c1.636.017 2.462 1.744 1.853 3.871l-6.545 22.865c-.858 2.54-1.293 3.896-4.052 3.81l-17.308-.179c-1.636-.017-2.462-1.743-1.853-3.87l6.545-22.865c.61-2.127 2.416-3.827 4.052-3.81z" fill="#e9ddaf" stroke="#d4bc62"/><path d="M34.11 7.04l-8.405 24.748c-.667 1.663-.951 3.14-2.705 3.212L2.036 38.588c-.832.22-1.118-.856-.66-2.416l7.87-25.386c.48-1.545 1.161-2.978 2.382-3.083L32.19 4.958c.832-.22 2.377.523 1.92 2.082z" fill="url(#c)"/><g fill-rule="evenodd"><path d="M24.686 22.845l1.807-.473c.177-1.98 1.556-2.585 3.755-2.603l5.205-.019.008-1.804-5.205.018c-3.953.271-5.256 1.242-5.57 4.881z" fill="#1a1a1a"/><path d="M30.912 30h4.296l-.001-2h-3.685z" fill="#666"/><path d="M25.124 22.749l.957-.185c.587-2.915 2.121-3.497 4.32-3.523l5.14-.041.008-1.098-4.88.098c-4.067-.176-5.252 1.58-5.545 4.749z" opacity=".904" fill="#fff"/><rect transform="matrix(.00405 -1 .99996 -.0084 0 0)" height="10.944" rx=".473" ry=".514" width="14.917" x="-31.804" y="35.628" fill="url(#d)" stroke="#735c00" stroke-linecap="round" stroke-linejoin="round"/></g></svg>