<svg xmlns="http://www.w3.org/2000/svg" xmlns:xlink="http://www.w3.org/1999/xlink" viewBox="0 0 48 48"><defs><linearGradient id="c"><stop offset="0" stop-color="#38f7ff"/><stop offset="1" stop-color="#fff" stop-opacity="0"/></linearGradient><linearGradient xlink:href="#a" x1="7.783" y1="10.522" gradientTransform="matrix(2.58465 0 0 2.51904 -.94 -1.37)" x2="11.464" gradientUnits="userSpaceOnUse" y2="14.15" id="f"><stop offset="0" stop-color="#d6d6d6"/><stop offset=".258" stop-color="#eaeaea"/><stop offset=".706" stop-color="#919191"/><stop offset=".733" stop-color="#d2d2d2"/><stop offset="1" stop-color="#a6a6a6"/></linearGradient><linearGradient id="b"><stop offset="0" stop-color="#fff"/><stop offset="1" stop-color="#fff" stop-opacity="0"/></linearGradient><linearGradient x1="13.739" x2="15.501" gradientTransform="matrix(2.09701 0 -.46725 2.51485 6.259 -.996)" y1="3.307" gradientUnits="userSpaceOnUse" xlink:href="#b" y2="4.93" id="d"/><radialGradient gradientTransform="matrix(1.10092 0 0 .20263 -31.426 34.782)" r="12.563" cx="41.876" cy="37.866" gradientUnits="userSpaceOnUse" fy="37.342" fx="33.846" id="a"><stop offset="0" stop-opacity=".316"/><stop offset=".5" stop-opacity=".079"/><stop offset="1" stop-opacity="0"/></radialGradient><radialGradient gradientUnits="userSpaceOnUse" gradientTransform="matrix(-1.02067 -1.16026 1.09549 -.94062 -23.58 80.195)" r="8.186" fy="34.914" fx="8.057" cy="34.914" cx="8.057" id="e" xlink:href="#c"/></defs><path d="M22.5 22.694C31.973 10.54 39.641 3.363 43.207 1.234c3.566-2.127 6.594-1.253 3.524 4.374-3.07 5.627-8.971 14.252-17.146 22.386-3.886-.751-5.908-2.853-7.087-5.3z" fill="#a07a0d" fill-rule="evenodd"/><path d="M22.074 22.866c4.58-6.75 16.36-19.336 21.391-21.78 5.033-2.443 3.497-.178 2.827 1.085-.67 1.263-20.027 23.683-21.609 22.89-1.58-.791-2.856-1.096-2.609-2.195z" fill="url(#d)" fill-rule="evenodd"/><path d="M0 47.14s16.077 4.018 17.373-5.317c1.297-9.338-4.973-4.83-7.65-4.613-3.731.14-7.404 4.183-9.723 9.93z" fill="#116580" fill-rule="evenodd"/><path d="M0 47.14s16.077 4.018 17.373-5.317c1.297-9.338-4.973-4.83-7.65-4.613-3.731.14-7.404 4.183-9.723 9.93z" fill="url(#e)" fill-rule="evenodd"/><path d="M12.218 36.533l10.32-13.93c1.17 2.648 4.703 4.284 7.107 5.339-1.08 1.273-11.017 11.344-12.17 11.803-1.152.459-5.134-2.649-5.257-3.212z" fill="url(#f)" fill-rule="evenodd"/></svg>