<svg xmlns="http://www.w3.org/2000/svg" xmlns:xlink="http://www.w3.org/1999/xlink" viewBox="0 0 48 48"><defs><linearGradient id="b"><stop offset="0" stop-color="#eaea00"/><stop offset=".609" stop-color="#f7cc22"/><stop offset="1" stop-color="#d4aa00"/></linearGradient><linearGradient id="c"><stop offset="0" stop-color="#fff"/><stop offset="1" stop-color="#fff" stop-opacity="0"/></linearGradient><linearGradient id="a"><stop offset="0" stop-color="#ff0"/><stop offset=".609" stop-color="#f7cc22"/><stop offset="1" stop-color="#d4aa00"/></linearGradient><radialGradient fy="874.971" fx="270.086" r="184.62" gradientTransform="matrix(.05901 -.02886 .03869 .05157 1.753 607.402)" cx="270.086" cy="874.971" gradientUnits="userSpaceOnUse" xlink:href="#a" id="e"/><radialGradient r="10.953" gradientTransform="matrix(.06562 .45658 -.25293 .02702 267.469 364.51)" cx="551.23" cy="852.58" gradientUnits="userSpaceOnUse" id="d"><stop offset="0" stop-opacity="0"/><stop offset=".465" stop-opacity="0"/><stop offset="1"/></radialGradient><radialGradient fy="728.326" fx="393.503" r="151.06" gradientTransform="matrix(.1527 0 0 .13704 8.108 522.405)" cx="393.503" cy="728.326" gradientUnits="userSpaceOnUse" xlink:href="#b" id="f"/><radialGradient r="184.62" gradientTransform="matrix(.16555 0 0 .05454 7.971 593.33)" cx="306.09" cy="1055.1" gradientUnits="userSpaceOnUse" id="g"><stop offset="0" stop-color="#a80"/><stop offset=".79" stop-color="#a28100"/><stop offset="1" stop-color="#540"/></radialGradient><radialGradient fy="707.44" fx="320.665" r="71.609" gradientTransform="matrix(.5 .86603 -2.0826 1.2024 1470.924 -747.448)" cx="320.665" cy="707.44" gradientUnits="userSpaceOnUse" xlink:href="#c" id="h"/><filter height="1.3" y="-.15" width="1.277" x="-.138" id="i" color-interpolation-filters="sRGB"><feGaussianBlur stdDeviation="8.258"/></filter></defs><path d="M88.216 635.305c0 .35-.03.696-.09 1.037.749.854 1.161 1.777 1.161 2.742 0 1.105-.534 2.155-1.499 3.108 1.568-1.071 2.542-2.292 2.73-3.584-.173-1.193-.988-2.312-2.302-3.303z" opacity=".8" fill="url(#d)" transform="translate(-43.552 -611.612)"/><path d="M59.938 622.69c-4.232 1.894-7.845 6.023-8.901 9.51-.84 1.971-1.464 3.753-1.661 5.294-.56.297-1.027 1.41-1.475 1.74-1.465 1.081-3.349 4.467-3.349 5.795 0 1.782 4.507 4.096 6.498 5.328 2.614 1.618 3.397 1.895 9.035 1.895 4.503 0 15.364-3.29 18.52-4.425 2.848-.994 6.567-2.552 8.729-3.887 2.032-1.172 3.218-2.584 3.218-4.103 0-1.284-.849-2.489-2.336-3.54-1.69-11.581-9.647-16.122-16.596-16.637-5.773-.173-8.274.894-11.682 3.03z" fill="url(#e)" transform="translate(-43.552 -611.612)"/><path d="M70.621 618.834c-4.267-.012-8.23 1.237-11.402 3.34-4.197 2.172-7.306 5.598-8.474 9.596-.93 2.26-1.401 4.302-1.62 6.068-1.625 5.073 9.56 10.737 15.776 10.837 8.936.051 23.315-5.467 23.315-12.21-.127-8.74-6.832-17.429-17.594-17.631z" fill="url(#f)" transform="translate(-43.552 -611.612)"/><path d="M43.604 21.55c-29.777 14.554-14.888 7.277 0 0z" opacity=".551" fill="#ffff04"/><path d="M90.517 638.608c-.23 1.589-1.649 3.073-3.9 4.299-2.367 1.246-5.34 2.759-8.012 3.802-3.155 1.245-14.016 4.886-18.52 4.974-5.638.11-6.42-.163-9.035-1.799-1.954-1.222-6.332-3.484-6.494-5.323a.56.56 0 0 0-.004.068c0 1.902 4.507 4.373 6.497 5.688 2.615 1.728 3.398 2.024 9.036 2.024 4.503 0 15.36-3.52 18.52-4.725 3.376-1.289 6.788-2.8 9.311-4.532 1.675-1.172 2.636-2.539 2.636-4 0-.16-.013-.319-.035-.476z" fill="url(#g)" transform="translate(-43.552 -611.612)"/><path d="M46.965 26.996c-.24 1.663-1.782 3.21-4.218 4.467-2.883 1.457-5.288 2.727-7.694 3.634-3.155 1.245-14.016 4.887-18.52 4.974-5.638.11-6.42-.163-9.035-1.799-1.95-1.219-6.312-3.473-6.494-5.31.137 1.847 4.534 4.167 6.494 5.414 2.614 1.665 3.397 1.946 9.035 1.893 4.505-.043 15.365-3.582 18.52-4.796 2.585-1.08 5.536-2.432 7.963-3.705 2.384-1.264 3.848-2.824 3.977-4.508v-.028a3.254 3.254 0 0 0-.027-.238z" opacity=".624" fill="#fd5"/><path d="M122.114 438.332c20.04-62.92 75.6-114.1 143.22-114.1-72.97 16.449-105.26 83.284-106.75 132.06-14.175-3.195-27.246-10.206-36.469-17.965z" transform="matrix(.12458 0 0 .0887 -4.425 -19.22)" fill="url(#h)" filter="url(#i)"/></svg>