<svg xmlns="http://www.w3.org/2000/svg" width="960" height="960"><path d="M612.582 0l-82.746 140.258L160 140C72.052 140 0 212.052 0 300v500c0 87.948 72.052 160 160 160h500c87.948 0 160-72.052 160-160V545.322l103.586.149 34.885-59.676-80.096-141.787L960 203.096l-34.238-60.05-162.838-1.528L681.704 0zm34.022 99.775L717.29 221.3l139.074 1.101-70.683 121.608L855.05 465.37l-137.76-.166-73.318 120.514-69.368-121.524-140.394-1.1 70.9-121.607-69.584-121.365 139.078.168zM160 220h183.574l68.627 121.488L330.578 482.4l34.236 60.045 162.838 1.532 81.223 140.836h69.121L740 580.393V800c0 45.012-34.988 80-80 80H160c-45.012 0-80-34.988-80-80V300c0-45.012 34.988-80 80-80z"/></svg>