<svg xmlns="http://www.w3.org/2000/svg" width="960" height="960"><path d="M60 0h120c33.24 0 60 26.76 60 60v120c0 33.24-26.76 60-60 60H60c-33.24 0-60-26.76-60-60V60C0 26.76 26.76 0 60 0zm720 0h120c33.24 0 60 26.76 60 60v120c0 33.24-26.76 60-60 60H780c-33.24 0-60-26.76-60-60V60c0-33.24 26.76-60 60-60zm0 720h120c33.24 0 60 26.76 60 60v120c0 33.24-26.76 60-60 60H780c-33.24 0-60-26.76-60-60V780c0-33.24 26.76-60 60-60zm0-360h120c33.24 0 60 26.76 60 60v120c0 33.24-26.76 60-60 60H780c-33.24 0-60-26.76-60-60V420c0-33.24 26.76-60 60-60zM420 0h120c33.24 0 60 26.76 60 60v120c0 33.24-26.76 60-60 60H420c-33.24 0-60-26.76-60-60V60c0-33.24 26.76-60 60-60zM154.973 959.163c24.083-.171 44.397-19.498 63.58-40.077L559.92 577.274c18.684-16.139 36.004-38.701 40.081-63.72l-.816-115.95c4.078-25.019-12.722-41.044-36.92-36.974l-114.443.547c-24.207 4.063-47.392 23.26-64.172 39.597L42.3 742.603c-20.444 18.027-35.17 38.79-39.483 64.205L.667 923.025c-4.32 25.399 12.838 37.145 36.92 36.973z"/></svg>