<svg xmlns="http://www.w3.org/2000/svg" height="960" width="960"><path d="M937.62 824.027L728.837 615.225c-1.1-1.1-2.42-1.89-3.56-2.91a393.192 393.192 0 0065.057-217.153C790.314 176.938 613.375 0 395.162 0 176.919 0 0 176.938 0 395.162c0 218.223 176.919 395.152 395.162 395.152a393.192 393.192 0 00217.153-65.057c1.02 1.14 1.8 2.45 2.9 3.56L824.028 937.62A80.339 80.339 0 00937.62 824.027zM395.142 653.33c-142.575 0-258.157-115.602-258.157-258.167 0-142.596 115.582-258.178 258.177-258.178 142.565 0 258.167 115.582 258.167 258.178 0 142.565-115.602 258.167-258.167 258.167z"/></svg>