<svg xmlns="http://www.w3.org/2000/svg" width="96" height="96"><path d="M73.26 0C60.273.024 52.099 17.273 48.932 29.066 41.13 19.2 29.49 11.132 17.885 16.363c-8.939 4.539-21.877 19.55-16.7 35.457 9.79-11.987 25.56-14.572 35.27-15.647l.021.01c-15.51 12.066-15.959 34.483-5.286 42.354 6.634-11.136 16.405-19.657 23.611-24.176 1.603 11.99-2 29.899-3.607 41.639h17.332c.194-16.495-.724-31.387-5.582-49.129 9.676 5.493 15.73 10.82 20.74 21.811 1.435-.312 10.103-10.004 11.551-16.863 3.007-13.088-2.94-23.27-16.294-24.275-6.762-.407-17.073 1.283-19.594 3.446 3.465-8.595 22.101-13.586 33.109-10.052C93.181 9.866 84.558.453 73.888.01l-.62-.01z"/></svg>