<svg xmlns="http://www.w3.org/2000/svg" width="273.167" height="65.312" viewBox="0 0 72.275 17.28"><path fill="#595a5c" d="M3.034 13.97c-2 0-2.034-1.054-2.034-1.826V6.372c0-.773.046-1.827 2.034-1.827 1.999 0 2.033 1.029 2.033 1.827v1.97H3.38V5.974c.018-.36-.687-.37-.693 0v6.57c.01.37.667.38.693 0V9.665h1.687v2.478c0 .773-.035 1.827-2.033 1.827zm6.574-.07l.07-5.538-.902 5.537h-.901L7.03 8.362l.07 5.537H5.667V4.64h1.86l.798 4.836 1.04-4.836h1.767v9.26zm6.216-1.768c0 .773-.046 1.827-2.033 1.827-2 0-2.034-1.054-2.034-1.827V10.46h1.699v2.082c-.013.446.687.415.693.001V9.665h-2.403V6.372c0-.773.046-1.827 2.033-1.827 2 0 2.034.955 2.034 1.827v1.442h-1.699v-1.84c.01-.431-.687-.42-.693-.001v2.635h2.38zm6.096 1.767l.069-5.537-.902 5.537h-.901l-.843-5.537.069 5.537H17.99V4.64h1.86l.786 4.836 1.051-4.836h1.768v9.26zm4.517 0v-.374c-.393.469-1.063.527-1.433.399-.682-.246-.959-.703-.959-1.675v-1.943c0-.773.047-1.838 2.034-1.838h.347V5.973c-.001-.516-.678-.486-.694 0v1.804h-1.687V6.372c0-.773.046-1.827 2.034-1.827 2.01 0 2.033 1.054 2.033 1.827v7.527zm0-4.296h-.358a.343.343 0 00-.347.351v2.588c.02.476.673.466.705 0zm4.645 4.296v-.467c-.192.33-.543.534-.924.538-.948 0-1.456-.503-1.456-1.464V6.301c0-.877.242-1.194.38-1.334.232-.223.602-.422.983-.422.359 0 .751.14 1.017.433v-2.72h1.699v11.641zm-.693-7.902v6.545c0 .45.678.448.693 0V5.997c0-.502-.687-.488-.693 0zm5.038 7.973c-2 0-2.034-1.053-2.034-1.826V6.372c0-.773.046-1.827 2.034-1.827 1.998 0 2.033 1.054 2.033 1.827v3.294h-2.38v2.876c.01.44.697.429.693 0V10.46h1.699v1.672c-.012.785-.047 1.838-2.045 1.838zm.346-7.997c.009-.535-.677-.515-.693 0v2.635h.682zm8.007 6.159c0 .773-.046 1.827-2.033 1.827-1.999 0-2.034-1.054-2.034-1.827V10.46h1.699v2.082c-.021.485.696.46.693.001V9.665h-2.38V6.372c0-.773.046-1.827 2.034-1.827 1.998 0 2.033 1.054 2.033 1.827v1.442h-1.699v-1.84c.035-.5-.697-.501-.693-.001v2.635h2.38zm.624-8.287V2.258h1.699v1.587zm0 10.06V4.639h1.699v9.266zm7.153 0v-7.92c.007-.47-.698-.481-.705-.011v7.93h-1.699V5.985a.352.352 0 00-.346-.362.353.353 0 00-.347.362v7.92h-1.7V4.639h1.699v.445a1.09 1.09 0 01.947-.538c.543 0 .96.163 1.191.515.393-.399.797-.516 1.19-.516.947 0 1.444.504 1.444 1.464v7.884zm6.02-.356c-.232.234-.601.433-.983.433a1.44 1.44 0 01-1.017-.433v2.731H53.88V4.64h1.699v.445c.173-.305.543-.527.947-.527.936 0 1.433.48 1.433 1.464v6.205c-.066.513-.114 1.006-.382 1.322zM56.26 5.985c.007-.498-.697-.444-.694 0v6.545c.006.473.67.419.693 0zm2.356 7.914V2.258h1.7v11.641zm4.368.072c-1.999 0-2.034-1.055-2.034-1.827V6.372c0-.773.047-1.827 2.034-1.827 2 0 2.034 1.054 2.034 1.827v3.294h-2.38v2.876c-.02.485.683.471.693 0V10.46h1.698v1.672c.034 1.023-.279 1.87-2.045 1.839zm.347-7.997c.007-.485-.71-.487-.694-.001v2.634h.682z" class="st2"/><path fill="#595a5c" class="st3" d="M66.122 1.579h-.847V1h2.4v.579h-.845V3.98h-.709zm4.544.044l-.625 2.376h-.619l-.665-2.376L68.805 4h-.618V1.019h.944l.6 2.075.58-2.075h.964V4h-.617z"/></svg>