<svg xmlns="http://www.w3.org/2000/svg" viewBox="0 0 48 48"><path class="st1" d="M2.568 23.429c0-11.274 9.546-20.416 21.318-20.416 11.771 0 21.318 9.142 21.318 20.416 0 11.273-9.547 20.415-21.318 20.415-11.772 0-21.318-9.142-21.318-20.415z" fill="#fff"/><path d="M0 24C0 10.765 10.73 0 24 0c13.236 0 24 10.731 24 24 0 13.235-10.73 24-24 24-13.27-.06-24-10.765-24-24zm10.087-7.413l.238.643h.947l1.456-1.727.339-.405.508.103.304.508s.948-.643 1.287-.948c.338-.303.541-.405.541-.405l.305.88s1.524-1.185 1.693-1.05c.135.133.101.545.101.545s-2.335 1.828-2.775 4.062c-.44 2.234-.407 3.757-.102 4.976.305 1.184 1.286 2.945 1.286 2.945h.204l.338-.103s.068-.508.136-.846c.101-.339.338-.544.981-.71.644-.134.745-.134 1.151-.88.407-.746.407-1.253.407-1.253h.981l-.101-1.49 1.388.062.135-.508.745-.103s-.44-1.625-.643-2.2c-.204-.544-.813-.981-.644-1.354.136-.339.44-.133.44-.133s1.355 1.828 1.422 2.471c.102.643.407 3.758.34 4.976-.069 1.185-.949 5.857-.644 6.161 0 0 .812.812 2.2.643 1.388-.133 2.336-.61 2.437-1.15.102-.545-.406-5.383-.575-6.602-.203-1.252-1.253-4.637-1.287-4.874-.067-.236-.135-1.354-.135-1.354l.745.067.203 1.49.846.302.508.205.339-.338.237.102s.135 1.151.508 1.49c.338.338.88.544 1.15.441.238-.102.238-.302.238-.302l.237.205s0 1.151.135 1.456c.136.302.508.948.88.846.407-.102 2.742-2.843 3.08-4.773.34-1.93.037-4.13-.304-4.57-.339-.44-1.997-2.098-4.434-2.098-2.438 0-4.807.544-5.417 1.049-.609.508-.169-.88-.169-.88l1.354-.206.237-.236h.237l.102-.44 1.828-.062.101-.88 2.54-.061.067-1.083.643.405 1.523-.061.339.405h.237l.102-1.388s-1.185-2.234-1.896-2.776c-.71-.544-2.336-1.93-3.588-1.794-1.253.133-3.216 1.185-3.927 2.1-.71.88-2.335 3.688-2.437 4.23-.102.545-.508 2.302-.508 2.302l-.406-.133s-3.148-3.216-4.4-3.418c-1.22-.206-2.878-.303-4.13.338-1.084.545-3.386 2.776-3.86 3.69-.508.914-1.15 2.234-1.184 2.775-.068.545-.068 3.521-.068 3.521l.339.103 2.098-2.743zm17.569 9.207c.203 2.065.406 4.367.339 4.773-.136.643-1.253 1.185-2.946 1.388-1.692.17-2.64-.778-2.64-.778-.237-.236.17-2.945.474-5.112-7.887.846-13.777 3.554-13.641 6.533.135 3.317 7.819 5.653 17.162 5.247 9.342-.405 16.756-3.453 16.62-6.77-.101-3.114-6.837-5.349-15.368-5.281z" class="st3" fill="#f8993a"/></svg>