<?xml version="1.0" encoding="UTF-8" standalone="no"?>
<svg
   xmlns:dc="http://purl.org/dc/elements/1.1/"
   xmlns:cc="http://creativecommons.org/ns#"
   xmlns:rdf="http://www.w3.org/1999/02/22-rdf-syntax-ns#"
   xmlns:svg="http://www.w3.org/2000/svg"
   xmlns="http://www.w3.org/2000/svg"
   xmlns:sodipodi="http://sodipodi.sourceforge.net/DTD/sodipodi-0.dtd"
   xmlns:inkscape="http://www.inkscape.org/namespaces/inkscape"
   viewBox="0 0 48 48"
   version="1.1"
   id="svg6"
   sodipodi:docname="CMSMS-logo.svg"
   inkscape:version="0.92.4 (5da689c313, 2019-01-14)"
   inkscape:export-filename="/var/www/html/cmsms-23DEV/admin/themes/assets/images/CMSMS-logo.png"
   inkscape:export-xdpi="96"
   inkscape:export-ydpi="96">
  <metadata
     id="metadata12">
    <rdf:RDF>
      <cc:Work
         rdf:about="">
        <dc:format>image/svg+xml</dc:format>
        <dc:type
           rdf:resource="http://purl.org/dc/dcmitype/StillImage" />
        <dc:title></dc:title>
      </cc:Work>
    </rdf:RDF>
  </metadata>
  <defs
     id="defs10" />
  <sodipodi:namedview
     pagecolor="#ffffff"
     bordercolor="#666666"
     borderopacity="1"
     objecttolerance="10"
     gridtolerance="10"
     guidetolerance="10"
     inkscape:pageopacity="0"
     inkscape:pageshadow="2"
     inkscape:window-width="1488"
     inkscape:window-height="918"
     id="namedview8"
     showgrid="false"
     showguides="false"
     inkscape:zoom="13.906433"
     inkscape:cx="24"
     inkscape:cy="55.640032"
     inkscape:window-x="38"
     inkscape:window-y="34"
     inkscape:window-maximized="0"
     inkscape:current-layer="svg6" />
  <path
     class="st1"
     d="M2.568 23.429c0-11.274 9.546-20.416 21.318-20.416 11.771 0 21.318 9.142 21.318 20.416 0 11.273-9.547 20.415-21.318 20.415-11.772 0-21.318-9.142-21.318-20.415z"
     fill="#fff"
     id="path2" />
  <path
     d="M 1,24 C 1,11.316458 11.282917,0.99999997 24,0.99999997 36.6845,0.99999997 47,11.283875 47,24 47,36.683542 36.717083,47 24,47 11.282917,46.9425 1,36.683542 1,24 Z m 9.666708,-7.104125 0.228084,0.616208 h 0.907541 l 1.395334,-1.655041 0.324875,-0.388125 0.486833,0.09871 0.291333,0.486833 c 0,0 0.9085,-0.616208 1.233375,-0.9085 0.323917,-0.290375 0.518459,-0.388125 0.518459,-0.388125 l 0.292291,0.843334 c 0,0 1.4605,-1.135625 1.622459,-1.00625 0.129375,0.127458 0.09679,0.522291 0.09679,0.522291 0,0 -2.237708,1.751834 -2.659375,3.89275 -0.421666,2.140917 -0.390041,3.600459 -0.09775,4.768667 0.292292,1.134667 1.232417,2.822292 1.232417,2.822292 h 0.1955 l 0.323917,-0.09871 c 0,0 0.06517,-0.486833 0.130333,-0.81075 0.09679,-0.324875 0.323917,-0.521333 0.940125,-0.680416 0.617167,-0.128417 0.713958,-0.128417 1.103042,-0.843334 0.390041,-0.714916 0.390041,-1.200791 0.390041,-1.200791 h 0.940125 l -0.09679,-1.427917 1.330166,0.05942 0.129375,-0.486834 0.713959,-0.09871 c 0,0 -0.421667,-1.557292 -0.616209,-2.108333 -0.1955,-0.521334 -0.779125,-0.940125 -0.617166,-1.297584 0.130333,-0.324875 0.421666,-0.127458 0.421666,-0.127458 0,0 1.298542,1.751833 1.36275,2.368042 0.09775,0.616208 0.390042,3.601416 0.325834,4.768666 -0.06612,1.135625 -0.909459,5.612959 -0.617167,5.904292 0,0 0.778167,0.778167 2.108333,0.616208 1.330167,-0.127458 2.238667,-0.584583 2.335459,-1.102083 0.09775,-0.522292 -0.389084,-5.158708 -0.551042,-6.326917 C 26.597083,22.507877 25.590833,19.263919 25.55825,19.036794 25.49404,18.810627 25.428875,17.73921 25.428875,17.73921 l 0.713958,0.06421 0.194542,1.427916 0.81075,0.289417 0.486833,0.196458 0.324875,-0.323916 0.227125,0.09775 c 0,0 0.129375,1.103041 0.486834,1.427916 0.323916,0.323917 0.843333,0.521334 1.102083,0.422625 0.228083,-0.09775 0.228083,-0.289416 0.228083,-0.289416 l 0.227125,0.196458 c 0,0 0,1.103042 0.129375,1.395333 0.130334,0.289417 0.486834,0.9085 0.843334,0.81075 0.390041,-0.09775 2.62775,-2.724541 2.951666,-4.574125 0.325834,-1.849583 0.03546,-3.957916 -0.291333,-4.379583 -0.324875,-0.421667 -1.913792,-2.010583 -4.24925,-2.010583 -2.336417,0 -4.606708,0.521333 -5.191292,1.005291 -0.583625,0.486834 -0.161958,-0.843333 -0.161958,-0.843333 l 1.297583,-0.197417 0.227125,-0.226166 h 0.227125 l 0.09775,-0.421667 1.751834,-0.05942 0.09679,-0.843333 2.434167,-0.05846 0.06421,-1.0378754 0.616209,0.3881254 1.459541,-0.05846 0.324875,0.388125 h 0.227125 l 0.09775,-1.3301664 c 0,0 -1.135625,-2.1409167 -1.817,-2.6603333 C 30.686293,6.014 29.128043,4.68575 27.928209,4.8160833 c -1.200791,0.1274583 -3.082,1.135625 -3.763375,2.0125 -0.680416,0.8433333 -2.237708,3.5343337 -2.335458,4.0537497 -0.09775,0.522292 -0.486833,2.206084 -0.486833,2.206084 l -0.389084,-0.127459 c 0,0 -3.016833,-3.0819997 -4.216666,-3.2755831 -1.169168,-0.1974166 -2.758085,-0.290375 -3.957918,0.3239171 -1.038833,0.522291 -3.2449167,2.660333 -3.6991667,3.53625 -0.4868333,0.875916 -1.1020833,2.140916 -1.1346667,2.659375 -0.065167,0.522291 -0.065167,3.374291 -0.065167,3.374291 l 0.324875,0.09871 2.0105834,-2.628709 z m 16.836959,8.823375 c 0.194541,1.978958 0.389083,4.185042 0.324875,4.574125 -0.130334,0.616208 -1.200792,1.135625 -2.82325,1.330167 -1.6215,0.162916 -2.53,-0.745584 -2.53,-0.745584 -0.227125,-0.226166 0.162916,-2.822291 0.45425,-4.899 -7.558375,0.81075 -13.2029587,3.405917 -13.0726254,6.260792 0.129375,3.178792 7.4932084,5.417458 16.4469164,5.028375 C 35.256583,36.88 42.361667,33.959 42.231333,30.780208 42.134543,27.795958 35.679208,25.654083 27.503667,25.71925 Z"
     class="st3"
     id="path4"
     inkscape:connector-curvature="0"
     style="fill:#f8993a;stroke-width:1" />
</svg>
