<svg xmlns="http://www.w3.org/2000/svg" viewBox="0 0 48 48"><path fill="#ffa041" d="M1 23.98A23 23 0 0124.016 1 23 23 0 0147 24.012 23 23 0 0123.992 47 23 23 0 011 23.995"/><path class="st3" d="M9.542 17.56c.044.575.157.954.298 1.45l3.129-3.016.303.824 1.834-1.292.263.894 1.69-.991c.127.14.078.548.078.548-3.033 2.831-4.084 5.98-2.795 10.392.295.72.846 1.373 1.322 1.49l.484-2.04 1.275.316.577-2.178 1.08.663.246-1.826 1.28.533.085-1.184.867.157c-.21-1.245-.738-2.556-1.19-3.569l.505-.165s1.25 1.885 1.293 2.53c.073.65.253 3.787.14 5.008-.11 1.185-1.146 5.84-.86 6.156 0 0 .762.846 2.121.727 1.357-.085 2.299-.525 2.418-1.064.12-.541-.191-5.415-.31-6.646-.151-1.263-1.045-4.699-1.069-4.936-.057-.242-.081-1.365-.081-1.365l.723.096.9 1.795.906-.682.764 2.196.642-.604.542 2.025.756-.803.415 2.177c.4-.087 2.968-2.895 3.373-4.819.839-3.8-1.432-6.523-4.556-6.72-2.375-.09-4.891.435-5.505.92l.73-1.493 1.025.3.472-1.113 1.524.57.355-1.455 1.968.909.02-1.675 1.581 1.341.549-1.02.886.878c.12-3.204-2.159-5.937-5.02-6.176-3.836-.135-6.128 5.047-7.027 8.408-2.177-2.767-5.351-5.024-8.59-3.556-2.506 1.512-4.17 3.605-5.161 6.3-.231 1.24-.2 2.801.126 3.645zm16.779 9.886c.12 2.08.229 4.396.149 4.8-.157.64-1.267 1.143-2.924 1.285-1.657.107-2.545-.88-2.545-.88-.326-.4.178-2.706.656-5.11-7.72.558-13.565 3.059-13.546 6.052.006 3.334 7.407 5.96 16.53 5.897 9.124-.064 16.474-3.037 16.46-6.18-.012-3.14-6.737-5.552-14.78-5.864z" fill="#fff"/></svg>