<svg xmlns="http://www.w3.org/2000/svg" width="72" height="72"><path fill="#f6f6f6" class="st2" d="M6.808 68.085c-1.811 0-1.842-.803-1.842-1.391v-4.396c0-.59.042-1.392 1.842-1.392 1.811 0 1.842.784 1.842 1.392v1.5H7.122v-1.804c.016-.274-.622-.281-.628 0V67c.01.281.604.289.628 0v-2.193H8.65v1.887c0 .589-.032 1.392-1.842 1.392zm5.955-.054l.064-4.218-.817 4.218h-.817l-.765-4.218.063 4.218H9.193v-7.053h1.685l.723 3.684.942-3.684h1.6v7.053zm5.63-1.346c0 .589-.041 1.391-1.84 1.391-1.812 0-1.843-.802-1.843-1.391V65.41h1.539v1.586c-.012.34.622.316.627 0v-2.191H14.7v-2.508c0-.59.041-1.392 1.841-1.392 1.812 0 1.843.727 1.843 1.392v1.098h-1.54v-1.402c.01-.328-.622-.32-.627 0V64h2.156zm5.522 1.346l.063-4.218-.817 4.218h-.816l-.764-4.218.063 4.218h-1.288v-7.053h1.684l.712 3.684.952-3.684h1.602v7.053zm4.092 0v-.285c-.356.357-.963.401-1.298.304-.618-.188-.869-.536-.869-1.276v-1.48c0-.589.043-1.4 1.843-1.4h.314v-1.9c0-.393-.614-.37-.629 0v1.374H25.84v-1.07c0-.59.042-1.392 1.843-1.392 1.82 0 1.841.803 1.841 1.392v5.733zm0-3.272h-.324a.31.261 0 00-.315.267v1.971c.018.363.61.355.639 0zm4.207 3.272v-.356c-.173.251-.491.407-.837.41-.858 0-1.318-.383-1.318-1.115v-4.726c0-.668.219-.91.344-1.017.21-.17.545-.321.89-.321.325 0 .68.107.921.33v-2.072h1.54v8.867zm-.627-6.019v4.985c0 .343.614.341.627 0v-4.985c0-.382-.622-.372-.627 0zm4.563 6.073c-1.811 0-1.842-.802-1.842-1.391v-4.396c0-.59.041-1.392 1.842-1.392 1.81 0 1.842.803 1.842 1.392v2.508h-2.156v2.191c.009.335.631.327.628 0v-1.586h1.539v1.274c-.011.598-.043 1.4-1.853 1.4zm.314-6.091c.008-.408-.614-.393-.628 0V64h.618zm7.252 4.69c0 .59-.041 1.392-1.841 1.392-1.81 0-1.843-.802-1.843-1.391V65.41h1.54v1.586c-.02.37.63.35.627 0v-2.191h-2.156v-2.508c0-.59.042-1.392 1.843-1.392 1.81 0 1.841.803 1.841 1.392v1.098h-1.539v-1.402c.032-.38-.631-.381-.627 0V64h2.155zm.566-6.311v-1.209h1.539v1.209zm0 7.662v-7.057h1.539v7.057zm6.479 0v-6.032c.006-.358-.632-.367-.639-.009v6.04h-1.539v-6.031a.319.268 0 00-.313-.276.32.269 0 00-.314.276v6.032h-1.54v-7.057h1.539v.339a.987.83 0 01.857-.41c.492 0 .87.124 1.08.392a1.584 1.584 0 011.077-.393c.858 0 1.308.384 1.308 1.115v6.005zm5.453-.271c-.21.178-.545.33-.89.33a1.304 1.097 0 01-.922-.33v2.08h-1.537v-8.866h1.539v.34c.157-.233.492-.402.858-.402.848 0 1.298.366 1.298 1.115v4.726c-.06.39-.103.766-.346 1.007zm-1.193-5.761c.006-.38-.632-.338-.629 0v4.985c.005.36.607.319.628 0zm2.134 6.028v-8.867h1.54v8.867zm3.956.054c-1.81 0-1.842-.803-1.842-1.391v-4.396c0-.59.043-1.392 1.842-1.392 1.812 0 1.843.803 1.843 1.392v2.508h-2.156v2.191c-.018.37.619.359.628 0v-1.586h1.538v1.274c.03.779-.253 1.424-1.853 1.4zm.315-6.09c.006-.37-.643-.371-.629-.001V64h.618z"/><path d="M62.342 56.802h-1.096v-.772h3.108v.772H63.26v3.204h-.917zm5.868.059l-.81 3.17h-.8l-.861-3.17.062 3.17H65v-3.976h1.223L67 58.823l.751-2.768H69v3.976h-.8z" class="st3" fill="#f6f6f6"/><path fill="#ffa041" d="M11 30.978A25 25 0 0136.018 6 25 25 0 0161 31.013 25 25 0 0135.992 56 25 25 0 0111 30.994"/><path fill="#fff" class="st3" d="M20.285 24c.048.625.17 1.037.324 1.576l3.4-3.278.33.895 1.993-1.403.287.97 1.837-1.076c.137.151.084.595.084.595-3.296 3.077-4.44 6.5-3.038 11.296.32.782.92 1.492 1.438 1.62l.525-2.218 1.386.344.627-2.368 1.174.721.267-1.984 1.391.579.093-1.288.943.171c-.228-1.353-.802-2.778-1.294-3.879l.549-.18s1.359 2.049 1.405 2.75c.08.707.275 4.117.153 5.444-.12 1.288-1.246 6.348-.936 6.691 0 0 .83.92 2.307.79 1.474-.092 2.498-.57 2.627-1.156.13-.589-.207-5.886-.336-7.224-.165-1.373-1.136-5.107-1.162-5.365-.062-.263-.089-1.484-.089-1.484l.786.105.979 1.951.984-.742.831 2.387.698-.656.588 2.201.823-.873.451 2.366c.434-.094 3.226-3.147 3.666-5.238.912-4.13-1.557-7.09-4.952-7.305-2.581-.096-5.317.474-5.984 1l.794-1.622 1.114.327.512-1.21 1.658.62.385-1.582 2.14.988.022-1.821 1.717 1.458.597-1.11.964.955c.13-3.482-2.347-6.453-5.458-6.713-4.169-.147-6.66 5.485-7.637 9.14-2.367-3.009-5.817-5.462-9.338-3.866-2.723 1.644-4.532 3.919-5.61 6.848-.25 1.347-.217 3.044.138 3.962zm18.238 10.746c.13 2.26.249 4.778.162 5.218-.17.695-1.378 1.242-3.178 1.396-1.801.116-2.767-.957-2.767-.957-.355-.435.194-2.94.713-5.554-8.39.607-14.744 3.325-14.724 6.578.007 3.624 8.052 6.479 17.968 6.41 9.918-.07 17.906-3.302 17.89-6.718-.012-3.413-7.322-6.034-16.064-6.373z"/></svg>