<svg xmlns="http://www.w3.org/2000/svg" viewBox="0 0 352 70"><path d="M9.427 54.393C1.144 54.393 1 50.059 1 46.881V23.143c0-3.178.192-7.512 8.427-7.512 8.282 0 8.426 4.334 8.426 7.512v8.619h-6.99V21.505c0-.818-.623-1.444-1.436-1.444-.814 0-1.437.626-1.437 1.444v27.013c0 .819.623 1.445 1.437 1.445.813 0 1.436-.626 1.436-1.445V36.384H17.9v10.497c0 3.178-.192 7.512-8.474 7.512zM36.669 54.056v-17.19l.287-5.538-3.734 22.728h-3.735l-3.495-22.728.288 5.538v17.19h-5.937v-38.04h7.708l3.304 19.887 4.309-19.887h7.325v38.04zM62.427 46.833c0 3.178-.191 7.512-8.426 7.512-8.283 0-8.427-4.334-8.427-7.512v-7.511h7.038v9.196c0 .819.623 1.445 1.437 1.445.814 0 1.436-.626 1.436-1.445V36.481h-9.959V23.143c0-3.178.192-7.512 8.427-7.512 8.283 0 8.426 4.334 8.426 7.512v5.874h-7.038v-7.512c0-.818-.622-1.444-1.436-1.444s-1.436.626-1.436 1.444v10.353h9.863v14.975zM157.848 54.056v-17.19l.287-5.538-3.734 22.728h-3.735l-3.495-22.728.287 5.538v17.19h-5.889v-38.04h7.709l3.255 19.887 4.357-19.887h7.326v38.04zM183.558 54.056h-6.99v-1.493c-1.628 1.926-4.405 2.167-5.937 1.637-2.825-1.01-3.974-2.889-3.974-6.885v-7.993c0-3.178.192-7.56 8.427-7.56h1.436V21.505c0-.818-.622-1.444-1.436-1.444s-1.436.626-1.436 1.444v7.416h-6.99v-5.778c0-3.178.19-7.512 8.426-7.512 8.33 0 8.426 4.334 8.426 7.512v30.913zm-6.99-17.624h-1.484c-.814 0-1.436.626-1.436 1.445v10.641c0 .819.622 1.493 1.436 1.493s1.484-.674 1.484-1.493zM195.815 54.056v-1.878c-.718 1.3-2.25 2.215-3.83 2.215-3.926 0-6.033-2.07-6.033-6.02v-25.52c0-3.61 1.006-4.91 1.58-5.489.958-.914 2.49-1.733 4.07-1.733 1.484 0 3.112.578 4.213 1.782V6h7.038v48.008h-7.038zm-1.436-33.947c-.814 0-1.437.674-1.437 1.493v26.916c0 .819.623 1.445 1.437 1.445.814 0 1.436-.626 1.436-1.445V21.602c0-.819-.622-1.493-1.436-1.493zM213.817 54.393c-8.283 0-8.426-4.334-8.426-7.512V23.143c0-3.178.191-7.512 8.426-7.512 8.283 0 8.427 4.334 8.427 7.512V36.48h-9.863v12.037c0 .819.622 1.445 1.436 1.445s1.436-.626 1.436-1.445v-9.196h7.038v7.511c-.047 3.226-.191 7.56-8.474 7.56zm1.436-32.888c0-.818-.622-1.444-1.436-1.444s-1.436.626-1.436 1.444v10.353h2.825V21.505zM248.433 46.833c0 3.178-.192 7.512-8.427 7.512-8.283 0-8.426-4.334-8.426-7.512v-7.511h7.038v9.196c0 .819.622 1.445 1.436 1.445s1.436-.626 1.436-1.445V36.481h-9.862V23.143c0-3.178.191-7.512 8.426-7.512 8.283 0 8.427 4.334 8.427 7.512v5.874h-7.038v-7.512c0-.818-.623-1.444-1.437-1.444-.814 0-1.436.626-1.436 1.444v10.353h9.863zM251.018 13.088v-7.15h7.038v7.15zm0 40.968v-38.04h7.038v38.04zM280.655 54.056V21.554c0-.819-.623-1.493-1.437-1.493-.814 0-1.484.626-1.484 1.444v32.55h-7.038v-32.5c0-.819-.622-1.493-1.436-1.493s-1.437.674-1.437 1.493v32.502h-7.038v-38.04h7.038v1.83c.718-1.3 2.25-2.215 3.926-2.215 2.25 0 3.974.674 4.932 2.119 1.628-1.638 3.303-2.12 4.931-2.12 3.926 0 5.985 2.071 5.985 6.02v32.358h-6.942zM305.599 52.66c-.958.963-2.49 1.781-4.07 1.781-1.484 0-3.112-.626-4.213-1.782V64h-7.038V16.016h7.038v1.83c.718-1.252 2.25-2.167 3.926-2.167 3.878 0 5.937 1.974 5.937 6.02v25.52c0 3.563-1.053 4.863-1.58 5.44zm-5.458-31.106c0-.819-.623-1.445-1.436-1.445-.814 0-1.437.626-1.437 1.445V48.47c0 .819.623 1.445 1.437 1.445.813 0 1.436-.626 1.436-1.445zM309.908 54.056V6h7.038v48.056zM328.006 54.393c-8.283 0-8.427-4.334-8.427-7.512V23.143c0-3.178.192-7.512 8.427-7.512 8.283 0 8.426 4.334 8.426 7.512V36.48h-9.863v12.037c0 .819.623 1.445 1.437 1.445.814 0 1.436-.626 1.436-1.445v-9.196h7.038v7.511c0 3.226-.191 7.56-8.474 7.56zm1.436-32.888c0-.818-.622-1.444-1.436-1.444s-1.437.626-1.437 1.444v10.353h2.825V21.505z" class="st2" fill="#595a5c"/><path d="M73.61 32.218c0-15.97 13.56-28.922 30.28-28.922 16.721 0 30.281 12.951 30.281 28.922 0 15.97-13.56 28.923-30.28 28.923-16.722 0-30.282-12.952-30.282-28.923z" fill="#fff"/><path d="M67.973 35c0-18.75 15.195-34 33.986-34 18.743 0 33.986 15.202 33.986 34 0 18.75-15.195 34-33.986 34-18.79-.048-33.986-15.25-33.986-34zm14.285-10.502l.335.911h1.342l2.061-2.446.48-.575.719.144.431.72s1.342-.912 1.822-1.344c.48-.431.767-.575.767-.575l.431 1.247s2.157-1.679 2.397-1.487c.192.192.144.767.144.767s-3.308 2.59-3.93 5.755c-.624 3.165-.576 5.323-.145 7.05.432 1.678 1.822 4.171 1.822 4.171h.287l.48-.143s.096-.72.192-1.2c.143-.479.479-.767 1.39-1.006.91-.192 1.054-.192 1.63-1.247.575-1.055.575-1.775.575-1.775h1.39l-.144-2.11 1.965.048.192-.72 1.055-.143s-.623-2.302-.911-3.117c-.288-.767-1.15-1.39-.91-1.918.19-.48.622-.192.622-.192s1.918 2.59 2.014 3.5c.143.912.575 5.324.479 7.05-.096 1.678-1.342 8.296-.91 8.728 0 0 1.15 1.15 3.115.911 1.965-.192 3.308-.863 3.451-1.63.144-.768-.575-7.625-.815-9.352-.287-1.774-1.773-6.57-1.821-6.905-.096-.336-.192-1.918-.192-1.918l1.055.096.287 2.11 1.199.431.719.288.48-.48.335.144s.191 1.631.719 2.11c.479.48 1.246.768 1.63.624.335-.144.335-.432.335-.432l.336.288s0 1.63.191 2.062c.192.432.72 1.343 1.247 1.199.575-.144 3.882-4.028 4.362-6.762.48-2.733.048-5.85-.432-6.474-.479-.623-2.828-2.973-6.28-2.973-3.45 0-6.806.768-7.669 1.487-.863.72-.24-1.247-.24-1.247l1.918-.288.335-.335h.336l.144-.624 2.588-.048.144-1.246 3.595-.048.096-1.535.91.576 2.158-.048.48.575h.335l.144-1.966s-1.678-3.165-2.685-3.932c-1.006-.767-3.307-2.734-5.08-2.542-1.774.192-4.555 1.679-5.561 2.974-1.007 1.246-3.308 5.227-3.452 5.994-.143.767-.719 3.26-.719 3.26l-.575-.191s-4.458-4.556-6.232-4.843c-1.725-.288-4.074-.432-5.848.479-1.534.767-4.793 3.932-5.464 5.227-.72 1.295-1.63 3.165-1.678 3.932-.096.768-.096 4.988-.096 4.988l.48.144 2.971-3.885zm24.878 13.044c.288 2.925.575 6.186.48 6.761-.192.911-1.774 1.679-4.171 1.966-2.397.24-3.739-1.103-3.739-1.103-.336-.335.24-4.172.671-7.24-11.169 1.198-19.51 5.034-19.318 9.255.192 4.7 11.073 8.008 24.303 7.433 13.23-.576 23.728-4.892 23.537-9.591-.144-4.412-9.683-7.577-21.763-7.481z" class="st3" fill="#f8993a"/><g stroke-width="2.006"><path d="M338.06 7.543h-2.125V6h6.027v1.543h-2.124v6.407h-1.779zM349.47 7.66l-1.57 6.338h-1.552l-1.67-6.338.12 6.34h-1.552V6.05h2.371l1.507 5.535 1.457-5.535h2.42V14h-1.55z" class="st3" fill="#f8993a"/></g></svg>