<svg xmlns="http://www.w3.org/2000/svg" width="24" height="24"><circle r="11" cy="12" cx="12" fill="#fff"/><path d="M12 0C5.239-.014.015 5.4 0 12c-.014 6.6 5.4 12.012 12 12 6.6-.012 11.958-5.453 12-12C24.04 5.453 18.76.015 12 0zm4 2.751l.122.003c2.091.088 3.78 1.961 3.638 4.164-2.157-.703-5.808.29-6.487 2 .494-.43 2.515-.768 3.84-.687 2.617.2 3.782 2.226 3.193 4.83-.284 1.365-1.983 3.294-2.264 3.356-.982-2.187-2.169-3.246-4.065-4.339.952 3.53 1.132 6.493 1.094 9.775h-3.395c.315-2.336 1.021-5.9.707-8.286-1.412.899-3.327 2.596-4.627 4.812-2.092-1.566-2.005-6.027 1.034-8.428l-.004-.002c-1.903.214-4.993.727-6.912 3.112C.86 9.896 3.396 6.911 5.148 6.008c2.274-1.041 4.555.563 6.084 2.526.621-2.347 2.223-5.78 4.769-5.783z" fill="#ffa041"/></svg>