<svg xmlns="http://www.w3.org/2000/svg" width="322" height="64"><path d="M65.5 31.977A27.5 27.5 0 0193.019 4.5 27.5 27.5 0 01120.5 32.014 27.5 27.5 0 0192.99 59.5 27.5 27.5 0 0165.5 31.995" fill="#fff"/><path class="st3" d="M62 32C62 14.904 75.86 1 93 1c17.096 0 31 13.86 31 31 0 17.096-13.86 31-31 31-17.14-.044-31-13.904-31-31zm13.03-9.575l.305.83h1.225l1.88-2.23.437-.524.656.131.393.657s1.225-.832 1.662-1.226c.438-.393.7-.524.7-.524l.393 1.137s1.967-1.531 2.186-1.356c.175.175.131.7.131.7s-3.017 2.36-3.584 5.247c-.569 2.885-.525 4.853-.132 6.428.394 1.53.54 1.82.54 1.82.424.913 1.184 1.724 1.821 1.853 0 0 .088-.657.176-1.095.13-.437.437-.7 1.267-.917.83-.175.962-.175 1.487-1.137.524-.962.524-1.619.524-1.619h1.268l-.13-1.923 1.792.043.175-.656.962-.13c-.339-1.59-1.104-3.25-1.751-4.531l.658-.235s1.748 2.361 1.837 3.19c.13.832.524 4.855.436 6.429-.087 1.53-1.224 7.564-.83 7.958 0 0 1.05 1.048 2.842.83 1.791-.175 3.017-.787 3.147-1.486.132-.7-.524-6.952-.743-8.527-.262-1.617-1.617-5.99-1.661-6.295-.088-.307-.175-1.75-.175-1.75l.962.088.261 1.924 1.31-.34.441.996.438-.438c.194 1.887.59 1.969 1.449 1.567l.48 1.317c.307-.132 1.25-.197 1.25-.197.576.501.48.51.571 1.212.176.394.14 1.698.621 1.567.525-.131 3.54-3.672 3.979-6.165.437-2.492.647-4.385-.394-5.903-.438-.568-2.58-2.71-5.729-2.71-3.146 0-6.207.7-6.995 1.355-.787.657-.219-1.137-.219-1.137l.869-.72 1.371.335.253-.752 2.361-.044.13-1.136 3.28-.043.088-1.4 1.65 1.258.676-1.338 1.215 1.086.132-1.793s-.712-2.11-2.45-3.585c-.917-.7-3.016-2.493-4.633-2.318-2.179.175-4.155 1.531-5.072 2.712-2.1 2.568-3.088 5.307-3.805 8.437-1.71-2.16-3.753-4.013-6.208-4.589-1.574-.263-3.717-.394-5.334.436-1.4.7-4.373 3.585-4.985 4.766-.656 1.18-1.486 2.886-1.53 3.585-.244 1.604-.125 3.61.35 4.679l2.71-3.542zm22.693 11.893c.262 2.667.523 5.64.438 6.164-.176.83-1.619 1.531-3.805 1.793-2.187.218-3.41-1.006-3.41-1.006-.307-.305.219-3.804.61-6.601-10.186 1.092-17.795 4.59-17.62 8.438.175 4.285 10.1 7.302 22.168 6.777 12.068-.525 21.643-4.46 21.469-8.744-.131-4.023-8.832-6.909-19.851-6.821z" fill="#f8993a"/><path class="st2" d="M8.442 50.27c-7.555 0-7.686-3.985-7.686-6.905V21.55c0-2.92.175-6.903 7.686-6.903 7.555 0 7.687 3.982 7.687 6.903V29H9.752v-8.956c0-.751-.568-1.326-1.31-1.326-.742 0-1.31.575-1.31 1.326v24.827c0 .752.57 1.327 1.31 1.327.742 0 1.31-.575 1.31-1.327V34h6.377v9.366c0 2.921-.133 6.904-7.687 6.904zM33.29 50l.263-20.928L30.146 50H26.74l-3.19-20.928L23.813 50h-5.415V15h7.031l3.015 18.277L32.374 15h6.68v35zm23.495-6.679c0 2.921-.174 6.904-7.686 6.904-7.555 0-7.686-3.984-7.686-6.904V37h6.42v7.87c0 .753.568 1.328 1.311 1.328.741 0 1.31-.575 1.31-1.327V34h-9.085V21.55c0-2.92.175-6.903 7.687-6.903 7.555 0 7.686 3.982 7.686 6.903V27h-6.42v-6.956c0-.751-.568-1.326-1.31-1.326-.742 0-1.31.575-1.31 1.326V30h8.996zM143.822 50l.261-20.928L140.677 50h-3.407l-3.187-20.928.261 20.928h-5.37V15h7.03l2.97 18.277L142.946 15h6.682v35zm17.075 0v-1.413c-1.485 1.77-4.02 1.992-5.416 1.505-2.577-.928-3.625-2.655-3.625-6.327v-7.346c0-2.92.175-6.948 7.687-6.948h1.31v-9.427c0-.751-.568-1.326-1.31-1.326-.743 0-1.31.575-1.31 1.326v6.816h-6.376v-5.31c0-2.92.173-6.903 7.686-6.903 7.598 0 7.685 3.982 7.685 6.903V50zm0-16.238h-1.354c-.743 0-1.31.576-1.31 1.329v9.78c0 .752.567 1.37 1.31 1.37.742 0 1.353-.618 1.353-1.37zM178.452 50v-1.767c-.656 1.194-2.053 2.035-3.494 2.035-3.58 0-5.502-1.902-5.502-5.532V21.284c0-3.318.917-4.513 1.44-5.045.875-.84 2.272-1.592 3.713-1.592 1.354 0 2.838.53 3.843 1.637V6h6.42v44zm-1.31-31.238c-.743 0-1.31.619-1.31 1.372V44.87c0 .752.567 1.327 1.31 1.327.742 0 1.31-.575 1.31-1.327V20.134c0-.753-.568-1.372-1.31-1.372zm17.73 31.507c-7.065-.079-7.686-3.983-7.686-6.904V21.55c0-2.92.174-6.903 7.686-6.903 7.555 0 7.686 3.982 7.686 6.903V34h-8.996v10.87c0 .752.568 1.327 1.31 1.327.742 0 1.31-.575 1.31-1.327V37h6.42v6.32c-.13 2.886-.665 7.028-7.73 6.949zm1.31-30.225c0-.751-.568-1.326-1.31-1.326-.742 0-1.31.575-1.31 1.326V30h2.577zm30.264 23.277c0 2.921-.175 6.904-7.686 6.904-7.555 0-7.686-3.984-7.686-6.904v-6.32h6.42v7.87c0 .752.567 1.327 1.31 1.327.742 0 1.31-.575 1.31-1.327V34h-8.997V21.55c0-2.922.175-6.904 7.687-6.904 7.554 0 7.686 3.982 7.686 6.903V27h-6.42v-6.956c0-.751-.568-1.326-1.31-1.326-.743 0-1.31.575-1.31 1.326V30h8.996zM228.804 12V6h6.42v6zm0 38.021V15h6.42v35.021zm27.032 0V20.09c0-.752-.567-1.371-1.31-1.371-.743 0-1.354.575-1.354 1.326V50.02h-6.42V20.09c0-.752-.567-1.371-1.309-1.371s-1.31.619-1.31 1.371v29.932h-6.42V15.001h6.42v1.682c.654-1.194 2.051-2.035 3.58-2.035 2.052 0 3.625.619 4.5 1.946 1.484-1.505 3.011-1.947 4.497-1.947 3.58 0 5.458 1.902 5.458 5.532v29.799zm22.753-1.344c-.875.885-2.272 1.637-3.713 1.637-1.353 0-2.838-.576-3.843-1.637V59h-6.42V15h6.421v1.682c.654-1.15 2.052-1.991 3.58-1.991 3.537 0 5.416 1.813 5.416 5.532v23.453c-.252 1.935-.43 3.799-1.44 5.001zm-4.978-28.587c0-.752-.569-1.327-1.31-1.327-.743 0-1.31.575-1.31 1.327v24.737c0 .753.567 1.328 1.31 1.328.741 0 1.31-.575 1.31-1.328zM282.52 50V6h6.42v44zm16.508.27c-7.46-.14-7.687-3.984-7.687-6.904V21.55c0-2.92.175-6.903 7.687-6.903 7.555 0 7.685 3.982 7.685 6.903V34h-8.996v10.87c0 .752.57 1.327 1.31 1.327.743 0 1.31-.575 1.31-1.327V37h6.42v6.32c.012 2.814-.27 7.09-7.729 6.95zm1.31-30.225c0-.751-.568-1.326-1.31-1.326-.742 0-1.312.575-1.312 1.326V30h2.578z" fill="#595a5c"/><path d="M308.116 7.543H306V6h6v1.543h-2.114v6.407h-1.771zm11.36.117l-1.563 6.338h-1.546l-1.662-6.338.12 6.34h-1.546V6.05h2.36l1.501 5.535 1.45-5.535H321V14h-1.543z" class="st3" fill="#f8993a"/></svg>