<svg xmlns="http://www.w3.org/2000/svg" width="72" height="72"><path d="M14.26 30.982A21.74 21.74 0 0136.016 9.26 21.74 21.74 0 0157.74 31.01a21.74 21.74 0 01-21.747 21.728 21.74 21.74 0 01-21.731-21.743" fill="#fff"/><path d="M11 31C11 17.213 22.177 6 36 6c13.787 0 25 11.177 25 25 0 13.787-11.177 25-25 25-13.823-.036-25-11.213-25-25zm10.508-7.722l.246.67h.988l1.516-1.8.353-.422.528.107.318.529s.988-.67 1.34-.99c.353-.315.565-.42.565-.42l.316.915s1.587-1.234 1.763-1.093c.142.141.106.565.106.565s-2.433 1.902-2.892 4.232c-.457 2.326-.422 3.913-.105 5.183.317 1.234.435 1.468.435 1.468.342.736.956 1.391 1.47 1.494 0 0 .07-.53.14-.883.106-.353.354-.565 1.022-.74.67-.14.776-.14 1.2-.917.422-.775.422-1.304.422-1.304h1.023l-.104-1.551 1.445.033.142-.528.775-.105c-.274-1.283-.892-2.621-1.413-3.654l.531-.19s1.41 1.905 1.482 2.573c.104.67.422 3.915.35 5.185-.069 1.233-.986 6.1-.669 6.417 0 0 .848.846 2.294.67 1.443-.142 2.431-.635 2.537-1.198.106-.565-.423-5.607-.6-6.877-.211-1.305-1.304-4.83-1.34-5.076-.07-.248-.14-1.412-.14-1.412l.775.07.211 1.553 1.057-.274.355.803.353-.353c.157 1.521.476 1.587 1.169 1.263l.387 1.062c.248-.107 1.008-.16 1.008-.16.465.405.387.413.46.98.141.317.113 1.369.501 1.262.424-.105 2.855-2.96 3.209-4.972.352-2.01.522-3.535-.317-4.76-.354-.458-2.08-2.185-4.62-2.185-2.538 0-5.007.565-5.641 1.092-.635.53-.177-.916-.177-.916l.7-.582 1.106.271.204-.606 1.904-.036.105-.917 2.645-.033.071-1.13 1.33 1.014.545-1.079.98.876.107-1.445s-.575-1.703-1.976-2.892c-.739-.565-2.432-2.01-3.736-1.87-1.757.142-3.35 1.235-4.09 2.188-1.694 2.071-2.49 4.28-3.07 6.804-1.378-1.741-3.025-3.236-5.006-3.701-1.268-.212-2.997-.318-4.301.352-1.13.565-3.526 2.891-4.02 3.844-.529.95-1.198 2.327-1.234 2.89-.196 1.294-.1 2.912.282 3.774l2.185-2.857zm18.3 9.592c.213 2.15.422 4.547.354 4.97-.141.67-1.305 1.235-3.069 1.446-1.764.176-2.75-.811-2.75-.811-.247-.246.178-3.067.493-5.324-8.215.88-14.351 3.702-14.21 6.804.141 3.457 8.145 5.89 17.877 5.467 9.733-.424 17.455-3.597 17.314-7.051-.106-3.245-7.122-5.572-16.01-5.501z" class="st3" fill="#f8993a"/><path class="st2" d="M6.808 68.054c-1.81 0-1.842-.8-1.842-1.386V62.29c0-.586.042-1.385 1.842-1.385 1.81 0 1.843.78 1.843 1.385v1.496H7.122v-1.798c0-.15-.136-.266-.314-.266s-.314.116-.314.266v4.983c0 .15.137.266.314.266.178 0 .314-.115.314-.266v-2.182h1.529v1.88c0 .586-.032 1.385-1.843 1.385zM12.763 68l.064-4.2-.817 4.2h-.816l-.765-4.2.063 4.2H9.194v-7.024h1.685l.723 3.668.942-3.668h1.6V68zm5.632-1.34c0 .586-.042 1.385-1.843 1.385-1.81 0-1.842-.8-1.842-1.385v-1.27h1.539v1.58c0 .15.136.266.314.266s.347-.118.314-.266v-2.182H14.7V62.29c0-.586.042-1.385 1.842-1.385 1.81 0 1.842.724 1.842 1.385v1.094h-1.538v-1.396c0-.15-.137-.266-.314-.266-.178 0-.314.116-.314.266v1.998h2.156zm5.52 1.34l.063-4.2-.816 4.2h-.817l-.763-4.2.062 4.2h-1.287v-7.024h1.685l.712 3.668.952-3.668h1.602V68zm4.093 0v-.284c-.356.356-.963.4-1.298.302-.618-.186-.869-.532-.869-1.27v-1.474c0-.586.042-1.394 1.843-1.394h.314v-1.892c0-.15-.137-.266-.314-.266-.178 0-.314.116-.314.266v1.368h-1.528V62.29c0-.586.041-1.385 1.842-1.385 1.82 0 1.841.8 1.841 1.385V68zm0-3.259h-.324c-.178 0-.314.116-.314.267v1.963c0 .15.136.275.314.275.177 0 .324-.124.324-.275zM32.216 68v-.355c-.158.24-.493.409-.838.409-.858 0-1.319-.382-1.319-1.11v-4.707c0-.666.22-.906.346-1.012.21-.169.544-.32.89-.32.324 0 .68.107.92.329V59.17h1.54V68zm-.314-6.269c-.179 0-.315.124-.315.275v4.964c0 .151.137.267.315.267.177 0 .314-.116.314-.267v-4.964c0-.15-.137-.275-.314-.275zm4.249 6.323c-1.81 0-1.842-.8-1.842-1.386V62.29c0-.586.042-1.385 1.842-1.385 1.81 0 1.842.8 1.842 1.385v2.499h-2.156v2.181c0 .151.136.267.314.267s.314-.116.314-.267v-1.579h1.539v1.268c-.011.596-.042 1.395-1.853 1.395zm.314-6.066c0-.15-.136-.266-.314-.266s-.314.116-.314.266v1.998h.618zm7.253 4.672c0 .586-.042 1.385-1.842 1.385-1.81 0-1.842-.8-1.842-1.385v-1.27h1.539v1.58c0 .15.136.266.314.266s.314-.115.314-.266v-2.182h-2.157V62.29c0-.586.042-1.385 1.843-1.385 1.81 0 1.842.8 1.842 1.385v1.094H42.19v-1.396c0-.15-.136-.266-.314-.266s-.314.116-.314.266v1.998h2.156zm.565-6.286V59.17h1.539v1.204zm0 7.63v-7.028h1.539v7.028zm6.48 0v-6.007c0-.15-.137-.275-.315-.275s-.324.116-.324.266v6.016h-1.539v-6.007c0-.15-.136-.275-.314-.275s-.314.125-.314.275v6.007h-1.539v-7.028h1.539v.338c.157-.24.492-.409.858-.409.492 0 .87.125 1.079.39a1.59 1.59 0 011.078-.39c.858 0 1.308.382 1.308 1.11v5.98zm5.452-.27a1.44 1.44 0 01-.89.329c-.324 0-.68-.116-.92-.329v2.072h-1.54v-8.83h1.54v.338c.156-.231.491-.4.858-.4.847 0 1.298.364 1.298 1.11v4.707c-.002.358-.053.724-.346 1.003zm-1.193-5.737c0-.15-.136-.266-.314-.266s-.314.116-.314.266v4.965c0 .151.136.266.314.266s.314-.115.314-.266zM57.157 68v-8.83h1.539V68zm3.957.054c-1.811 0-1.843-.8-1.843-1.385V62.29c0-.586.042-1.385 1.843-1.385 1.81 0 1.842.8 1.842 1.385v2.499h-2.157v2.181c0 .151.137.267.314.267.179 0 .314-.116.314-.267v-1.579h1.54v1.268c-.003.582-.073 1.407-1.853 1.395zm.314-6.066c0-.15-.136-.266-.314-.266s-.315.116-.315.266v1.998h.618v-1.998z" fill="#595a5c"/><path d="M62.342 56.802h-1.096v-.772h3.108v.772H63.26v3.204h-.917zm5.868.059l-.81 3.17h-.8l-.861-3.17.062 3.17H65v-3.976h1.223L67 58.823l.751-2.768H69v3.976h-.8z" class="st3" fill="#595a5c"/></svg>