<?xml version="1.0" encoding="UTF-8" standalone="no"?>
<svg
   xmlns:dc="http://purl.org/dc/elements/1.1/"
   xmlns:cc="http://creativecommons.org/ns#"
   xmlns:rdf="http://www.w3.org/1999/02/22-rdf-syntax-ns#"
   xmlns:svg="http://www.w3.org/2000/svg"
   xmlns="http://www.w3.org/2000/svg"
   xmlns:sodipodi="http://sodipodi.sourceforge.net/DTD/sodipodi-0.dtd"
   xmlns:inkscape="http://www.inkscape.org/namespaces/inkscape"
   viewBox="0 0 352 70"
   version="1.1"
   id="svg10"
   sodipodi:docname="CMSMS-logotext-dark.svg"
   inkscape:export-filename="/var/www/html/cmsms-23DEV/admin/themes/assets/images/CMSMS-logotext-dark.png"
   inkscape:export-xdpi="96"
   inkscape:export-ydpi="96"
   inkscape:version="0.92.4 (5da689c313, 2019-01-14)">
  <metadata
     id="metadata16">
    <rdf:RDF>
      <cc:Work
         rdf:about="">
        <dc:format>image/svg+xml</dc:format>
        <dc:type
           rdf:resource="http://purl.org/dc/dcmitype/StillImage" />
      </cc:Work>
    </rdf:RDF>
  </metadata>
  <defs
     id="defs14" />
  <sodipodi:namedview
     pagecolor="#ffffff"
     bordercolor="#666666"
     borderopacity="1"
     objecttolerance="10"
     gridtolerance="10"
     guidetolerance="10"
     inkscape:pageopacity="0"
     inkscape:pageshadow="2"
     inkscape:window-width="1294"
     inkscape:window-height="736"
     id="namedview12"
     showgrid="false"
     inkscape:zoom="0.9375"
     inkscape:cx="176"
     inkscape:cy="35"
     inkscape:window-x="266"
     inkscape:window-y="85"
     inkscape:window-maximized="0"
     inkscape:current-layer="svg10" />
  <path
     d="M9.44 54.403C1.144 54.403 1 50.073 1 46.9V23.187c0-3.175.192-7.504 8.44-7.504 8.295 0 8.44 4.329 8.44 7.504v8.61h-7.002V21.55c0-.817-.624-1.442-1.438-1.442-.815 0-1.44.625-1.44 1.442v26.985c0 .818.625 1.443 1.44 1.443.814 0 1.438-.625 1.438-1.443V36.413h7.048V46.9c0 3.175-.192 7.504-8.487 7.504zm27.284-.336l.288-22.704-3.74 22.704h-3.74L26.03 31.363l.288 22.704h-5.946v-38h7.72l3.31 19.866 4.315-19.866h7.336v38zm25.798-7.216c0 3.175-.191 7.504-8.439 7.504-8.296 0-8.44-4.33-8.44-7.504v-7.503h7.049v9.187c0 .818.624 1.443 1.44 1.443.814 0 1.437-.625 1.437-1.443V36.51h-9.974V23.187c0-3.175.192-7.504 8.44-7.504 8.296 0 8.44 4.329 8.44 7.504v5.867h-7.05V21.55c0-.817-.623-1.442-1.438-1.442s-1.438.625-1.438 1.442v10.342h9.878v14.96zm95.57 7.216l.287-22.704-3.74 22.704h-3.741l-3.5-22.704.287 22.704h-5.898v-38h7.72l3.26 19.866 4.365-19.866h7.337v38zm25.749 0h-7v-1.492c-1.631 1.924-4.413 2.165-5.947 1.635-2.83-1.008-3.98-2.885-3.98-6.877v-7.985c0-3.174.192-7.552 8.44-7.552h1.438V21.55c0-.817-.623-1.442-1.438-1.442s-1.438.625-1.438 1.442v7.408h-7.001v-5.771c0-3.175.19-7.504 8.439-7.504 8.343 0 8.439 4.329 8.439 7.504v30.88zm-7-17.606h-1.487c-.815 0-1.438.626-1.438 1.444v10.63c0 .818.623 1.49 1.438 1.49s1.486-.672 1.486-1.49zm19.276 17.606V52.19c-.72 1.298-2.254 2.212-3.836 2.212-3.932 0-6.042-2.068-6.042-6.013V22.897c0-3.606 1.007-4.905 1.582-5.483.96-.913 2.494-1.731 4.076-1.731 1.487 0 3.117.577 4.22 1.78V6.062h7.049v47.957h-7.049zm-1.438-33.911c-.816 0-1.44.673-1.44 1.491v26.888c0 .818.624 1.443 1.44 1.443.815 0 1.438-.625 1.438-1.443V21.647c0-.818-.623-1.491-1.438-1.491zm19.468 34.247c-8.296 0-8.44-4.33-8.44-7.504V23.187c0-3.175.192-7.504 8.44-7.504 8.296 0 8.44 4.329 8.44 7.504v13.322h-9.878v12.025c0 .818.623 1.443 1.438 1.443s1.438-.625 1.438-1.443v-9.187h7.049v7.503c-.047 3.223-.191 7.552-8.487 7.552zm1.438-32.853c0-.817-.623-1.442-1.438-1.442s-1.438.625-1.438 1.442v10.342h2.829V21.55zm33.232 25.301c0 3.175-.193 7.504-8.44 7.504-8.296 0-8.44-4.33-8.44-7.504v-7.503h7.05v9.187c0 .818.622 1.443 1.438 1.443.815 0 1.438-.625 1.438-1.443V36.51h-9.878V23.187c0-3.175.192-7.504 8.44-7.504 8.295 0 8.44 4.329 8.44 7.504v5.867h-7.05V21.55c0-.817-.623-1.442-1.439-1.442-.815 0-1.438.625-1.438 1.442v10.342h9.879zm2.589-33.709V6h7.048v7.142zm0 40.925v-38h7.048v38zm29.682 0V21.599c0-.818-.623-1.491-1.439-1.491-.815 0-1.486.625-1.486 1.442v32.516h-7.049V21.6c0-.818-.623-1.491-1.438-1.491s-1.44.673-1.44 1.491v32.468h-7.048v-38h7.049v1.828c.719-1.298 2.253-2.212 3.932-2.212 2.253 0 3.98.673 4.94 2.116 1.63-1.636 3.307-2.117 4.938-2.117 3.932 0 5.994 2.068 5.994 6.013V54.02h-6.953zm24.983-1.395c-.96.962-2.494 1.78-4.076 1.78-1.486 0-3.117-.626-4.22-1.78V64h-7.049V16.067h7.05v1.828c.718-1.25 2.253-2.164 3.931-2.164 3.884 0 5.947 1.971 5.947 6.013v25.493c0 3.56-1.055 4.858-1.583 5.434zM300.605 21.6c0-.818-.624-1.443-1.439-1.443-.815 0-1.439.625-1.439 1.443v26.888c0 .818.624 1.443 1.44 1.443.814 0 1.438-.625 1.438-1.443zm9.782 32.468V6.062h7.049v48.005zm18.126.336c-8.296 0-8.44-4.33-8.44-7.504V23.187c0-3.175.192-7.504 8.44-7.504 8.296 0 8.439 4.329 8.439 7.504v13.322h-9.878v12.025c0 .818.624 1.443 1.439 1.443.815 0 1.438-.625 1.438-1.443v-9.187H337v7.503c0 3.223-.191 7.552-8.487 7.552zm1.438-32.853c0-.817-.623-1.442-1.438-1.442s-1.44.625-1.44 1.442v10.342h2.83V21.55z"
     class="st2"
     fill="#595a5c"
     id="path2" />
  <path
     d="M73.61 32.218c0-15.97 13.56-28.922 30.28-28.922 16.721 0 30.281 12.951 30.281 28.922 0 15.97-13.56 28.923-30.28 28.923-16.722 0-30.282-12.952-30.282-28.923z"
     fill="#fff"
     id="path4" />
  <path
     d="M68 35c0-18.75 15.201-34 34-34 18.75 0 34 15.202 34 34 0 18.75-15.201 34-34 34-18.798-.048-34-15.25-34-34zm14.29-10.502l.336.911h1.343l2.061-2.446.48-.575.72.144.431.72s1.343-.912 1.823-1.344c.48-.431.767-.575.767-.575l.431 1.247s2.158-1.679 2.398-1.487c.192.192.144.767.144.767s-3.309 2.59-3.931 5.755c-.624 3.165-.576 5.323-.145 7.05.432 1.678 1.822 4.171 1.822 4.171h.288l.48-.143s.096-.72.192-1.2c.143-.479.48-.767 1.39-1.006.91-.192 1.055-.192 1.631-1.247.575-1.055.575-1.775.575-1.775h1.39l-.143-2.11 1.966.048.192-.72 1.055-.143s-.623-2.302-.911-3.117c-.288-.767-1.15-1.39-.91-1.918.19-.48.622-.192.622-.192s1.918 2.59 2.015 3.5c.143.912.575 5.324.479 7.05-.096 1.678-1.343 8.296-.91 8.728 0 0 1.15 1.15 3.116.911 1.965-.192 3.309-.863 3.452-1.63.144-.768-.575-7.625-.815-9.352-.287-1.774-1.774-6.57-1.822-6.905-.096-.336-.192-1.918-.192-1.918l1.055.096.287 2.11 1.2.431.72.288.48-.48.335.144s.19 1.631.719 2.11c.479.48 1.246.768 1.63.624.336-.144.336-.432.336-.432l.336.288s0 1.63.19 2.062c.193.432.721 1.343 1.248 1.199.576-.144 3.884-4.028 4.364-6.762.48-2.733.048-5.85-.432-6.474-.48-.623-2.83-2.973-6.283-2.973-3.451 0-6.808.768-7.672 1.487-.863.72-.24-1.247-.24-1.247l1.919-.288.335-.335h.336l.144-.624 2.59-.048.143-1.246 3.597-.048.096-1.535.91.576 2.16-.048.48.575h.334l.145-1.966s-1.68-3.165-2.687-3.932c-1.006-.767-3.308-2.734-5.082-2.542-1.774.192-4.557 1.679-5.563 2.974-1.007 1.246-3.31 5.227-3.453 5.994-.143.767-.72 3.26-.72 3.26l-.575-.191s-4.46-4.556-6.234-4.843c-1.726-.288-4.076-.432-5.85.479-1.535.767-4.796 3.932-5.467 5.227-.72 1.295-1.63 3.165-1.679 3.932-.096.768-.096 4.988-.096 4.988l.48.144 2.973-3.885zm24.89 13.044c.287 2.925.574 6.186.48 6.761-.193.911-1.775 1.679-4.173 1.966-2.398.24-3.74-1.103-3.74-1.103-.337-.335.24-4.172.67-7.24-11.173 1.198-19.518 5.034-19.326 9.255.192 4.7 11.078 8.008 24.313 7.433 13.236-.576 23.738-4.892 23.547-9.591-.144-4.412-9.687-7.577-21.772-7.481z"
     class="st3"
     fill="#f8993a"
     id="path6" />
  <path
     d="M338.116 7.543H336V6h6v1.543h-2.114v6.407h-1.771zm11.36.117l-1.563 6.338h-1.546l-1.662-6.338.12 6.34h-1.546V6.05h2.36l1.501 5.535 1.45-5.535H351V14h-1.543z"
     class="st3"
     fill="#f8993a"
     stroke-width="2.01"
     id="path8" />
</svg>
