<svg xmlns="http://www.w3.org/2000/svg" viewBox="0 0 48 48"><path d="M4 23.983A20 20 0 0124.014 4 20 20 0 0144 24.01 20 20 0 0123.993 44 20 20 0 014 23.996" fill="#fff"/><path d="M1 24C1 11.316 11.283 1 24 1c12.684 0 23 10.283 23 23 0 12.684-10.283 23-23 23-12.717-.033-23-10.316-23-23zm9.667-7.104l.227.616h.909l1.394-1.655.325-.389.486.098.292.487s.909-.617 1.233-.91c.325-.291.52-.388.52-.388l.291.843s1.46-1.136 1.622-1.006c.13.13.097.52.097.52s-2.238 1.75-2.66 3.893c-.421 2.14-.389 3.6-.097 4.769.292 1.135.4 1.35.4 1.35.315.677.88 1.28 1.352 1.375 0 0 .065-.488.13-.813.097-.324.325-.519.94-.68.616-.13.714-.13 1.104-.844.388-.713.388-1.2.388-1.2h.941l-.096-1.427 1.33.031.13-.486.713-.097c-.252-1.18-.82-2.411-1.3-3.361l.489-.175s1.297 1.752 1.363 2.367c.096.617.389 3.602.323 4.77-.064 1.135-.908 5.612-.616 5.904 0 0 .78.778 2.11.616 1.328-.13 2.237-.584 2.334-1.102.098-.52-.389-5.158-.551-6.327-.195-1.2-1.2-4.444-1.233-4.67-.065-.228-.13-1.299-.13-1.299l.714.065.194 1.428.972-.252.327.739.325-.325c.144 1.4.438 1.46 1.075 1.162l.356.977c.228-.098.928-.146.928-.146.427.372.356.379.423.9.13.292.104 1.26.461 1.162.39-.097 2.626-2.724 2.952-4.574.324-1.849.48-3.253-.292-4.38-.325-.421-1.914-2.01-4.25-2.01-2.335 0-4.606.52-5.19 1.005-.584.488-.163-.843-.163-.843l.645-.535 1.017.249.188-.558 1.751-.033.097-.843 2.433-.031.066-1.04 1.224.934.501-.993.902.806.098-1.33s-.529-1.566-1.818-2.66c-.68-.52-2.238-1.85-3.437-1.72-1.617.13-3.083 1.136-3.764 2.012-1.558 1.906-2.29 3.938-2.823 6.26-1.268-1.602-2.784-2.977-4.606-3.405-1.167-.195-2.757-.292-3.957.324-1.039.52-3.244 2.66-3.699 3.536-.486.875-1.102 2.141-1.135 2.66-.18 1.19-.092 2.678.26 3.471l2.01-2.628zm16.837 8.824c.195 1.979.388 4.184.325 4.573-.13.616-1.201 1.136-2.823 1.33-1.623.162-2.53-.746-2.53-.746-.228-.226.163-2.822.453-4.898-7.558.81-13.203 3.406-13.073 6.26.13 3.18 7.493 5.419 16.447 5.029 8.954-.39 16.058-3.309 15.929-6.487-.098-2.985-6.553-5.126-14.729-5.061z" class="st3" fill="#f8993a"/></svg>