<svg xmlns="http://www.w3.org/2000/svg" xmlns:xlink="http://www.w3.org/1999/xlink" viewBox="0 0 48 48"><defs><linearGradient id="b"><stop offset="0" stop-color="#d5282e"/><stop offset="1" stop-color="#831818" stop-opacity=".969"/></linearGradient><linearGradient y2="43.595" x2="48.452" y1="52.405" x1="43.549" gradientTransform="matrix(-.32266 .11777 -.11866 .31682 39.009 .276)" gradientUnits="userSpaceOnUse" id="d" xlink:href="#a"/><linearGradient id="a"><stop offset="0" stop-color="#2b2b2b" stop-opacity=".672"/><stop offset=".285" stop-opacity=".586"/><stop offset="1" stop-color="#333" stop-opacity="0"/></linearGradient><linearGradient gradientTransform="matrix(1.15 0 0 1.15 -7.09 -44.821)" gradientUnits="userSpaceOnUse" y2="323.937" x2="25.702" y1="308.687" x1="25.39" id="c" xlink:href="#b"/></defs><path d="M24.25 301.59c-5.43.747-11.17 1.334-16.714 1.965l-6.271 24.658 22.985-1.248v.017l23.015 1.253-6.272-24.736z" fill="url(#c)" transform="translate(-.265 -285.923)"/><path d="M25.01 40.354s11.317-5.53 19.747.274l-.744-3.19c-6.005-2.07-14.381-.747-19.002 2.916z" fill="#bcbec0"/><path d="M28.967 14.128c-1.605.046-3.16.513-4.451 1.678-3.943-3.345-10.75-.808-15.303 1.85L3.309 37.658c7.158-1.952 14.988-1.1 21.207 3 0 0 8.752-6.582 20.134-2.972l-5.6-20.044s-5.268-3.653-10.082-3.514z" fill="#e2e3e4"/><path d="M24.12 40.312s-12.58-5.503-21.09.377l.656-3.13c.01-.012 10.073-3.75 20.434 2.753z" fill="#bcbec0"/><path d="M24 40.717V15.718h1v24.987l-1 .013z" fill="#951c24"/><g fill-rule="evenodd"><path d="M18.054 22.219l-1.1-1.073-1.132 2.018c-.091.164-.004.27.163.183l2.07-1.128z" fill="#6d020f"/><path d="M30.887 5.802l2.75 2.697c-3.941 3.879-8.029 7.91-11.916 11.735-1.028.568-2.168 1.188-3.23 1.767l-1.254-1.33a98.22 98.22 0 0 0 1.72-3.121z" fill="#d52830"/><path d="M30.887 5.808l.68.668-12.392 12.21-.544-.53c.187-.3.297-.634.604-.878 3.893-3.834 7.759-7.637 11.652-11.47z" fill="#ff4c53" fill-opacity=".974"/><path d="M33.633 8.491L22.698 19.268l-.952.937-.799.437-.51-.497L32.944 7.82z" fill="#de8787" fill-opacity=".242"/><path d="M33.132 6.173c.451.389.955 1.203.505 2.326l-2.75-2.697c1.17-.292 1.885.031 2.245.371z" fill="#ff4c53"/><path d="M18.993 17.516c-.197.428-.032.796.733.628-.163 1.231.305 1.607 1.363 1.359-.131.855.06.95.644.716l-3.958 2.156c.046-.214-.15-.461-.326-.633-.176-.171-.462-.354-.652-.321l2.196-3.905z" fill="#fd5"/><path d="M18.993 17.298c-.197.428-.032.796.733.628-.163 1.231.305 1.607 1.363 1.359-.131.855.06.95.644.716l-3.958 2.156c.046-.214-.15-.461-.326-.633-.176-.171-.462-.354-.652-.321l2.196-3.905z" fill="url(#d)" transform="translate(0 .218)"/></g></svg>