<svg xmlns="http://www.w3.org/2000/svg" width="330" height="64"><path d="M7.913 50.194C.135 50.194 0 46.088 0 43.078V20.592c0-3.01.18-7.116 7.913-7.116 7.776 0 7.911 4.105 7.911 7.116v8.164H9.261V19.04c0-.775-.585-1.368-1.348-1.368-.765 0-1.35.593-1.35 1.368V44.63c0 .775.585 1.368 1.35 1.368.763 0 1.348-.593 1.348-1.368V33.134h6.607v9.944c0 3.01-.18 7.116-7.956 7.116zm25.579-.32V33.592l.269-5.246-3.506 21.53h-3.507l-3.282-21.53.27 5.246v16.284h-5.574V13.84H25.4l3.102 18.838 4.046-18.838h6.878v36.034zm24.185-6.842c0 3.01-.18 7.116-7.912 7.116-7.777 0-7.912-4.105-7.912-7.116v-7.114h6.608v8.71c0 .776.585 1.37 1.35 1.37.764 0 1.348-.594 1.348-1.37V33.227h-9.351V20.592c0-3.01.18-7.116 7.912-7.116 7.778 0 7.912 4.105 7.912 7.116v5.564h-6.608V19.04c0-.775-.584-1.368-1.349-1.368-.764 0-1.348.593-1.348 1.368v9.807h9.26v14.185zm89.596 6.843V33.59l.27-5.246-3.507 21.53h-3.507l-3.281-21.53.27 5.246v16.284h-5.53V13.84h7.238l3.056 18.838 4.091-18.838h6.88v36.034zm24.14 0h-6.563V48.46c-1.528 1.825-4.136 2.053-5.574 1.55-2.653-.956-3.732-2.736-3.732-6.521v-7.571c0-3.01.18-7.162 7.913-7.162h1.348V19.04c0-.775-.584-1.368-1.348-1.368-.765 0-1.349.593-1.349 1.368v7.025h-6.563v-5.473c0-3.01.179-7.116 7.912-7.116 7.821 0 7.911 4.105 7.911 7.116v29.283zM164.85 33.18h-1.393c-.765 0-1.349.593-1.349 1.369v10.08c0 .775.584 1.414 1.349 1.414.764 0 1.393-.639 1.393-1.414zm18.072 16.695v-1.78c-.674 1.232-2.112 2.099-3.596 2.099-3.686 0-5.665-1.961-5.665-5.703V20.317c0-3.42.945-4.651 1.484-5.2.9-.865 2.338-1.641 3.821-1.641 1.394 0 2.922.547 3.956 1.688V4.353h6.609v45.476h-6.609zm-1.348-32.157c-.764 0-1.35.638-1.35 1.414v25.497c0 .775.586 1.368 1.35 1.368.764 0 1.348-.593 1.348-1.368V19.132c0-.776-.584-1.414-1.348-1.414zm18.251 32.476c-7.777 0-7.911-4.106-7.911-7.116V20.592c0-3.01.179-7.116 7.911-7.116 7.778 0 7.913 4.105 7.913 7.116v12.633h-9.261v11.403c0 .775.584 1.368 1.348 1.368.765 0 1.349-.593 1.349-1.368v-8.711h6.608v7.115c-.044 3.055-.18 7.16-7.957 7.16zm1.349-31.154c0-.775-.584-1.368-1.349-1.368-.764 0-1.348.593-1.348 1.368v9.807h2.652V19.04zm31.154 23.992c0 3.01-.18 7.116-7.913 7.116-7.777 0-7.911-4.105-7.911-7.116v-7.114h6.608v8.71c0 .776.584 1.37 1.349 1.37.764 0 1.348-.594 1.348-1.37V33.227h-9.26V20.592c0-3.01.18-7.116 7.912-7.116 7.777 0 7.912 4.105 7.912 7.116v5.564h-6.608V19.04c0-.775-.585-1.368-1.35-1.368-.764 0-1.348.593-1.348 1.368v9.807h9.261zm2.427-31.965V4.294h6.609v6.773zm0 38.808V13.84h6.609v36.034zm27.828 0V19.087c0-.776-.585-1.415-1.35-1.415-.764 0-1.393.593-1.393 1.368v30.834h-6.608V19.088c0-.776-.584-1.415-1.348-1.415-.765 0-1.35.639-1.35 1.415v30.787h-6.608V13.842h6.608v1.733c.674-1.231 2.113-2.098 3.687-2.098 2.112 0 3.731.638 4.63 2.007 1.53-1.551 3.102-2.008 4.63-2.008 3.687 0 5.62 1.962 5.62 5.702V49.83h-6.518zm23.421-1.323c-.9.912-2.338 1.687-3.821 1.687-1.394 0-2.922-.593-3.956-1.688v10.743h-6.609V13.841h6.609v1.733c.674-1.186 2.112-2.053 3.686-2.053 3.641 0 5.575 1.87 5.575 5.703v24.174c0 3.375-.989 4.607-1.484 5.153zm-5.125-29.465c0-.776-.585-1.37-1.348-1.37-.764 0-1.35.594-1.35 1.37v25.496c0 .776.586 1.369 1.35 1.369.763 0 1.348-.593 1.348-1.369zm9.171 30.788V4.353h6.608v45.522zm16.993.319c-7.777 0-7.912-4.106-7.912-7.116V20.592c0-3.01.18-7.116 7.912-7.116 7.778 0 7.912 4.105 7.912 7.116v12.633h-9.261v11.403c0 .775.585 1.368 1.35 1.368.764 0 1.348-.593 1.348-1.368v-8.711H315v7.115c0 3.055-.18 7.16-7.957 7.16zm1.349-31.154c0-.775-.584-1.368-1.349-1.368-.764 0-1.349.593-1.349 1.368v9.807h2.653V19.04z" class="st2" fill="#595a5c"/><path d="M67.56 32c0-15.185 12.314-27.5 27.499-27.5 15.185 0 27.5 12.314 27.5 27.5 0 15.184-12.315 27.5-27.5 27.5-15.186 0-27.5-12.315-27.5-27.5z" fill="#fff"/><path d="M63.059 32c0-17.647 14.307-32 32-32 17.648 0 32 14.308 32 32 0 17.647-14.307 32-32 32-17.692-.045-32-14.353-32-32zm13.45-9.884l.315.857h1.264l1.94-2.302.453-.541.677.135.405.678s1.264-.858 1.716-1.265c.452-.406.722-.541.722-.541l.406 1.174s2.03-1.58 2.257-1.4c.18.18.135.722.135.722s-3.114 2.438-3.7 5.416c-.587 2.98-.542 5.01-.136 6.636.406 1.579 1.715 3.925 1.715 3.925h.27l.452-.134s.09-.678.181-1.13c.135-.45.451-.722 1.309-.946.857-.181.992-.181 1.535-1.174.541-.993.541-1.67.541-1.67h1.309l-.136-1.987 1.85.046.181-.678.993-.135s-.586-2.166-.857-2.933c-.271-.722-1.083-1.309-.857-1.805.179-.452.586-.181.586-.181s1.805 2.437 1.896 3.294c.134.858.541 5.01.45 6.635-.09 1.58-1.263 7.808-.856 8.215 0 0 1.083 1.082 2.933.857 1.85-.18 3.115-.812 3.25-1.534.135-.723-.542-7.176-.768-8.802-.27-1.67-1.67-6.183-1.715-6.499-.09-.316-.18-1.805-.18-1.805l.993.09.27 1.986 1.13.406.676.271.452-.452.315.136s.18 1.535.677 1.986c.451.452 1.174.723 1.535.587.316-.135.316-.406.316-.406l.316.27s0 1.535.18 1.941c.18.407.678 1.264 1.174 1.129.541-.136 3.655-3.791 4.107-6.364.452-2.573.045-5.506-.407-6.094-.45-.586-2.662-2.798-5.913-2.798-3.248 0-6.408.723-7.22 1.4-.813.677-.227-1.174-.227-1.174l1.806-.27.316-.316h.316l.136-.588 2.437-.045.135-1.172 3.385-.046.09-1.444.857.542 2.032-.045.452.54h.316l.135-1.85s-1.58-2.978-2.528-3.7c-.947-.722-3.114-2.573-4.783-2.393-1.67.181-4.289 1.58-5.236 2.8-.948 1.172-3.115 4.919-3.25 5.64-.135.723-.677 3.069-.677 3.069l-.542-.18s-4.197-4.288-5.868-4.558c-1.624-.271-3.836-.406-5.506.45-1.444.723-4.513 3.702-5.145 4.92-.678 1.22-1.534 2.98-1.58 3.701-.09.723-.09 4.695-.09 4.695l.452.135 2.797-3.656zm23.424 12.276c.271 2.753.542 5.823.452 6.364-.18.857-1.67 1.58-3.927 1.85-2.257.226-3.52-1.038-3.52-1.038-.317-.315.225-3.927.631-6.814-10.516 1.127-18.37 4.738-18.189 8.71.18 4.424 10.426 7.537 22.883 6.996 12.457-.542 22.341-4.604 22.162-9.027-.136-4.152-9.118-7.13-20.492-7.04zM317.116 1.543H315V0h6v1.543h-2.114V7.95h-1.771zm11.36.117l-1.563 6.338h-1.546l-1.662-6.338.12 6.34h-1.546V.05h2.36l1.501 5.535L327.59.05H330V8h-1.543z" class="st3" fill="#f8993a"/></svg>