<svg xmlns="http://www.w3.org/2000/svg" width="48" height="48"><path d="M42.076 41.847l-11-2 10-9.5zm-36 0l11-2-10-9.5zm0-35.897l11 2-10 9.5zM24.031 1l-4.2 5h7.661l-3.46-5zM42 20.543v7.713l5.033-3.485L42 20.543zM6 20.57l-5 3.461 5 4.2v-7.66zM19.83 42l4.201 5 3.461-5H19.83z" fill="#3fc6f7"/><path d="M6.498 28.195A17.999 17.998 0 0119.791 6.5a17.999 17.998 0 0121.704 13.276 17.999 17.998 0 01-13.258 21.715A17.999 17.998 0 016.51 28.252" fill="#3fc6f7" fill-opacity=".902" stroke="#fff" stroke-width="3" stroke-linecap="square"/><g font-weight="400" color="#000" font-family="sans-serif"><path style="line-height:normal;font-variant-ligatures:normal;font-variant-position:normal;font-variant-caps:normal;font-variant-numeric:normal;font-variant-alternates:normal;font-feature-settings:normal;text-indent:0;text-align:start;text-decoration-line:none;text-decoration-style:solid;text-decoration-color:#000;text-transform:none;text-orientation:mixed;white-space:normal;shape-padding:0;isolation:auto;mix-blend-mode:normal;solid-color:#000;solid-opacity:1" d="M41.326 4.105a2.199 2.199 0 00-1.672.67L37.33 7.107l3.479 3.524 2.252-2.26c.934-.907.921-2.473-.03-3.476a2.476 2.476 0 00-1.705-.79z" overflow="visible" fill="#f06c53"/><path d="M37.338 7.107L20.326 24.162 19 29l4.732-1.24 17.084-17.13a17.5 17.5 0 00-3.478-3.523z" style="line-height:normal;font-variant-ligatures:normal;font-variant-position:normal;font-variant-caps:normal;font-variant-numeric:normal;font-variant-alternates:normal;font-feature-settings:normal;text-indent:0;text-align:start;text-decoration-line:none;text-decoration-style:solid;text-decoration-color:#000;text-transform:none;text-orientation:mixed;white-space:normal;shape-padding:0;isolation:auto;mix-blend-mode:normal;solid-color:#000;solid-opacity:1" overflow="visible" fill="#fff"/></g></svg>