<svg xmlns="http://www.w3.org/2000/svg" xmlns:xlink="http://www.w3.org/1999/xlink"><defs><linearGradient x1="543.1" y1="286.56" gradientTransform="matrix(.02682 .02337 -.07524 .06557 19.563 -8.262)" x2="419.88" gradientUnits="userSpaceOnUse" xlink:href="#a32" y2="286.56" id="b32"/><linearGradient gradientTransform="matrix(.816 0 0 .74916 -4.922 -1.633)" xlink:href="#b17" id="f17" x1="31.99" y1="42.66" x2="19.329" y2="5.043" gradientUnits="userSpaceOnUse"/><linearGradient id="a1"><stop stop-color="#fff1c7" offset="0"/><stop stop-color="#ffbf00" offset="1"/></linearGradient><linearGradient xlink:href="#a1" id="f1" x1="16.055" y1="11.434" x2="16.091" y2="16.782" gradientUnits="userSpaceOnUse" gradientTransform="translate(-1.778 -1.778) scale(1.11111)"/><linearGradient xlink:href="#b1" id="d1" x1="16.063" y1="22.875" x2="16.125" y2="28.25" gradientUnits="userSpaceOnUse" gradientTransform="translate(-1.778 -25.556) scale(1.11111)"/><linearGradient xlink:href="#c1" id="e1" x1="15.919" y1=".081" x2="15.992" y2="5.472" gradientUnits="userSpaceOnUse" gradientTransform="translate(-1.778 22) scale(1.11111)"/><linearGradient id="a35"><stop offset="0" stop-color="#0030f6"/><stop offset=".726" stop-color="#00187b"/><stop offset="1" stop-color="#002de7"/></linearGradient><linearGradient id="a2"><stop offset="0" stop-color="#ffc49c"/><stop offset="1" stop-color="#ff7315"/></linearGradient><linearGradient gradientTransform="translate(-20.462 -2.615) scale(.76923)" gradientUnits="userSpaceOnUse" y2="32.396" x2="57.03" y1="19.485" x1="56.871" id="d3" xlink:href="#a3"/><linearGradient id="a3"><stop offset="0" stop-color="#ffb706"/><stop offset=".412" stop-color="#ec9f00"/><stop offset="1" stop-color="#dd8801"/></linearGradient><linearGradient gradientTransform="matrix(.64584 0 0 .62096 36.666 3.42)" gradientUnits="userSpaceOnUse" y2="5.941" x2="-29.228" y1="42.059" x1="-28.752" id="c3" xlink:href="#b3"/><linearGradient id="b3"><stop offset="0" stop-color="#d5d5d4"/><stop offset="1" stop-color="#f7f7f7"/></linearGradient><linearGradient y2="5.941" x2="-29.228" y1="39.597" x1="-28.752" gradientTransform="matrix(.3958 0 0 .58332 34.667 7)" gradientUnits="userSpaceOnUse" id="d7" xlink:href="#a7"/><linearGradient id="a7"><stop offset="0" stop-color="#d5d5d4"/><stop offset="1" stop-color="#f7f7f7"/></linearGradient><linearGradient y2="5.941" x2="-29.228" y1="42.059" x1="-28.752" gradientTransform="matrix(.39583 0 0 .58333 28.667 1)" gradientUnits="userSpaceOnUse" id="c7" xlink:href="#a7"/><linearGradient y2="5.941" x2="-29.228" y1="42.059" x1="-28.752" gradientTransform="matrix(.39583 0 0 .58333 22.667 -3)" gradientUnits="userSpaceOnUse" id="b7" xlink:href="#a7"/><linearGradient id="a8"><stop offset="0" stop-color="#0030f6"/><stop offset=".726" stop-color="#00187b"/><stop offset="1" stop-color="#002de7"/></linearGradient><linearGradient id="b34"><stop offset="0" stop-color="#0030f6"/><stop offset=".726" stop-color="#00187b"/><stop offset="1" stop-color="#002de7"/></linearGradient><linearGradient id="a34"><stop offset="0" stop-color="#fdd661"/><stop offset=".701" stop-color="#de7909"/><stop offset="1" stop-color="#f6c300"/></linearGradient><linearGradient id="b10"><stop stop-color="#eaea00" offset="0"/><stop stop-color="#f7cc22" offset=".52"/><stop stop-color="#d4aa00" offset="1"/></linearGradient><linearGradient id="a10"><stop stop-color="#ff0" offset="0"/><stop stop-color="#f7cc22" offset=".68"/><stop stop-color="#d4aa00" offset="1"/></linearGradient><linearGradient gradientTransform="matrix(.06292 0 0 .1269 -4.943 -70.151)" gradientUnits="userSpaceOnUse" y2="616.055" x2="323.619" y1="568.657" x1="323.172" id="c11" xlink:href="#a11"/><linearGradient id="a11"><stop offset="0" stop-color="#e9d76e"/><stop offset="1" stop-color="#debf31"/></linearGradient><linearGradient y2="592.19" x2="275.033" y1="588.011" x1="609.954" gradientTransform="matrix(0 -.06292 .1269 0 -70.151 36.943)" gradientUnits="userSpaceOnUse" id="b11" xlink:href="#a11"/><linearGradient id="a14"><stop offset="0" stop-color="#f9e56e"/><stop offset=".745" stop-color="#f9e56e"/><stop offset="1" stop-color="#fff" stop-opacity="0"/></linearGradient><linearGradient id="a32"><stop offset="0"/><stop offset="1" stop-opacity="0"/></linearGradient><linearGradient id="b1"><stop stop-color="#ffcccb" offset="0"/><stop stop-color="#e80300" offset="1"/></linearGradient><linearGradient id="a15"><stop stop-color="#0030f6" offset="0"/><stop stop-color="#00187b" offset="1"/></linearGradient><linearGradient id="a16"><stop offset="0" stop-color="#d5282e"/><stop offset="1" stop-color="#831818" stop-opacity=".969"/></linearGradient><linearGradient gradientTransform="matrix(.8 0 0 .9325 -5.812 -275.502)" gradientUnits="userSpaceOnUse" y2="323.937" x2="25.702" y1="308.687" x1="25.39" id="b16" xlink:href="#a16"/><linearGradient gradientTransform="matrix(1.24204 0 0 1.18812 4.095 -25.822)" gradientUnits="userSpaceOnUse" y2="26.334" x2="19.608" y1="48.667" x1="19.731" id="e17" xlink:href="#a17"/><linearGradient id="a17"><stop offset="0" stop-color="#6f6f6f" stop-opacity=".256"/><stop offset="1" stop-color="#262626" stop-opacity=".631"/></linearGradient><linearGradient id="c1"><stop stop-color="#94e5a1" offset="0"/><stop stop-color="#2ebb44" offset="1"/></linearGradient><linearGradient id="b17"><stop offset="0" stop-color="#6c9e3a"/><stop offset="1" stop-color="#9ac96b"/></linearGradient><linearGradient gradientTransform="matrix(1.39128 0 0 1.3136 -169.168 -379.953)" gradientUnits="userSpaceOnUse" y2="289.325" x2="131.451" y1="313.067" x1="134.201" id="g17" xlink:href="#c17"/><linearGradient id="c17"><stop offset="0" stop-color="#0b3208"/><stop offset="1" stop-color="#13780e" stop-opacity=".973"/></linearGradient><linearGradient id="d17"><stop offset="0" stop-color="#fff"/><stop offset="1" stop-color="#fff" stop-opacity="0"/></linearGradient><linearGradient id="a31"><stop offset="0" stop-color="#959cff" stop-opacity=".992"/><stop offset="1" stop-color="#484df0"/></linearGradient><linearGradient x1="368.21" y1="476.65" gradientTransform="matrix(.03894 0 0 .06142 1.553 -8.96)" x2="368.21" gradientUnits="userSpaceOnUse" y2="552.1" id="h19"><stop offset="0" stop-color="#fff" stop-opacity=".392"/><stop offset="1" stop-color="#fff" stop-opacity="0"/></linearGradient><linearGradient gradientTransform="matrix(.81935 0 0 .98668 -259.32 -276.289)" gradientUnits="userSpaceOnUse" y2="312.2" x2="335.763" y1="299.388" x1="335.513" id="g19" xlink:href="#a19"/><linearGradient id="a19"><stop offset="0" stop-color="#e9b96e"/><stop offset="1" stop-color="#bb741e"/></linearGradient><linearGradient gradientTransform="matrix(1.11386 0 0 1.08766 -358.24 -307.839)" gradientUnits="userSpaceOnUse" y2="293.883" x2="338.449" y1="285.454" x1="335.602" id="e19" xlink:href="#b19"/><linearGradient id="b19"><stop offset="0" stop-color="#6c6c6c"/><stop offset="1" stop-color="#020202"/></linearGradient><linearGradient gradientTransform="matrix(.80005 0 0 .86408 -251.825 -244.058)" gradientUnits="userSpaceOnUse" y2="281.53" x2="343.138" y1="302.518" x1="343.102" id="d19" xlink:href="#c19"/><linearGradient x1="366.69" y1="640.22" gradientTransform="matrix(.08726 0 0 .07349 303.647 265.409)" x2="366.437" gradientUnits="userSpaceOnUse" y2="338.231" id="c19"><stop offset="0" stop-color="#c9c9c9"/><stop offset="1" stop-color="#fff"/></linearGradient><linearGradient y2="338.231" x2="366.437" y1="640.22" x1="366.69" gradientTransform="matrix(.08739 0 0 .08227 -16.42 -20.662)" gradientUnits="userSpaceOnUse" id="f19" xlink:href="#c19"/><linearGradient id="a20"><stop offset="0" stop-color="#20bc18"/><stop offset="1" stop-color="#13780e"/></linearGradient><linearGradient y2="4.27" x2="18.402" y1="19.119" x1="18.431" gradientTransform="matrix(1.66516 0 0 1.34995 -12.965 -1.469)" gradientUnits="userSpaceOnUse" id="b21" xlink:href="#a21"/><linearGradient id="a21"><stop offset="0" stop-color="#80a"/><stop offset="1" stop-color="#b746f0"/></linearGradient><linearGradient id="a22"><stop offset="0" stop-color="#20bc18"/><stop offset=".726" stop-color="#13780e"/><stop offset="1" stop-color="#179d11"/></linearGradient><linearGradient id="a26"><stop offset="0" stop-color="#ccbc3e"/><stop offset="1" stop-color="#111211"/></linearGradient><linearGradient xlink:href="#a28" id="b28" x1="9.986" y1="37.026" x2="10.139" y2="45.617" gradientUnits="userSpaceOnUse" gradientTransform="matrix(1.3 0 0 1.3 3 -37.56)"/><linearGradient id="a28"><stop offset="0" stop-color="#6b826b"/><stop offset="1" stop-color="#cbd5cb"/></linearGradient><symbol id="jobs" viewBox="0 0 32 32"><g stroke-width="1.009"><path d="M.084 20.204C.43 22.7 5.149 26.446 7.022 26.92c3.71.353 5.33-.356 8.112-.908 7.785-1.13 12.188-2.574 14.048-3.594 2.878-1.508 2.175-2.601 2.268-3.694" fill="none" stroke="#786000" transform="matrix(.98652 0 0 .99554 .431 .105)"/><path d="M18.207 4.416c-5.883-.035-11.01 1.472-13.27 7.904-.632 1.451-.947 3.565-1.105 4.707.474 3.836 6.137 6.876 11.039 8.788 7.698-.848 13.956-3.342 15.017-4.027 3.155-2.036 2.267-4.621.618-5.858-.162-5.648-5.682-11.475-12.3-11.514z" fill="url(#c10)" transform="matrix(.98652 0 0 .99554 .431 .105)"/><path d="M17.606 23.274c-10.221-.057-12.89-2.876-13.774-6.247-1.756.704-4.304 1.185-4.269 2.989-.012 1.023 4.992 5.823 6.82 6.459 2.402.835 6.15-.137 8.371-.628z" fill="url(#d10)" transform="matrix(.98652 0 0 .99554 .431 .105)"/></g></symbol><symbol id="accesscontrols" viewBox="0 0 32 32"><path d="M21.624 18l-.188 1.405H23V18z" fill="#494c4f"/><path d="M22.3 5l-3.45 22.139L.1 28.895c.057.837.148 1.419 1.143 1.406L20.1 29.5l3.6-24.8z" fill="#265c93"/><path d="M21.191 2.865l-3.55 22.321-16.159 4.425L18.85 27.14l3.936-24.732z" fill="#e9ddaf"/><rect width="9" height="9.1" x="23" y="10.4" ry="0" fill="#f9c425"/><path d="M23 19.5l.002 1H32v-1z" fill="#ae8c20"/><path d="M23 9.7h9v.8l-9-.001z" fill="#fce7a1"/><path d="M21.5.4l-3.862 24.774-16.754 4.88c-.36.154-1.155.004-.79-1.759l3.693-22.66z" fill="#1f77d1"/><path d="M19.975 10.744c-1.105-.003-2.242.361-3.065 1.113-.79.777-1.475 1.858-1.433 2.979l1.367-.44c.295-1.41 1.725-2.393 3.136-2.324l3.02-.006v-1.322z" fill="#bec3c7"/></symbol><symbol id="content" viewBox="0 0 32 32"><rect ry="2.555" rx="2.638" y="7.146" x=".5" height="22.354" width="31" fill="url(#c3)" stroke="#b7b7b7" stroke-linejoin="round"/><path d="M3.477 2.469h25.046c1.65 0 2.977.845 2.977 3.137V9.5H.5V5.606c0-2.292 1.328-3.137 2.977-3.137z" opacity=".993" fill="#37c84d" stroke="#00aa53" stroke-linejoin="round"/><rect ry="1.923" rx="1.923" y="12" x="18" height="10" width="10" opacity=".993" fill="url(#d3)"/><path d="M5.017 26h21.965" fill="none" stroke="#999" stroke-width="2" stroke-linecap="round"/><path d="M5.014 21.667h9.972" fill="none" stroke="#a8a8a8" stroke-width="2" stroke-linecap="round"/><path d="M5.014 17.333h9.972" fill="none" stroke="#b7b7b7" stroke-width="2" stroke-linecap="round"/><path d="M5.014 13h9.972" fill="none" stroke="#c1c1c1" stroke-width="2" stroke-linecap="round"/><path d="M6.809 8l-4-1.957 4-2.043zm2 0l4-1.957-4-2.043z" fill="#e6e6e6"/></symbol><symbol id="files" viewBox="0 0 32 32"><rect width="19" height="21" x=".5" y=".5" rx="0" ry=".005" fill="url(#b7)" stroke="#666" stroke-linejoin="round"/><rect width="19" height="21" x="6.5" y="4.5" rx="0" ry=".005" fill="url(#c7)" stroke="#666" stroke-linejoin="round"/><path d="M12.507 10.5h18.988c.004 0 .005.002.005.004V25L25 31.5H12.506c-.01-6.99-.004-13.998-.004-20.994 0-.004.002-.005.004-.005z" fill="url(#d7)" stroke="#666" stroke-linejoin="round"/><path d="M24.8 24.71l6.707.296-6.343 6.494-.363-6.79z" fill="#c1c1c1" stroke="#666" stroke-linejoin="round"/></symbol><symbol id="layout" viewBox="0 0 32 32"><path d="M2 32V0h6v32z" fill="url(#b11)"/><path d="M2 4.637v.659h3v-.66zM2 2v.66h3V2zm0 5.272v.66h3v-.66zm0 2.637v.659h3v-.66zm0 2.635v.66h3v-.66zm0 2.636v.66h3v-.66zm0 2.636v.66h3v-.66zm0 2.637v.659h3v-.66zm0 2.635v.66h3v-.66zm0 2.637v.659h3v-.66zm0 2.635v.66h3v-.66z" fill="#2d2000"/><path d="M0 2h32v6H0z" fill="url(#c11)"/><path d="M26.643 10.077l-.001-.001-14.436 15.133-1.653 3.201.574.548 3.235-1.693L28.797 12.13c1.125-1.31-1.157-3.103-2.154-2.054z" fill="#d53828"/><path fill="#2d2000" d="M18.413 5h.684V2h-.684z"/><path d="M4.736 5h.684V2h-.684zM2 5h.684V2H2zm5.471 0h.684V2h-.684zm2.736 0h.684V2h-.684zm2.735 0h.684V2h-.684zm2.736 0h.684V2h-.684zm2.735 0h.684V2h-.684zm2.736 0h.684V2h-.684zm2.736 0h.684V2h-.684zm2.735 0h.684V2h-.684zm2.736 0h.684V2h-.684z" fill="#2d2000"/></symbol><symbol id="listgroups" viewBox="0 0 32 32"><g transform="translate(0 -1090.52)" fill="none" stroke="#b7b7b7" stroke-width="2"><circle cy="1106.52" cx="16" r="15" stroke-dashoffset="26.028"/><path d="M1.5 1106.52h6m17 0h6m-21.75-12.558l3 5.196m8.5 14.722l3 5.197m-14.5 0l3-5.196m8.5-14.723l3-5.196"/></g></symbol><symbol id="logout" viewBox="0 0 32 32"><rect style="marker:none" width="26" height="32" x="6" rx=".006" ry=".005" overflow="visible" color="#000" fill="url(#e17)"/><path style="marker:none" d="M6.532 31.366L6.501.656 22.5 3.216v24.311z" overflow="visible" stroke-miterlimit="10" color="#000" fill="url(#f17)" stroke="url(#g17)"/><path d="M.5 12.522v9.002h7v4.067l11-8.491-11-8.784v4.206z" style="marker:none" overflow="visible" stroke-miterlimit="10" color="#000" fill="#c00" stroke="#a40000" stroke-width="1.067" stroke-linecap="round" stroke-linejoin="round"/><path d="M8.015 9.424v3.602H.945l.11 3.962 16.345.024z" style="marker:none" overflow="visible" color="#000" opacity=".508" fill="url(#h17)"/></symbol><symbol id="ltr" viewBox="0 0 32 32"><path d="M31.5 16a15.5 15.5 0 01-15.484 15.5A15.5 15.5 0 01.5 16.032 15.5 15.5 0 0115.952.5 15.5 15.5 0 0131.5 15.936" fill="none" stroke="#fff" stroke-linecap="round" stroke-linejoin="round"/><path d="M12.028 7.522L22.5 16l-10.472 8.479" fill="none" stroke="#fffaf0" stroke-width="5" stroke-linecap="round" stroke-linejoin="round"/></symbol><symbol id="liststyles" viewBox="0 0 32 32"><path d="M7 0C3.122 0 0 3.122 0 7v7h14V0z" fill="#1ce344"/><path d="M25 0c3.878 0 7 3.122 7 7v7H18V0z" fill="#e3dd1c"/><path d="M7 32c-3.878 0-7-3.122-7-7v-7h14v14z" fill="#2a1ce3" fill-opacity=".941"/><path d="M25 32c3.878 0 7-3.122 7-7v-7H18v14z" fill="#e31c1c"/><path d="M16 0v32" fill="none" stroke="#fff" stroke-width="4"/><path d="M0 16h32" fill="none" stroke="#000" stroke-width="4"/></symbol><symbol id="tags" viewBox="0 0 32 32"><path d="M8.906 5.187v9.597l12.99 12.94 9.604-9.598-12.948-12.94zm2.301 2.257c.623-.623 1.653-.604 2.3.043.648.646.667 1.676.044 2.3-.624.621-1.654.603-2.301-.044-.647-.646-.666-1.677-.043-2.299z" fill="#fffce6" fill-opacity=".961" stroke="#8f5902" stroke-linejoin="round"/><path d="M12.292 14.013l5.488-5.484 9.604 9.597-5.489 5.484z" fill="#f3ea9f" fill-opacity=".961" stroke="#c17d11" stroke-width="1.5" stroke-linecap="square" stroke-linejoin="round"/><path d="M12.103 8.332c.556 1.83-2.658 2.894-5.498 2.894-2.84 0-5.953-.357-5.853-1.934.092-1.425 3.47-2.44 6.916-2.44" fill="none" stroke="#2e3436" stroke-width="1.5" stroke-linecap="square" stroke-linejoin="round"/></symbol><symbol id="usersgroups" viewBox="0 0 32 32"><path d="M.552 19.857c-.522-3.043 3.05-6.815 7.504-7.55 1.768-.196.59-1.606 0-2.37C6.683 8.555 6.108 5.73 6.98 3.853 7.443 2.861 8.206.45 11.865.501c3.483.05 4.505 2.46 4.884 3.478.724 1.947.316 4.402-.774 5.96-.638.835-1.018 2.036 1.904 2.791l.015 10.493c-3.987.362-8.2.376-12.016 0-2.112-.208-5.06-1.82-5.326-3.366z" fill="url(#c34)" stroke="#b7b7b7"/><path d="M8.5 28.486c-.02-4.149 2.552-7.056 7.475-7.814.624-.142 1.581-.495 1.905-1.437-3.291-2.195-3.442-5.114-2.595-7.278.415-1.06 1.769-3.458 4.715-3.458 2.946 0 4.411 2.32 4.83 3.458.745 2.025.434 5.29-2.562 7.278.226 1.002 1.1 1.197 1.757 1.436 4.774 1.025 7.47 3.666 7.475 7.815.002 1.558-2.314 2.31-4.842 2.597-4.842.548-8.44.567-13.316 0-2.185-.254-4.834-1.023-4.842-2.597z" fill="url(#d34)" stroke="#b7b7b7" stroke-miterlimit="4.2"/></symbol><symbol id="systemmaintenance" viewBox="0 0 32 32"><g stroke-width=".932"><path d="M10.523 4.758l-5.328 5.659-.445 1.552.85.43s.757-1.09.957-1.29c.316.037 1.355.364 1.355.364s1.19.36 1.807 1.199L21.273 26.68c.607.655 1.762 2.283 2.754 2.672.83.324 1.791.049 2.338-.426.564-.49.98-1.358.727-2.28-.187-.683-2.233-2.744-2.233-2.744S12.891 10.651 12.43 10.174c-.46-.477-.798-1.164-1.001-1.78-.266-.983-.006-2.423-.905-3.636zM24.75 26.625a.5.5 0 01.502.498v.002a.5.5 0 11-.502-.5z" transform="matrix(1.0235 -.10917 .10866 1.03157 -1.254 2.782)" fill="#a4a4a4" stroke="#717171"/><path d="M5.38 3.725a7.506 7.502 0 00-2.64 1.008l3.634 1.52.465 1.837-.46 1.15-1.71.508-3.236-1.34C.917 9.77 2.796 13.694 7.937 13.22c0 0 2.565-6.027 2.84-6.581-.471-.946-.875-1.525-2.584-2.487-.928-.523-1.926-.571-2.813-.428z" fill="#ccc"/><path d="M4.522 13.873c-1.317-.209-4.238-3.374-3.36-5.59l.271.125c-.297 1.26.438 3.08 3.29 4.495z" fill="#717171"/></g><path d="M13.468 2.13l.205.043c2.378-.776 7.717 2.282 6.528 5.007-.302.427-.25 1.187.113 1.665L13.638 15.4c-.374-.367-1.206-.36-1.588 0L1.011 25.798c-1.007.948-.216 1.754.21 2.178l1.98 1.945c.433.422 1.577.992 2.39.147l10.418-10.777c.363-.374.365-1.18 0-1.55 0 0 .003-.004 0-.004l6.701-6.575c.708.626 1.377.68 2.01.51 1.225-.329 1.909.847 2.64 1.706l-.331.319c-.489.486-.444 1.304.106 1.843.548.538 1.385.583 1.874.103l2.192-2.147c.49-.485.443-1.305-.108-1.84-.495-.488-1.215-.552-1.715-.203-1.5-1.654-.713-1.902-2.693-4.054l-3.71-3.72c-2.672-2.573-6.143-2.57-9.506-1.548z" fill="#a4a4a4" stroke="#717171" stroke-linejoin="round"/><path d="M13.65 15.66c-.368-.362-1.183-.354-1.56 0L1.392 25.722c-.802.59-.683 1.287-.261 1.706l2.477 2.43c.426.417 1.2.632 1.998-.202l10.15-10.505c.356-.37.36-1.12 0-1.485z" fill="#e0963d"/><path class="low-shade" d="M1.46 27.68l2.048 2.164c.433.376 1.145.75 1.956.004L15.61 19.259c.363-.335.498-1.27.125-1.592l-1.756-1.738z" opacity=".5" fill="url(#b32)"/></symbol><symbol id="listtemplates" viewBox="0 0 32 32"><circle cx="15.95" cy="12.45" r="10.95" fill="none" stroke="url(#b14)" stroke-width="3" stroke-linecap="round" stroke-linejoin="round" stroke-dashoffset="26.028" stroke-opacity=".996"/><path d="M16 3.5c-5.026 0-9.1 4.045-9.1 9.036.004 1.576.34 3.152 1.239 4.464.902 1.527 2.594 4.063 2.937 7.381.174.796.505 2.08 1.252 2.119h7.344c.663 0 1.198-.934 1.242-2.119.328-3.403 1.735-5.384 2.902-7.38 1.021-1.414 1.282-2.9 1.284-4.465 0-4.99-4.074-9.036-9.1-9.036z" fill="#f9e56e" stroke="#b7b7b7" stroke-linecap="round" stroke-linejoin="round" stroke-dashoffset="26.028" stroke-opacity=".996"/><path d="M12.507 28h6.986m-6.986 1.75h6.986m-6.986 1.75h6.986" fill="none" stroke="#999" stroke-linecap="round"/><ellipse cx="16.173" cy="9.903" rx="3.757" ry="2.652" transform="matrix(.85026 0 0 .8252 2.25 4.2)" opacity=".74" fill="#fff" fill-opacity=".761" filter="url(#c14)"/></symbol><symbol id="ecommerce" viewBox="0 0 32 32"><path d="M17.184 11.378l11.544 1.33-4.69-10.056z" fill="#008033"/><path d="M24.704 17.793a2.99 3.01 44.712 01.026-4.243 2.99 3.01 44.712 014.242 0 2.99 3.01 44.712 01-.026 4.243 2.99 3.01 44.712 01-4.242 0" fill="#ffb800"/><rect transform="rotate(-4.525) skewX(-.163)" ry=".506" y="13.261" x="11.648" height="7.556" width="7.764" rx=".506" fill="#d400aa"/><path d="M6.088.884a.904.916 0 01.686.575L9.036 7.54h22.086a.91.91 0 01.659.323c.164.197.244.493.212.754l-1.219 10.837a.914.927 0 01-.824.817l-15.745 1.292-3.39 2.74c-.603.337-.87 1.911.834 1.781h.063l18.779.057h.003c.493 0 .909.424.907.933a.918.931 0 01-.914.926H10.428c-.776-.093-1.557-.934-1.742-2.017a.303.307 0 01-.014-.034c-.284-1.168.219-2.438 1.255-3.264l2.255-1.84L5.286 2.628.91 1.86H.907A.917.93 0 111.063.012zm4.885 11.36h1.658v-3.3H9.703zm2.291-3.301v3.3h3.06v-3.3zm3.693 0v3.3h3.06v-3.3zm3.693 3.3h3.061v-3.3H20.65zm3.694-3.3v3.3h3.06v-3.3zm3.693 3.3h2.243l.333-3.3h-2.576zm2.167.65h-2.167v2.953h1.822zm-2.8 0h-3.06v2.953h3.06zm-3.693 0H20.65v2.953h3.061zm-3.694 0h-3.06v2.953h3.06zm-3.693 0h-3.06v2.953h3.06zm-3.693 0h-1.414l1.118 2.953h.296zm17.15 3.603h-1.744v2.12l1.512-.125.233-1.995zm-2.378 0h-3.06v2.421l3.061-.25zm-3.693 0h-3.06v2.724l3.06-.248zm-3.693 0h-3.06v3.03l3.06-.252zm-3.693 0h-3.06v1.797l.58 1.52 2.48-.236z" style="text-indent:0;text-transform:none" color="#000" fill="#858585"/><path d="M13.138 29.999a2 2 0 01-1.998 2 2 2 0 01-2.002-1.996 2 2 0 011.994-2.005 2 2 0 012.006 1.992m16 .01a2 2 0 01-1.998 2 2 2 0 01-2.002-1.996 2 2 0 011.994-2.005 2 2 0 012.006 1.992"/></symbol><symbol id="groupmembers" viewBox="0 0 32 32"><g transform="translate(0 -1090.52)" stroke="#b7b7b7"><circle cx="16" cy="1106.52" r="15" fill="none" stroke-width="2" stroke-dashoffset="26.028"/><path d="M1.95 1106.52h28.1m-21.075-12.168l14.05 24.335m0-24.335l-14.05 24.335" fill="none" stroke-width="2"/><path d="M6.5 1112.53c-.017-3.427 2.108-5.829 6.175-6.454.515-.118 1.306-.41 1.573-1.188-2.718-1.813-2.843-4.224-2.143-6.012.343-.876 1.461-2.856 3.895-2.856s3.644 1.916 3.99 2.856c.616 1.673.358 4.37-2.117 6.012.187.828.91.989 1.452 1.187 3.944.846 6.17 3.028 6.175 6.455.002 1.287-1.912 1.909-4 2.145-4 .453-6.972.468-11 0-1.805-.21-3.993-.844-4-2.145z" fill="url(#b8)" stroke-miterlimit="4.2"/></g></symbol><symbol id="systeminfo" viewBox="0 0 32 32"><circle cx="16" cy="16" r="15.5" fill="url(#b31)" stroke="#4d45d7"/><path style="line-height:150%;-inkscape-font-specification:'Densmore, Normal';font-variant-ligatures:normal;font-variant-caps:normal;font-variant-numeric:normal;font-feature-settings:normal;text-align:start" d="M18 28h-4V12.333h4z" font-weight="400" letter-spacing="0" word-spacing="0" font-family="Densmore" fill="#fff"/><path d="M18.5 9h-5V4h5z" style="line-height:150%;-inkscape-font-specification:'Bitstream Vera Sans, Bold';font-variant-ligatures:normal;font-variant-caps:normal;font-variant-numeric:normal;font-feature-settings:normal;text-align:start" aria-label="?" font-weight="700" font-size="30.502" letter-spacing="0" word-spacing="0" font-family="Bitstream Vera Sans" opacity=".96" fill="#fff"/></symbol><symbol id="main" viewBox="0 0 32 32"><path d="M25 0v8l-4-3.319c.004-2.086-.005-2.595.004-4.681z" color="#000" fill="url(#d19)"/><path overflow="visible" font-weight="400" style="line-height:normal;font-variant-ligatures:normal;font-variant-position:normal;font-variant-caps:normal;font-variant-numeric:normal;font-variant-alternates:normal;font-feature-settings:normal;text-indent:0;text-align:start;text-decoration-line:none;text-decoration-style:solid;text-decoration-color:#000;text-transform:none;text-orientation:mixed;white-space:normal;shape-padding:0;isolation:auto;mix-blend-mode:normal;solid-color:#000;solid-opacity:1" d="M16.038 1.147a2.138 2.092 0 00-1.409.512L.505 13.593c.071 2.942.726 3.588 1.806 5.601L16.026 7.725 29.67 19.147c1.586-2.162 1.783-2.873 1.87-5.554L17.425 1.66a2.14 2.093 0 00-1.388-.512z" color="#000" font-family="sans-serif" fill="url(#e19)" stroke="#b7b7b7" stroke-linecap="round" stroke-linejoin="round"/><path d="M28.01 17.075L15.994 7.01 3.976 17.158v13.33c.052.986.543 1.477 1.502 1.512h21.03c.983-.013 1.504-.52 1.503-1.511z" color="#000" fill="url(#f19)"/><path d="M19.27 32h-6.554V20.015c0-.117.016-.227.045-.328a.974.953 0 01.12-.267.62.607 0 01.181-.18.406.398 0 01.222-.067h5.419a.404.395 0 01.22.067.59.577 0 01.182.179.961.94 0 01.12.267c.03.102.046.212.046.33z" color="#000" fill="url(#g19)"/><path d="M14.254 20.242c-.295.023-.415.348-.44.596-.012.65-.006 3.99-.006 3.99h4.37c0-1.318.004-2.636-.002-3.954-.018-.25-.12-.561-.399-.629z" color="#000" fill="url(#h19)"/></symbol><symbol id="support" viewBox="0 0 32 32"><circle r="12" cy="16" cx="16" fill="none" stroke="#e20a08" stroke-width="8" stroke-linecap="round" stroke-dashoffset="26.028" stroke-opacity=".941"/><circle cx="16" cy="16" r="12" fill="none" stroke="#fff" stroke-width="2" stroke-dashoffset="26.028" stroke-opacity=".437" filter="url(#a30)"/><path d="M10.343 21.657l-5.657 5.657M27.314 4.686l-5.657 5.657M4.686 4.686l5.657 5.657m11.314 11.314l5.657 5.657" fill="none" stroke="#ececec" stroke-width="2"/></symbol><symbol id="groupperms" viewBox="0 0 32 32"><g transform="translate(0 -1090.52)"><circle cx="16" cy="1106.52" r="15" fill="none" stroke="#b7b7b7" stroke-width="2" stroke-dashoffset="26.028"/><path d="M1.95 1106.52h28.1m-21.075-12.168l14.05 24.335m0-24.335l-14.05 24.335" fill="none" stroke="#b7b7b7" stroke-width="2"/><path d="M15.877 1093.031a3.561 3.561 0 00-2.424 1.018l-3.568 3.568a3.492 3.492 0 000 4.95l3.568 3.568.04 10.994 2.493 2.691 3.782-3.763-1.387-1.408 1.387-1.41-1.387-1.409 1.387-1.408-1.399-1.422v-2.865l3.604-3.568a3.492 3.492 0 000-4.95l-3.57-3.568c-.74-.705-1.641-1.031-2.526-1.018zm.121 2.489a1.5 1.5 0 011.5 1.5 1.5 1.5 0 01-1.5 1.5 1.5 1.5 0 01-1.5-1.5 1.5 1.5 0 011.5-1.5z" fill="#fcd116" stroke="#b95900"/><path d="M15 1118.02l1 1.2v-13.3h-1z" class="msportalfx-svg-c10" opacity=".4" fill="#a14d00"/></g></symbol><symbol id="myaccount" viewBox="0 0 32 32"><path d="M31.5 16a15.5 15.5 0 01-15.498 15.5A15.5 15.5 0 01.5 16.005 15.5 15.5 0 0115.993.5 15.5 15.5 0 0131.5 15.99" fill="#fff" stroke="#0f630b"/><path d="M6 22.378c-.018-3.607 2.22-6.135 6.5-6.793.542-.124 1.375-.43 1.656-1.25-2.861-1.909-2.993-4.447-2.256-6.329C12.26 7.084 13.438 5 16 5c2.562 0 3.836 2.017 4.2 3.006.648 1.762.377 4.6-2.228 6.329.197.87.957 1.04 1.528 1.249 4.151.89 6.495 3.187 6.5 6.794.002 1.355-2.013 2.01-4.21 2.259-4.211.476-7.34.492-11.58 0-1.9-.221-4.203-.89-4.21-2.259z" fill="url(#b20)"/></symbol><symbol id="listusers" viewBox="0 0 32 32"><g stroke="#b7b7b7" stroke-miterlimit="4.2"><path d="M2.997 1110.518c-2.71-1.737-2.835-4.048-2.138-5.761.342-.84 1.458-2.737 3.884-2.737 2.427 0 3.634 1.836 3.979 2.737.614 1.603.357 4.187-2.11 5.761-1.156.705-2.212.683-3.615 0z" fill="url(#b15)" transform="translate(0 -1090.52)"/><path d="M25.496 1110.518c-2.71-1.737-2.835-4.048-2.137-5.761.341-.84 1.457-2.737 3.884-2.737 2.426 0 3.633 1.836 3.978 2.737.614 1.603.357 4.187-2.11 5.761-1.156.705-2.211.683-3.615 0z" fill="url(#c15)" transform="translate(0 -1090.52)"/><path d="M14.246 1110.518c-2.71-1.737-2.835-4.048-2.137-5.761.342-.84 1.457-2.737 3.884-2.737 2.427 0 3.634 1.836 3.978 2.737.614 1.603.358 4.187-2.11 5.761-1.155.705-2.211.683-3.615 0z" fill="url(#d15)" transform="translate(0 -1090.52)"/></g></symbol><symbol id="eventhandlers" viewBox="0 0 32 32"><g transform="translate(0 -288.533)"><ellipse ry="13" rx="14" cy="301.533" cx="16" fill="#ffa041"/><path d="M14.068 309.599l-.164-2.56-1.667-.997-2.212 1.16-1.914-3.333 2.099-1.336V300.6l-2.15-1.43 1.95-3.416 2.303 1.16 1.535-.887.147-2.575 3.933.02.164 2.575 1.594.887 2.244-1.115 1.983 3.434-2.088 1.386v1.817l2.115 1.43-1.95 3.416-2.303-1.161-1.535.896-.147 2.576zm1.944-4.657c1.855.01 3.352-1.5 3.345-3.367-.007-1.867-1.517-3.386-3.372-3.394-1.854-.01-3.352 1.5-3.345 3.368.008 1.867 1.517 3.386 3.372 3.393z" fill="#fff"/><path d="M16.524 314.463l7.476-2.33v8.4z" fill="#ffa041"/></g></symbol><symbol id="mybookmarks" viewBox="0 0 32 32"><path d="M6.5 4.73c.12-2.52.977-4.2 3.52-4.245L22.652.447c1.461 0 1.846 1.152 1.846 2.106l.002 28.263-7.5-7.14-7.533 7.156.074-26.103z" fill="url(#b21)" stroke="#660080"/></symbol><symbol id="siteprefs" viewBox="0 0 32 32">viewBox=&quot;0 0 32 32&quot;<rect transform="matrix(0 -1 -1 0 0 0)" ry="6" y="-31" x="-32" height="30" width="32" fill="#484df0"/><path d="M16.5 5.049V27" fill="none" stroke="#fff" stroke-width="3"/><rect width="9" height="3" x="12" y="10" ry="0" fill="#fff"/><path d="M24.5 5v21.951" fill="none" stroke="#fff" stroke-width="3"/><rect ry="0" y="20" x="20" height="3" width="9" fill="#fff"/><path d="M7.5 5v21.951" fill="none" stroke="#fff" stroke-width="3"/><rect ry="0" y="15" x="3" height="3" width="9" fill="#fff"/><rect width="9" height="2" x="20" y="18" ry="0" fill="#f0f"/><rect ry="0" y="8" x="12" height="2" width="9" fill="#f0f"/><rect width="9" height="2" x="3" y="13" ry="0" fill="#f0f"/></symbol><symbol id="extensions" viewBox="0 0 32 32"><path d="M22.963 4.5v8.96c-.905-.956-2.369-1.435-3.73-1.28-2.266.262-3.876 2.177-3.603 4.282.274 2.105 2.33 3.608 4.597 3.361 1.017-.112 2.06-.57 2.736-1.283v8.96H31.5v-23z" fill="#0030f6" stroke="#b7b7b7" stroke-linecap="round" stroke-linejoin="round"/><path d="M.5 4.5v23h13v-8.96a3.952 3.648 0 01-2.535 1.283C8.777 20.07 6.393 18.368 6.35 16c-.04-2.17 1.469-3.557 3.656-3.82a3.914 3.613 0 013.494 1.28V4.5z" fill="#ac000c" stroke="#b7b7b7" stroke-linecap="round" stroke-linejoin="round"/></symbol><symbol id="myprefs" viewBox="0 0 32 32"><path d="M.5 1117.957c-.028-5.592 3.44-9.51 10.075-10.53.84-.193 2.132-.668 2.567-1.938-4.435-2.958-4.64-6.892-3.497-9.81.56-1.429 2.384-4.66 6.355-4.66 3.971 0 5.946 3.127 6.51 4.66 1.004 2.73.584 7.13-3.453 9.81.304 1.35 1.483 1.613 2.368 1.936 6.435 1.38 10.067 4.94 10.075 10.532.003 2.1-3.12 3.115-6.526 3.5-6.527.739-11.376.764-17.948 0-2.944-.342-6.515-1.378-6.526-3.5z" fill="url(#b22)" stroke="#f6c300" stroke-miterlimit="4.2" transform="translate(0 -1090.52)"/></symbol><symbol id="mysettings" viewBox="0 0 32 32"><path d="M31.5 16a15.5 15.5 0 01-15.498 15.5A15.5 15.5 0 01.5 16.005 15.5 15.5 0 0115.993.5 15.5 15.5 0 0131.5 15.99" fill="#fff" stroke="#0f630b"/><path d="M16.5 6.044V26" fill="none" stroke="#0f630b" stroke-width="3"/><rect ry="0" y="9" x="12" height="3" width="9" fill="#0f630b"/><path d="M24.5 6v20" fill="none" stroke="#0f630b" stroke-width="3"/><rect width="9" height="3" x="20" y="19.049" ry="0" fill="#0f630b"/><path d="M7.5 6v19.956" fill="none" stroke="#0f630b" stroke-width="3"/><rect width="9" height="3" x="3" y="15" ry="0" fill="#0f630b"/><rect ry="0" y="16.081" x="20" height="3" width="9" fill="#f0f"/><rect width="9" height="3" x="3" y="12" ry="0" fill="#f0f"/><rect width="9" height="3" x="12" y="6" ry="0" fill="#f0f"/></symbol><symbol id="notice" viewBox="0 0 32 32"><path d="M2.236 5.035C-.017 7.03.052 9.847 1.7 14.165c1.042 2.728 1.092 3.105.718 5.55-.22 1.441-.53 3.148-.685 3.794-.555 2.285 1.033 3.742 4.178 3.837 5.875.177 14.703-4.19 16.397-8.112.5-1.156-.054-2.713-1.234-3.469-.56-.359-1.96-1.378-3.11-2.267-1.971-1.52-2.177-1.804-3.52-4.878-1.908-4.363-3.733-6.229-7.014-5.82C7.066 1.937 5.58-.22 3.414.725c-1.92.837-1.752 3.197-1.178 4.31zm10.948 22.591c-1.556.787-3.786 1.254-6.207 1.243.87 2.445 2.94 2.824 4.12 2.556.965-.22 2.543-.999 2.087-3.799z" fill="#e20000" stroke="#770c0c"/><path d="M7.502 4.115c1.68-.297 2.694.235 3.554 1.126 1.391 1.534 2.32 4.66 3.866 7.166 1.243 1.594 3.59 3.088 5.33 4.354" fill="none" stroke="#ff7b7b" stroke-width="1.5" stroke-linecap="round" stroke-linejoin="round"/></symbol><symbol id="rtl" viewBox="0 0 32 32"><path d="M31.5 16a15.5 15.5 0 01-15.484 15.5A15.5 15.5 0 01.5 16.032 15.5 15.5 0 0115.952.5 15.5 15.5 0 0131.5 15.936" fill="none" stroke="#fff" stroke-linecap="round" stroke-linejoin="round"/><path d="M19.972 7.522L9.5 16l10.472 8.479" fill="none" stroke="#fffaf0" stroke-width="5" stroke-linecap="round" stroke-linejoin="round"/></symbol><symbol id="siteadmin" viewBox="0 0 32 32"><path d="M4.464 27.036l3.184-1.492c2.607-.591 4.22.762 4.474 3.724l.193 2.231 7.367-.008.195-2.23c.26-2.963 1.66-4.222 4.472-3.726l3.181 1.49 3.8-6.582-2.881-2.01c-1.02-2.161-.972-3.046-.003-4.896l2.884-2.012-3.8-6.582-3.184 1.492C21.933 6.01 21.326 5.715 20.1 4L19.8.5h-7.6L11.9 4c-1.197 1.73-1.916 2.127-4.236 2.433l-3.18-1.49-3.8 6.582 2.88 2.01c1.084 2.218.956 2.766-.016 4.908l-2.88 2.01zm5.866-7.775a6.507 6.507 0 012.383-8.877 6.48 6.48 0 018.864 2.37 6.507 6.507 0 01-2.384 8.877 6.48 6.48 0 01-8.863-2.37z" fill="#9eb09e" stroke="#b7b7b7"/><circle cx="16" cy="16" r="6.5" fill="none" stroke="url(#b28)" stroke-width="2"/></symbol><symbol id="log" viewBox="0 0 32 32"><path d="M3.3 7L0 27h32L28.7 7z" fill="url(#b16)"/><path d="M4.2 9L1.6 25h28.8L27.8 9z" fill="#e2e3e4"/><path d="M16 9v16" fill="none" stroke="#951c24"/><path d="M14.343.273l-3.967 10.901L10 14.156l.626.228 1.63-2.526 3.967-10.9c-.047-.852-1.379-1.272-1.88-.685z" fill="#d52830"/></symbol><symbol id="services" viewBox="0 0 32 32"><path d="M22 6h10v8H22z" opacity=".993" fill="#f6c300" paint-order="markers stroke fill"/><path d="M7.373 1.5c-2.422 0-5.11 1.52-4.662 5.461.242 2.908 2.43 3.594 1.732 6.11C1.918 13.38.67 13.57.5 14.075V30.5h14.035l.094-9.534 2.28 2.05c1.356 1.504 1.847 1.745 2.692 1.745.905 0 1.341-.375 3.52-3.002 1.361-1.64.789-.978 2.556-3.082 1.028-.425 1.987-.223 2.98-.344 2.37-.288 2.93-2.248-1.205-2.146l-4.35.05-1.564 1.91c-.91 1.1-1.716 1.998-1.787 1.998-.07 0-1.152-1.3-2.402-2.89-1.25-1.589-2.52-2.97-2.821-3.072-.472-.457-2.578-.843-4.727-.99-.63-2.731 2.146-3.61 2.234-6.232C12.28 3.204 9.795 1.5 7.374 1.5z" fill="url(#b26)" stroke="#b7b7b7"/><path d="M28.128 17.906c2.154-.06 2.988-1.418-.633-1.296l-4.201.076 2.046 1.593c1.204-.48 2.394-.32 2.788-.373z" fill="#b7a730"/></symbol><symbol id="site" viewBox="0 0 32 32"><path d="M5 5C3.056 5 2 6.09 2 8v16c0 1.91 1.056 3 3 3h14.318l-1.014-9.012L30 19.938V8c0-1.91-1.056-3-3-3z" fill="#2b2be5" fill-opacity=".982"/><path style="line-height:normal;font-variant-ligatures:normal;font-variant-position:normal;font-variant-caps:normal;font-variant-numeric:normal;font-variant-alternates:normal;font-feature-settings:normal;text-indent:0;text-align:start;text-decoration-line:none;text-decoration-style:solid;text-decoration-color:#000;text-transform:none;text-orientation:mixed;white-space:normal;shape-padding:0;isolation:auto;mix-blend-mode:normal;solid-color:#000;solid-opacity:1" d="M4.76 3C2.14 3 0 5.14 0 7.76v16.48C0 26.86 2.14 29 4.76 29h14.793l-.235-2H4.76A2.732 2.732 0 012 24.24V7.76A2.732 2.732 0 014.76 5h22.48A2.732 2.732 0 0130 7.76v12.178l2 .285V7.76C32 5.14 29.86 3 27.24 3z" font-weight="400" overflow="visible" color="#000" font-family="sans-serif" fill="#6ca7d4"/><path d="M1.8 17h28.4" fill="none" stroke="#6ca7d4" stroke-width="2"/><path d="M22 22.002L23.275 32 32 23.404z" fill="#e72222" paint-order="markers stroke fill"/><path d="M12 27v-9m10-2V5" fill="none" stroke="#6ca7d4" stroke-width="2"/></symbol><symbol id="checksum" viewBox="0 0 32 32"><path d="M21 5a5 5 0 01-4.963 5 5 5 0 01-5.036-4.926A5 5 0 0115.889 0a5 5 0 015.108 4.85" fill="url(#d1)"/><path d="M21 27a5 5 0 01-4.963 5 5 5 0 01-5.036-4.926A5 5 0 0115.889 22a5 5 0 015.108 4.85" fill="url(#e1)"/><path d="M21 16a5 5 0 01-4.963 5 5 5 0 01-5.036-4.926A5 5 0 0115.889 11a5 5 0 015.108 4.85" fill="url(#f1)"/></symbol><symbol id="cmsmshelp" viewBox="0 0 32 32"><circle cx="16" cy="16" r="15.5" fill="url(#b2)" stroke="#d85600"/><path d="M13 20c-.044-1.196.295-2.754 1.022-3.712.909-1.38 2.27-2.291 3.215-3.632.701-.93.821-2.556-.161-3.312-1.139-.833-2.63-.503-3.848-.076-.971.357-2.369.805-3.228 1.413V6.492c2.782-1.089 6.365-1.943 9.243-.947 1.596.53 2.957 1.986 3.213 3.83.33 1.803-.06 3.777-1.22 5.146-.9 1.28-2.287 2.08-3.034 3.496-.255.528-.166 1.408-.17 1.983zm0 2h5.032v5H13z" style="line-height:150%;-inkscape-font-specification:'Bitstream Vera Sans, Bold';font-variant-ligatures:normal;font-variant-caps:normal;font-variant-numeric:normal;font-feature-settings:normal;text-align:start" aria-label="?" font-weight="700" font-size="30.502" letter-spacing="0" word-spacing="0" font-family="Bitstream Vera Sans" fill="#fff"/></symbol><symbol id="usertags" viewBox="0 0 32 32"><path d="M.5 27.437c-.028-5.591 3.44-9.51 10.075-10.53.84-.192 2.132-.668 2.567-1.938-4.435-2.958-4.64-6.892-3.497-9.81C10.205 3.732 12.029.5 16 .5c3.971 0 5.946 3.128 6.51 4.66 1.004 2.731.584 7.13-3.453 9.81.304 1.35 1.483 1.613 2.368 1.936 6.435 1.38 10.067 4.94 10.075 10.532.003 2.1-3.12 3.115-6.526 3.5-6.527.739-11.376.764-17.948 0C4.082 30.595.511 29.56.5 27.437z" fill="url(#b35)" stroke="#b7b7b7" stroke-miterlimit="4.2"/><path d="M25 4.5l-6.5 6.207v16.781l13 .012V10.747z" fill="#fffce6" fill-opacity=".961" stroke="#8f5902" stroke-linejoin="round"/><path d="M21.294 13h7.4l.006 11.835h-7.4z" fill="#f3ea9f" fill-opacity=".961" stroke="#c17d11" stroke-width="1.5" stroke-linecap="square" stroke-linejoin="round"/><circle cx="25" cy="9.2" r="2" fill="#8f5902"/><path d="M16.39 7.42a4.509 4.033 0 012.87-3.862 4.509 4.033 0 015.034 1.105 4.509 4.033 0 01.546 4.61" fill="none" stroke="#e3dede" stroke-width="2" stroke-dashoffset="26.028"/></symbol><radialGradient gradientUnits="userSpaceOnUse" gradientTransform="matrix(-.59688 .0636 -.1408 -1.23642 13.552 10.617)" r="14" fy="5.691" fx="9.01" cy="5.691" cx="9.01" id="b26" xlink:href="#a26"/><radialGradient xlink:href="#a2" id="b2" cx="-6.133" cy="6.424" fx="-6.133" fy="6.424" r="13" gradientUnits="userSpaceOnUse" gradientTransform="matrix(2.60914 .02505 -.0158 1.64635 31.867 -4.517)"/><radialGradient xlink:href="#a20" id="b20" cx="15.523" cy="6.027" fx="15.523" fy="6.027" r="15" gradientUnits="userSpaceOnUse" gradientTransform="matrix(-.65329 -.00267 -.0112 -1.1438 26.116 13.245)"/><radialGradient xlink:href="#a31" id="b31" cx="-6.133" cy="6.424" fx="-6.133" fy="6.424" r="13" gradientUnits="userSpaceOnUse" gradientTransform="matrix(2.60914 .02505 -.0158 1.64635 31.867 -4.517)"/><radialGradient r="17.171" fy="2.897" fx="19.701" cy="2.897" cx="19.701" gradientTransform="matrix(1.27512 0 0 .60062 -15.965 8.942)" gradientUnits="userSpaceOnUse" id="h17" xlink:href="#d17"/><radialGradient xlink:href="#a15" id="d15" gradientUnits="userSpaceOnUse" gradientTransform="matrix(-.31024 .0046 -.00955 -.51076 20.869 1106.4)" cx="15.232" cy="5.689" fx="15.232" fy="5.689" r="13.297"/><radialGradient xlink:href="#a15" id="c15" gradientUnits="userSpaceOnUse" gradientTransform="matrix(-.31024 .0046 -.00955 -.51076 32.118 1106.4)" cx="15.232" cy="5.689" fx="15.232" fy="5.689" r="13.297"/><radialGradient xlink:href="#a15" id="b15" cx="15.232" cy="5.689" fx="15.232" fy="5.689" r="13.297" gradientUnits="userSpaceOnUse" gradientTransform="matrix(-.31024 .0046 -.00955 -.51076 9.619 1106.4)"/><radialGradient xlink:href="#a22" id="b22" cx="15.232" cy="5.689" fx="15.232" fy="5.689" r="15" gradientUnits="userSpaceOnUse" gradientTransform="matrix(-1.0126 -.00414 -.01735 -1.77295 31.68 1103.8)"/><radialGradient xlink:href="#a14" id="b14" cx="16.088" cy="12.395" fx="16.088" fy="12.395" r="10.6" gradientTransform="matrix(1.1508 .00065 -.0008 1.15115 -2.466 -2.093)" gradientUnits="userSpaceOnUse"/><radialGradient xlink:href="#a34" id="c34" gradientUnits="userSpaceOnUse" gradientTransform="matrix(-.59715 -.01261 .0265 -1.25373 21.083 9.76)" cx="15.019" cy="5.364" fx="15.019" fy="5.364" r="15"/><radialGradient xlink:href="#b34" id="d34" cx="15.232" cy="5.689" fx="15.232" fy="5.689" r="15" gradientUnits="userSpaceOnUse" gradientTransform="matrix(-.75128 -.00307 -.01288 -1.31547 31.633 17.982)"/><radialGradient gradientUnits="userSpaceOnUse" gradientTransform="matrix(1.07182 .00545 -.00632 1.09081 -48.224 2.052)" r="15" fy="3.8" fx="61.183" cy="3.8" cx="61.183" id="c10" xlink:href="#b10"/><radialGradient fy="840.514" fx="274.289" r="184.62" gradientTransform="matrix(.04571 -.02597 .03913 .0313 -40.688 1.602)" cx="274.289" cy="840.514" gradientUnits="userSpaceOnUse" xlink:href="#a10" id="d10"/><radialGradient xlink:href="#a8" id="b8" cx="15.232" cy="5.689" fx="15.232" fy="5.689" r="15" gradientUnits="userSpaceOnUse" gradientTransform="matrix(-.62062 -.00254 -.01064 -1.08667 25.61 1103.853)"/><radialGradient xlink:href="#a35" id="b35" cx="15.232" cy="5.689" fx="15.232" fy="5.689" r="15" gradientUnits="userSpaceOnUse" gradientTransform="matrix(-1.0126 -.00414 -.01735 -1.77296 31.68 13.28)"/><filter id="a30" x="-.036" width="1.072" y="-.036" height="1.072" color-interpolation-filters="sRGB"><feGaussianBlur stdDeviation=".36"/></filter><filter id="c14" x="-.062" width="1.123" y="-.087" height="1.174" color-interpolation-filters="sRGB"><feGaussianBlur stdDeviation=".193"/></filter></defs></svg>
