<svg xmlns="http://www.w3.org/2000/svg" xmlns:xlink="http://www.w3.org/1999/xlink" height="48" width="48"><defs><linearGradient y2="-24.639" x2="21.019" y1="17.839" x1="25.321" gradientTransform="matrix(1.02362 .0877 -.00122 .85227 -.917 20.395)" gradientUnits="userSpaceOnUse" id="d" xlink:href="#a"/><linearGradient id="a"><stop offset="0" stop-color="#c9b92f"/><stop offset=".3" stop-color="#e4d034"/><stop offset="1" stop-color="#fbf7be"/></linearGradient><linearGradient y2="-5.261" x2="21.137" y1="43.003" x1="22.625" gradientTransform="matrix(1.02342 .08768 -.00121 .84935 -1.009 3.855)" gradientUnits="userSpaceOnUse" id="e" xlink:href="#b"/><linearGradient id="b"><stop offset="0" stop-color="#725c1a"/><stop offset="1" stop-color="#d5a509"/></linearGradient><linearGradient id="c"><stop offset="0" stop-color="#b68e0e"/><stop offset="1" stop-color="#977506"/></linearGradient><linearGradient y2="41" x2="6.818" y1="17.222" x1="9.695" gradientTransform="matrix(1.00005 0 0 .84508 -.014 4.286)" gradientUnits="userSpaceOnUse" id="f" xlink:href="#c"/></defs><path d="M17.63 6.007l-8.018.55c-1.114.09-2.039 1.016-2.01 2.078l.04 1.435-3.409.31c-1.182.09-2.464.361-2.696 2.662L1.5 38.992c.025 3.741 1.665 4.005 3.865 4.008l32.285-2.961c7.308-2.42 8.268-15.177 8.826-20.047.271-5.124-1.787-4.546-8.613-3.98 1.408-7.24 1.747-8.724-4.312-8.116L19.612 9.074l.028-1.314c.023-1.06-.896-1.844-2.01-1.753z" fill="url(#d)" fill-rule="evenodd" stroke="url(#e)" stroke-linecap="round" stroke-linejoin="round"/><path d="M5.005 35.97c1.8-3.718 3.555-9.881 3.96-13.573.257-1.791.756-3.823 4.416-4.096l28.453-2.617.715-4.504-36.636 3.091-2.737 21.944z" fill="#e5e5e5" stroke="#666" stroke-linecap="round" stroke-linejoin="round"/><path d="M3.462 39.6c.656-.866 4.858-10.74 5.56-17.488.257-1.03.413-3.39 3.876-3.718l29.24-2.704" fill="none" stroke="url(#f)" stroke-linecap="round" stroke-linejoin="round"/></svg>