<svg xmlns="http://www.w3.org/2000/svg" width="960" height="960"><path d="M611.293 574.171c28.78-47 41.6-161.84-44.04-224.19-67.54-49.17-181.58-24.98-211.97 55.42-36.96 92.8-6.25 214.34 89.93 237.93 94.46 23.18 149-33.65 166.08-69.16zm28.71 77.63c-66.5 90.54-218.74 98.43-305.31 27.94-84.46-68.77-96.89-191.56-66.53-289.14 26.04-83.66 110.28-145.35 202.02-141.6 63.97 2.61 131.76 22.09 169.82 72.53v-61.53h80v367.5c95.21-16.16 146.87-64.95 157.24-147.5 18.93-106.28-18.68-220.56-102.1-292.67-160.04-147.97-439.94-131.83-588.94 23.47-144.6 144.64-146.2 398.6-2.28 544.25 170.2 167.85 397.06 150.96 569.6 37.62l43.97 56.46c-152.87 109.27-384.63 138.67-550.45 48.56-139.74-72.9-235.04-217.72-244.84-371.69-17.13-169.75 66.66-346.13 215.57-437.9 182.9-116.94 448.15-105.7 608.85 43.58 120.83 106.24 170.76 288.65 102.68 435.26-47.96 101.64-178.6 154.64-289.3 157.36z"/></svg>