<svg xmlns="http://www.w3.org/2000/svg" xmlns:xlink="http://www.w3.org/1999/xlink"><defs><linearGradient gradientTransform="matrix(1.39128 0 0 1.2316 -169.168 -355.273)" gradientUnits="userSpaceOnUse" y2="289.325" x2="131.451" y1="313.067" x1="134.201" id="g6" xlink:href="#c6"/><linearGradient x1="368.21" y1="476.65" gradientTransform="matrix(.03564 0 0 .05746 2.782 -7.32)" x2="368.21" gradientUnits="userSpaceOnUse" y2="552.1" id="h8"><stop offset="0" stop-color="#fff" stop-opacity=".392"/><stop offset="1" stop-color="#fff" stop-opacity="0"/></linearGradient><linearGradient id="a1"><stop offset="0" stop-color="#ffb706"/><stop offset=".412" stop-color="#ec9f00"/><stop offset="1" stop-color="#dd8801"/></linearGradient><linearGradient gradientTransform="matrix(.60417 0 0 .62096 35.333 3.42)" gradientUnits="userSpaceOnUse" y2="5.941" x2="-29.228" y1="42.059" x1="-28.752" id="c1" xlink:href="#b1"/><linearGradient id="b1"><stop offset="0" stop-color="#d5d5d4"/><stop offset="1" stop-color="#f7f7f7"/></linearGradient><linearGradient y2="5.941" x2="-29.228" y1="39.597" x1="-28.752" gradientTransform="matrix(.3958 0 0 .58332 33.667 6)" gradientUnits="userSpaceOnUse" id="d4" xlink:href="#a4"/><linearGradient id="a4"><stop offset="0" stop-color="#d5d5d4"/><stop offset="1" stop-color="#f7f7f7"/></linearGradient><linearGradient y2="5.941" x2="-29.228" y1="42.059" x1="-28.752" gradientTransform="matrix(.39583 0 0 .58333 28.667 2)" gradientUnits="userSpaceOnUse" id="c4" xlink:href="#a4"/><linearGradient y2="5.941" x2="-29.228" y1="42.059" x1="-28.752" gradientTransform="matrix(.39583 0 0 .58333 23.667 -2)" gradientUnits="userSpaceOnUse" id="b4" xlink:href="#a4"/><linearGradient gradientTransform="matrix(-.2965 .25112 .27569 .32677 221.905 288.525)" y2="9.724" x2="12.387" y1="14.58" x1="14.709" gradientUnits="userSpaceOnUse" id="f5" xlink:href="#a5"/><linearGradient id="a5"><stop offset="0" stop-color="#d10005"/><stop offset="1" stop-color="#fc8285"/></linearGradient><linearGradient y2="43.595" x2="48.452" y1="52.405" x1="43.549" gradientTransform="matrix(-.2089 .05383 -.08775 .1974 219.892 296.73)" gradientUnits="userSpaceOnUse" id="g5" xlink:href="#b5"/><linearGradient id="b5"><stop offset="0" stop-color="#2b2b2b" stop-opacity=".672"/><stop offset=".285" stop-opacity=".586"/><stop offset="1" stop-color="#333" stop-opacity="0"/></linearGradient><linearGradient gradientTransform="matrix(.05899 0 0 .1269 -3.634 -70.151)" gradientUnits="userSpaceOnUse" y2="616.055" x2="323.619" y1="568.657" x1="323.172" id="e5" xlink:href="#c5"/><linearGradient id="c5"><stop offset="0" stop-color="#e9d76e"/><stop offset="1" stop-color="#debf31"/></linearGradient><linearGradient y2="592.19" x2="275.033" y1="588.011" x1="609.954" gradientTransform="matrix(.05899 0 0 .1269 -35.634 -70.151)" gradientUnits="userSpaceOnUse" id="d5" xlink:href="#c5"/><linearGradient gradientTransform="matrix(1.1465 0 0 1.11386 4.242 -23.208)" gradientUnits="userSpaceOnUse" y2="26.334" x2="19.608" y1="48.667" x1="19.731" id="e6" xlink:href="#a6"/><linearGradient id="a6"><stop offset="0" stop-color="#6f6f6f" stop-opacity=".256"/><stop offset="1" stop-color="#262626" stop-opacity=".631"/></linearGradient><linearGradient gradientTransform="matrix(.816 0 0 .7024 -4.922 -.568)" xlink:href="#b6" id="f6" x1="31.99" y1="42.66" x2="19.329" y2="5.043" gradientUnits="userSpaceOnUse"/><linearGradient id="b6"><stop offset="0" stop-color="#6c9e3a"/><stop offset="1" stop-color="#9ac96b"/></linearGradient><linearGradient gradientTransform="translate(-10.77 .308) scale(.61538)" gradientUnits="userSpaceOnUse" y2="32.396" x2="57.03" y1="19.485" x1="56.871" id="d1" xlink:href="#a1"/><linearGradient id="c6"><stop offset="0" stop-color="#0b3208"/><stop offset="1" stop-color="#13780e" stop-opacity=".973"/></linearGradient><linearGradient id="b18"><stop stop-color="#fdde7f" offset="0"/><stop stop-color="#de7909" offset=".574"/><stop stop-color="#f6c300" offset="1"/></linearGradient><linearGradient id="d6"><stop offset="0" stop-color="#fff"/><stop offset="1" stop-color="#fff" stop-opacity="0"/></linearGradient><linearGradient id="a0"><stop stop-color="#ffc49c" offset="0"/><stop stop-color="#ff7315" offset="1"/></linearGradient><linearGradient gradientTransform="matrix(.75 0 0 .92307 -236.01 -257.414)" gradientUnits="userSpaceOnUse" y2="312.2" x2="335.763" y1="299.388" x1="335.513" id="g8" xlink:href="#a8"/><linearGradient id="a8"><stop offset="0" stop-color="#e9b96e"/><stop offset="1" stop-color="#bb741e"/></linearGradient><linearGradient gradientTransform="matrix(1.01958 0 0 1.01754 -326.556 -286.93)" gradientUnits="userSpaceOnUse" y2="293.883" x2="338.449" y1="285.454" x1="335.602" id="e8" xlink:href="#b8"/><linearGradient id="b8"><stop offset="0" stop-color="#6c6c6c"/><stop offset="1" stop-color="#020202"/></linearGradient><linearGradient gradientTransform="matrix(.80008 0 0 .91128 -251.837 -256.327)" gradientUnits="userSpaceOnUse" y2="281.53" x2="343.138" y1="302.518" x1="343.102" id="d8" xlink:href="#c8"/><linearGradient x1="366.69" y1="640.22" gradientTransform="matrix(.08726 0 0 .07349 303.647 265.409)" x2="366.437" gradientUnits="userSpaceOnUse" y2="338.231" id="c8"><stop offset="0" stop-color="#c9c9c9"/><stop offset="1" stop-color="#fff"/></linearGradient><linearGradient y2="338.231" x2="366.437" y1="640.22" x1="366.69" gradientTransform="matrix(.07999 0 0 .07697 -13.67 -18.267)" gradientUnits="userSpaceOnUse" id="f8" xlink:href="#c8"/><linearGradient id="a18"><stop stop-color="#0030f6" offset="0"/><stop stop-color="#00187b" offset=".579"/><stop stop-color="#002de7" offset="1"/></linearGradient><linearGradient id="a9"><stop offset="0" stop-color="#20bc18"/><stop offset="1" stop-color="#13780e"/></linearGradient><linearGradient y2="4.27" x2="18.402" y1="19.119" x1="18.431" gradientTransform="matrix(1.66516 0 0 1.2611 -12.965 -.29)" gradientUnits="userSpaceOnUse" id="b10" xlink:href="#a10"/><linearGradient id="a10"><stop offset="0" stop-color="#80a"/><stop offset="1" stop-color="#b746f0"/></linearGradient><linearGradient id="a11"><stop offset="0" stop-color="#24d51b"/><stop offset=".431" stop-color="#13780e"/><stop offset="1" stop-color="#1aa613"/></linearGradient><linearGradient id="a14"><stop offset="0" stop-color="#ccbc3e"/><stop offset="1" stop-color="#111211"/></linearGradient><linearGradient x1="543.1" y1="286.56" gradientTransform="matrix(.02512 .02178 -.07046 .06111 19.32 -6.605)" x2="419.88" gradientUnits="userSpaceOnUse" xlink:href="#a16" y2="286.56" id="b16"/><linearGradient id="a16"><stop offset="0"/><stop offset="1" stop-opacity="0"/></linearGradient><symbol id="logout" viewBox="0 0 32 32"><rect style="marker:none" width="24" height="30" x="6" y="1" rx=".006" ry=".005" color="#000" overflow="visible" fill="url(#e6)" fill-rule="evenodd"/><path style="marker:none" d="M6.532 30.371L6.501 1.578l15.999 2.4v22.794z" color="#000" overflow="visible" fill="url(#f6)" fill-rule="evenodd" stroke="url(#g6)" stroke-miterlimit="10"/><path d="M1.533 11.568v8.769H7.55v4.254L18.5 16.1 7.55 7.316v4.255z" style="marker:none" color="#000" overflow="visible" fill="#c00" fill-rule="evenodd" stroke="#a40000" stroke-width="1.067" stroke-linecap="round" stroke-linejoin="round" stroke-miterlimit="10"/><path d="M8.102 8.424l.03 3.602L2 12l.109 3.913 15.253.024z" style="marker:none" color="#000" overflow="visible" opacity=".508" fill="url(#h6)" fill-rule="evenodd"/></symbol><symbol id="main" viewBox="0 0 32 32"><g color="#000"><path d="M25 1.063V9.5L21 6c.004-2.2-.005-2.737.004-4.937z" fill="url(#d8)"/><path d="M16.041 2.136a1.957 1.957 0 00-1.29.479L1.823 13.78c.065 2.752.664 3.356 1.653 5.24L16.03 8.29l12.488 10.686c1.452-2.023 1.632-2.688 1.711-5.196L17.311 2.615a1.958 1.958 0 00-1.27-.479z" style="line-height:normal;font-variant-ligatures:normal;font-variant-position:normal;font-variant-caps:normal;font-variant-numeric:normal;font-variant-alternates:normal;font-feature-settings:normal;text-indent:0;text-align:start;text-decoration-line:none;text-decoration-style:solid;text-decoration-color:#000;text-transform:none;text-orientation:mixed;white-space:normal;shape-padding:0;isolation:auto;mix-blend-mode:normal;solid-color:#000;solid-opacity:1" font-weight="400" font-family="sans-serif" overflow="visible" fill="url(#e8)" fill-rule="evenodd" stroke="#b7b7b7" stroke-linecap="round" stroke-linejoin="round"/><path d="M27 17.037L16 7.622 5 17.115v12.47c.047.923.497 1.382 1.375 1.415h19.25c.899-.012 1.376-.486 1.375-1.414V17.037z" fill="url(#f8)"/><path d="M19 31h-6V19.788c0-.11.015-.213.041-.307a.892.892 0 01.11-.25.568.568 0 01.166-.168.372.372 0 01.203-.063h4.96a.37.37 0 01.202.063.54.54 0 01.166.167.88.88 0 01.11.25c.027.095.042.198.042.308z" fill="url(#g8)"/><path d="M14.408 20c-.27.022-.38.326-.403.558-.011.608-.005 3.732-.005 3.732h4c-.001-1.233.003-2.466-.002-3.699-.017-.233-.11-.525-.365-.588z" fill="url(#h8)"/></g></symbol><symbol id="ltr" viewBox="0 0 32 32"><g fill="none" stroke-linecap="round" stroke-linejoin="round"><path d="M29.5 16a13.5 13.5 0 01-13.486 13.5A13.5 13.5 0 012.5 16.028 13.5 13.5 0 0115.958 2.5 13.5 13.5 0 0129.5 15.944" stroke="#fff"/><path d="M12.529 8.522L22.5 16l-9.971 7.479" stroke="#fffaf0" stroke-width="5"/></g></symbol><symbol id="cmsmshelp" viewBox="0 0 32 32"><path transform="translate(0 -1090.52)" stroke="#d85600" fill="url(#b0)" d="M30.5 1106.52a14.5 14.5 0 01-14.498 14.5A14.5 14.5 0 011.5 1106.524a14.5 14.5 0 0114.493-14.504 14.5 14.5 0 0114.507 14.49"/><g style="line-height:150%;-inkscape-font-specification:'Bitstream Vera Sans, Bold';font-variant-ligatures:normal;font-variant-caps:normal;font-variant-numeric:normal;font-feature-settings:normal;text-align:start"><path fill="#fff" word-spacing="0" letter-spacing="0" font-family="Bitstream Vera Sans" font-size="30.502" font-weight="700" aria-label="?" style="-inkscape-font-specification:'Bitstream Vera Sans, Bold';font-variant-ligatures:normal;font-variant-caps:normal;font-variant-numeric:normal;font-feature-settings:normal;text-align:start" d="M13 20c-.044-1.196.295-2.754 1.022-3.712.909-1.38 2.27-2.291 3.215-3.632.701-.93.821-2.556-.161-3.312-1.139-.833-2.63-.503-3.848-.076-.971.357-2.369.805-3.228 1.413V6.492c2.782-1.089 6.365-1.943 9.243-.947 1.596.53 2.957 1.986 3.213 3.83.33 1.803-.06 3.777-1.22 5.146-.9 1.28-2.287 2.08-3.034 3.496-.255.528-.166 1.408-.17 1.983zm0 2h5.032v5H13z"/></g></symbol><symbol id="myaccount" viewBox="0 0 32 32"><path d="M30.5 16a14.5 14.5 0 01-14.498 14.5A14.5 14.5 0 011.5 16.005 14.5 14.5 0 0115.993 1.5 14.5 14.5 0 0130.5 15.99" fill="#fff" stroke="#0f630b"/><path d="M6.044 1112.352c-.454-2.646 2.653-5.926 6.526-6.565 1.537-.17.513-1.397 0-2.06-1.194-1.203-1.694-3.659-.935-5.291.402-.863 1.065-2.96 4.247-2.916 3.029.043 3.918 2.14 4.247 3.025.63 1.693.276 3.828-.672 5.181-.556.728-1.4 1.808 0 2.06 3.756.864 6.804 3.905 6.525 6.566-.155 1.485-2.862 2.746-4.857 2.927-3.467.315-7.131.327-10.45 0-1.836-.18-4.4-1.583-4.63-2.927z" fill="url(#b9)" transform="translate(0 -1090.52)"/></symbol><symbol id="content" viewBox="0 0 32 32"><rect ry="2.555" rx="2.468" y="7.146" x="1.5" height="22.354" width="29" fill="url(#c1)" stroke="#b7b7b7" stroke-linejoin="round"/><path d="M4.285 2.469h23.43c1.543 0 2.785.845 2.785 3.137V9.5h-29V5.606c0-2.292 1.242-3.137 2.785-3.137z" opacity=".993" fill="#37c84d" stroke="#00aa53" stroke-linejoin="round"/><rect ry="1.538" rx="1.538" y="12" x="20" height="8" width="8" opacity=".993" fill="url(#d1)"/><path d="M5.014 26h21.9" fill="none" stroke="#999" stroke-width="2" stroke-linecap="round"/><path d="M5.014 21.667h9.972" fill="none" stroke="#a8a8a8" stroke-width="2" stroke-linecap="round"/><path d="M5.014 17.333h9.972" fill="none" stroke="#b7b7b7" stroke-width="2" stroke-linecap="round"/><path d="M5.014 13h9.972" fill="none" stroke="#c1c1c1" stroke-width="2" stroke-linecap="round"/><path d="M6.809 8l-4-1.957 4-2.043zm2 0l4-1.957-4-2.043z" fill="#e6e6e6" fill-rule="evenodd"/></symbol><symbol id="ecommerce" viewBox="0 0 32 32"><g transform="translate(0 -1090.52)"><path d="M17.84 1103.268h11.62l-5.81-9.453-5.81 9.453z" fill="#008033" fill-rule="evenodd"/><rect rx=".506" width="7.764" height="7.556" x="-67.023" y="1100.228" ry=".506" transform="rotate(-4.337) skewX(-.163)" fill="#d400aa" fill-rule="evenodd"/><path d="M23.166 1108.141a3.01 2.99-45.288 01.026-4.243 3.01 2.99-45.288 014.242-.002 3.01 2.99-45.288 01-.026 4.243 3.01 2.99-45.288 01-4.242.002" fill="#ffb800" fill-rule="evenodd"/><path style="text-indent:0;text-transform:none" d="M6.596 1092.33a.851.851 0 01.646.535l2.13 5.65h20.801c.24.01.464.117.62.3.155.183.23.458.2.7l-1.148 10.07a.861.861 0 01-.776.759l-14.829 1.2-3.193 2.546c-.567.313-.818 1.776.786 1.655h.059l17.686.053h.003c.464 0 .856.394.854.867a.865.865 0 01-.86.86H10.683c-.731-.086-1.466-.868-1.641-1.874a.285.285 0 01-.013-.032c-.267-1.085.206-2.265 1.182-3.032l2.124-1.71-6.495-16.926-4.12-.714h-.004a.864.864 0 11.147-1.717zm4.6 10.556h1.562v-3.068H10zm2.158-3.068v3.067h2.882v-3.067zm3.478 0v3.067h2.882v-3.067zm3.478 3.067h2.883v-3.067H20.31zm3.479-3.067v3.067h2.882v-3.067zm3.478 3.067h2.113l.313-3.067h-2.426zm2.041.604h-2.041v2.743h1.716l.325-2.743zm-2.637 0h-2.882v2.743h2.882zm-3.478 0H20.31v2.743h2.883zm-3.479 0h-2.882v2.743h2.882zm-3.478 0h-2.882v2.743h2.882zm-3.478 0h-1.332l1.053 2.743h.279zm16.152 3.347h-1.643v1.97l1.424-.116.22-1.854zm-2.24 0h-2.882v2.25l2.883-.233zm-3.478 0H20.31v2.531l2.882-.23zm-3.478 0h-2.882v2.815l2.882-.234zm-3.478 0h-2.882v1.67l.547 1.413 2.335-.22v-2.863z" color="#000" fill="#858585"/><path d="M14 1119.52a2 2 0 01-1.998 2 2 2 0 01-2.002-1.996 2 2 0 011.994-2.005 2 2 0 012.006 1.992m16 .009a2 2 0 01-1.998 2 2 2 0 01-2.002-1.996 2 2 0 011.994-2.005 2 2 0 012.006 1.992" fill-rule="evenodd"/></g></symbol><symbol id="mybookmarks" viewBox="0 0 32 32"><path d="M6.5 5.5c.12-2.353.977-3.922 3.52-3.965L22.652 1.5c1.461 0 1.846 1.076 1.846 1.967L24.5 29.87 17 23.2l-7.533 6.685L9.541 5.5z" fill="url(#b10)" fill-rule="evenodd" stroke="#660080"/></symbol><symbol id="support" viewBox="0 0 32 32"><path d="M16 1C7.72 1 1 7.72 1 16c0 8.28 6.72 15 15 15 8.28 0 15-6.72 15-15 0-8.28-6.72-15-15-15zm-.111 8a7 7 0 017.064 6.184l.002.027a7 7 0 01-6.16 7.744 7 7 0 01-7.748-6.152 7 7 0 016.142-7.756 7 7 0 01.7-.047z" fill="#e20a08"/><path transform="matrix(.05904 0 0 .05903 .052 .124)" d="M270.16 71.768c-108.84 0-197.19 88.352-197.19 197.19.004 108.83 88.35 197.15 197.19 197.15s197.16-88.32 197.16-197.15c0-108.84-88.32-197.19-197.16-197.19zm0 29.502c92.57 0 167.69 75.12 167.69 167.69 0 92.56-75.12 167.68-167.69 167.68-92.56 0-167.72-75.12-167.72-167.68 0-92.57 75.16-167.69 167.72-167.69z" fill="#f55" filter="url(#a17)"/><path d="M22.003 21.651c-.473.337-.927.696-1.358 1.076l4.729 4.997a9.63 9.63 0 011.356-1.076zM9.305 21.27l-4.827 4.66c.441.354.846.75 1.214 1.175l4.83-4.66a16.13 16.13 0 00-1.217-1.175z" fill="#ececec"/><path d="M22.647 10.846l5.002-4.47a9.418 9.418 0 01-1.168-1.222l-5.005 4.472c.368.426.759.833 1.17 1.22zm-13.401.128c.474-.336.927-.696 1.36-1.076L5.875 4.9A9.63 9.63 0 014.52 5.977z" fill="#f2f2f2"/></symbol><symbol id="files" viewBox="0 0 32 32"><g stroke="#666" stroke-linejoin="round"><rect ry=".005" rx="0" y="1.5" x="1.5" height="21" width="19" fill="url(#b4)"/><rect ry=".005" rx="0" y="5.5" x="6.5" height="21" width="19" fill="url(#c4)"/><path d="M11.507 9.5h18.988c.004 0 .005.002.005.004V24L24 30.5H11.506c-.01-6.99-.004-13.998-.004-20.994 0-.004.002-.005.004-.005z" fill="url(#d4)"/><path d="M23.8 23.71l6.707.296-6.343 6.494-.363-6.79z" fill="#c1c1c1" fill-rule="evenodd"/></g></symbol><symbol id="myprefs" viewBox="0 0 32 32"><path d="M1.565 25.906c-.658-3.836 3.847-8.592 9.462-9.519 2.228-.246.744-2.025 0-2.987-1.731-1.744-2.456-5.305-1.355-7.672.582-1.251 1.544-4.292 6.158-4.227 4.39.062 5.68 3.103 6.157 4.386.913 2.455.4 5.55-.975 7.513-.805 1.055-2.03 2.621 0 2.987 5.447 1.251 9.866 5.661 9.462 9.52-.226 2.153-4.15 3.982-7.042 4.244-5.028.456-10.34.474-15.151 0-2.663-.262-6.381-2.296-6.716-4.245z" fill="url(#b11)" stroke="#b7b7b7"/></symbol><symbol id="notice" viewBox="0 0 32 32"><path d="M3.157 5.738c-2.15 1.868-2.084 4.503-.51 8.543.994 2.552 1.042 2.905.685 5.192-.21 1.349-.506 2.946-.654 3.55-.529 2.138.986 3.501 3.988 3.59 5.608.166 14.034-3.92 15.651-7.59.477-1.081-.051-2.538-1.178-3.245-.534-.336-1.87-1.29-2.969-2.121-1.881-1.423-2.077-1.688-3.36-4.564-1.82-4.082-3.562-5.828-6.694-5.447-.348-.806-1.765-2.823-3.834-1.94-1.833.783-1.672 2.991-1.125 4.032zm10.45 21.137c-1.485.736-3.613 1.173-5.924 1.163.83 2.288 2.806 2.642 3.932 2.391.921-.205 2.428-.934 1.992-3.554z" fill="#e20000" stroke="#770c0c"/><path d="M6.422 6.731c1.423-.385 2.862-.775 4.19.662 1.328 1.436 2.54 4.68 3.98 6.705 1.44 2.024 3.101 2.818 4.762 3.612" fill="none" stroke="#ff7b7b" stroke-width="1.5" stroke-linecap="round" stroke-linejoin="round"/></symbol><symbol id="rtl" viewBox="0 0 32 32"><g fill="none" stroke-linecap="round" stroke-linejoin="round"><path d="M29.5 16a13.5 13.5 0 01-13.486 13.5A13.5 13.5 0 012.5 16.028 13.5 13.5 0 0115.958 2.5 13.5 13.5 0 0129.5 15.944" stroke="#fff"/><path d="M19.971 8.522L10 16l9.971 7.479" stroke="#fffaf0" stroke-width="5"/></g></symbol><symbol id="siteadmin" viewBox="0 0 32 32"><path d="M10.523 4.758l-5.328 5.659-.445 1.552.85.43s.757-1.09.957-1.29c.316.037 1.355.364 1.355.364s1.19.36 1.807 1.199L21.273 26.68c.607.655 1.762 2.283 2.754 2.672.83.324 1.791.049 2.338-.426.564-.49.98-1.358.727-2.28-.187-.683-2.233-2.744-2.233-2.744S12.891 10.651 12.43 10.174c-.46-.477-.798-1.164-1.001-1.78-.266-.983-.006-2.423-.905-3.636zM24.75 26.625a.5.5 0 01.502.498v.002a.5.5 0 11-.502-.5z" fill="#a4a4a4" stroke="#717171" transform="matrix(.95342 -.10175 .10122 .96146 -1.1 3.688)"/><path d="M5.08 4.566a6.992 6.992 0 00-2.46.94l3.386 1.417.433 1.712-.428 1.071-1.594.474-3.014-1.249c-.481 1.27 1.27 4.927 6.059 4.486 0 0 2.389-5.617 2.646-6.134-.44-.881-.816-1.421-2.408-2.318-.864-.487-1.794-.532-2.62-.399z" fill="#ccc"/><path d="M4.28 14.025C3.054 13.83.333 10.88 1.15 8.815l.253.116c-.277 1.175.408 2.87 3.064 4.19z" fill="#717171"/><path d="M13.6 3.081l.192.04c2.225-.721 7.22 2.119 6.107 4.65-.282.397-.234 1.103.106 1.547l-6.246 6.088c-.35-.341-1.128-.334-1.485 0L1.946 25.064c-.942.88-.202 1.629.196 2.023l1.853 1.806c.405.392 1.475.922 2.235.137l9.747-10.01c.34-.347.342-1.095 0-1.439 0 0 .003-.004 0-.004l6.27-6.107c.662.581 1.288.631 1.88.473 1.146-.305 1.786.787 2.47 1.585l-.31.296c-.457.452-.415 1.212.099 1.712.513.5 1.296.542 1.754.096l2.05-1.994c.458-.451.415-1.212-.101-1.71-.463-.453-1.136-.512-1.604-.188-1.404-1.536-.667-1.766-2.52-3.765l-3.47-3.456c-2.5-2.389-5.748-2.386-8.894-1.437z" fill="#a4a4a4" stroke="#717171" stroke-linejoin="round"/><path d="M13.763 15.692c-.344-.338-1.108-.33-1.46 0L2.283 25.07c-.751.55-.64 1.199-.245 1.59l2.32 2.264c.399.389 1.124.59 1.871-.188l9.505-9.791c.334-.345.337-1.044 0-1.384z" fill="#e0963d"/><path class="low-shade" d="M2.367 26.894l1.918 2.018c.405.35 1.072.698 1.832.003l9.5-9.869c.34-.312.467-1.183.117-1.484l-1.644-1.62z" opacity=".5" fill="url(#b16)"/></symbol><symbol id="extensions" viewBox="0 0 32 32"><g stroke="#b7b7b7" stroke-linecap="round" stroke-linejoin="round"><path d="M22.5 4.5v8.96c-.848-.956-2.22-1.435-3.495-1.28-2.124.262-3.633 2.177-3.377 4.282.257 2.105 2.183 3.608 4.308 3.361.953-.112 1.931-.57 2.564-1.283v8.96h8v-23z" fill="#0030f6"/><path d="M1.5 4.5v23h12v-8.96a3.648 3.648 0 01-2.34 1.283C9.14 20.07 6.94 18.368 6.9 16c-.037-2.17 1.356-3.557 3.375-3.82a3.613 3.613 0 013.225 1.28V4.5z" fill="#ac000c"/></g></symbol><symbol id="services" viewBox="0 0 32 32"><path opacity=".993" fill="#f6c300" paint-order="markers stroke fill" d="M20 7h10v8H20z"/><g stroke-width="1.002"><path d="M7.55 291.69c-2.22 0-4.684 1.447-4.273 5.196.222 2.767 2.228 3.42 1.587 5.813-2.314.295-3.457.475-3.614.957v15.627h12.865l.087-9.071 2.09 1.95c1.243 1.431 1.693 1.66 2.467 1.66.83 0 1.23-.356 3.227-2.856 1.248-1.56.723-.93 2.343-2.932.942-.405 1.821-.213 2.731-.328 2.173-.274 2.686-2.139-1.104-2.042l-3.987.048-1.434 1.818c-.835 1.046-1.573 1.9-1.638 1.9-.064 0-1.056-1.237-2.202-2.749s-2.31-2.826-2.586-2.923c-.433-.435-2.363-.802-4.333-.942-.577-2.599 1.967-3.435 2.048-5.93.223-3.575-2.053-5.196-4.273-5.196z" fill="url(#b14)" stroke="#b7b7b7" stroke-width=".501" transform="matrix(1 0 0 .9966 0 -287.45)"/><path d="M26.711 18.996c2.04-.06 2.931-1.651-.65-1.6l-3.926.058 2.039 1.897c1.139-.48 2.164-.302 2.537-.355z" fill="#b7a730"/></g></symbol><symbol id="site" viewBox="0 0 32 32"><path d="M19.6 30.551c-6.001.648-13.723-2.94-16.265-8.478C.792 16.536 2.015 9.976 6.377 5.755A13.984 13.984 0 0122.63 3.403c5.357 2.815 8.786 10.318 7.881 16.354l-12.512-1.77z" fill="#2b2be5" fill-rule="evenodd"/><path style="line-height:normal;font-variant-ligatures:normal;font-variant-position:normal;font-variant-caps:normal;font-variant-numeric:normal;font-variant-alternates:normal;font-feature-settings:normal;text-indent:0;text-align:start;text-decoration-line:none;text-decoration-style:solid;text-decoration-color:#000;text-transform:none;text-orientation:mixed;white-space:normal;shape-padding:0;isolation:auto;mix-blend-mode:normal;solid-color:#000;solid-opacity:1" d="M15.78 1.003c-.013 0-.03.005-.044.006l-.063-.002a15.77 15.77 0 00-1.525.11C5.96 2.138.119 9.612 1.109 17.804c.925 7.65 7.485 13.266 15.023 13.194l.021.003a15.226 15.226 0 001.592-.1c.635-.074 1.25-.2 1.856-.349l-.39-3.063c-.583.571-1.2.998-1.831 1.246-.126.05-.252.078-.379.114v-5.845h1.637l-.254-2h-1.383V17.05h5.973a23.383 23.383 0 01-.136 1.63l1.982.28c.073-.627.13-1.262.156-1.91h3.981a13.033 13.033 0 01-.433 2.428l1.986.28c.45-1.731.61-3.565.397-5.445l-.028-.218C29.96 6.934 24.107 1.59 17.173 1.049c-.352-.03-.71-.025-1.066-.03h-.036c-.097-.002-.193-.019-.29-.019zm1.221 2.13c.048.013.097.019.145.031 1.042.327 2.037 1.12 2.953 2.364.55.746 1.048 1.65 1.471 2.68.105.254.198.523.293.793h-4.862V3.133zm-2 .019V9h-4.865c.02-.06.038-.126.06-.185.13-.356.27-.7.416-1.03 1.128-2.525 2.73-4.162 4.39-4.633zm-4.676 1.16a14.27 14.27 0 00-1.54 2.659A18.672 18.672 0 008.033 9h-2.99c1.278-2 3.1-3.632 5.282-4.689zm11.366.007c.198.097.4.187.592.293a13.016 13.016 0 014.676 4.387h-2.982c-.037-.116-.066-.24-.104-.354-.55-1.653-1.283-3.108-2.164-4.305-.006-.007-.012-.012-.018-.024zm-17.687 6.68h3.508a23.926 23.926 0 00-.484 3.803c-.004.081-.001.164-.004.245H3.04c.102-1.418.436-2.779.965-4.048zm5.553 0h5.444v4.048H9.026c.002-.05 0-.101.002-.151.064-1.363.248-2.675.53-3.897zm7.444 0h5.436c.238 1.032.415 2.127.5 3.29.003.036.026.57.034.758H17v-4.048zm7.493 0h3.51a13.05 13.05 0 01.89 3.346c.005.03.045.53.057.702h-3.978c-.009-.231-.037-.87-.04-.905A24.22 24.22 0 0024.495 11zM3.06 17.047h3.975c.01.233.013.464.029.699.069.996.193 1.958.367 2.88.024.127.058.248.084.374H4.01a13.027 13.027 0 01-.914-3.44c-.02-.172-.023-.342-.037-.514zm5.975 0H15V21H9.563c-.057-.248-.117-.492-.166-.748a22.21 22.21 0 01-.34-2.643c-.012-.188-.015-.375-.023-.562zM5.057 23h2.969c.55 1.764 1.298 3.32 2.217 4.587.026.036.055.068.082.103A12.998 12.998 0 015.057 23zm5.084 0h4.86v5.862c-.063-.018-.127-.024-.19-.042-1.042-.341-2.037-1.148-2.949-2.405-.667-.92-1.252-2.081-1.72-3.412z" color="#000" font-weight="400" font-family="sans-serif" overflow="visible" fill="#6ca7d4" paint-order="markers stroke fill"/><path d="M21 21.002L22.275 31l3.077-3.03 1.933 1.933c1.609 1.359 4.227-.453 2.694-2.685l-1.914-1.92L31 22.404z" fill="#e72222" paint-order="markers stroke fill"/></symbol><symbol id="layout" viewBox="0 0 32 32"><path transform="rotate(-90)" fill="url(#d5)" d="M-31 2h30v6h-30z"/><path d="M2 4.637v.659h3v-.66zM2 2v.66h3V2zm0 5.272v.66h3v-.66zm0 2.637v.659h3v-.66zm0 2.635v.66h3v-.66zm0 2.636v.66h3v-.66zm0 2.636v.66h3v-.66zm0 2.637v.659h3v-.66zm0 2.635v.66h3v-.66zm0 2.637v.659h3v-.66zm0 2.635v.66h3v-.66z" fill="#2d2000"/><path fill="url(#e5)" d="M1 2h30v6H1z"/><g stroke-width=".85" fill-rule="evenodd"><g fill="#d53828" stroke-width="15.974"><path d="M26.253 9.838l2.058 2.166-13.921 15.31-2.075-2.149z"/><path d="M13.712 23.635l1.81 1.89c-.698.875-1.085 1.424-1.02 1.491.002.003.012-.002.015-.001L15.7 25.71l.076.08-1.396 1.53-2.792 1.646-.734-.765 1.462-3.036 1.397-1.53z"/></g><path d="M11.445 28.352l-.592-.15-.76 1.476c-.121.195-.06.285.117.153l1.377-.865z" fill="#6d1c02"/><path d="M26.248 9.844l.516.54L12.245 26.35l-.408-.425.484-.765 1.166-1.282 12.76-14.033z" fill="#fff" fill-opacity=".525"/><path d="M27.799 11.463l.516.539L15.95 25.594l-1.072 1.18-.036.029-.797.6-.383-.399L27.8 11.464z" fill-opacity=".416"/><path d="M12.341 25.138c-.131.337-.002.63.548.504-.086.971.263 1.273 1.023 1.088-.072.675.07.75.486.573l-2.811 1.663c.028-.17-.121-.366-.253-.504-.132-.137-.344-.285-.481-.26l1.488-3.064z" fill="#fd5"/><path d="M221.561 296.982c.548-.464.626-1.275.175-1.81-.452-.536-1.263-.594-1.81-.13l.817.97z" fill="url(#f5)" transform="matrix(1.13273 -.1179 .1104 1.20972 -255.443 -321.141)"/><path d="M206.545 306.379c-.141.264-.052.515.44.46-.154.787.128 1.064.807.977-.117.546 0 .62.38.51l-2.592 1.123c.038-.136-.076-.31-.18-.434-.105-.124-.28-.263-.4-.255l1.545-2.381z" fill="url(#g5)" transform="matrix(1.13273 -.1179 .1104 1.20972 -255.443 -321.141)"/></g><path fill="#2d2000" d="M18.413 5h.684V2h-.684z"/><path d="M4.736 5h.684V2h-.684zM2 5h.684V2H2zm5.471 0h.684V2h-.684zm2.736 0h.684V2h-.684zm2.735 0h.684V2h-.684zm2.736 0h.684V2h-.684zm2.735 0h.684V2h-.684zm2.736 0h.684V2h-.684zm2.736 0h.684V2h-.684zm2.735 0h.684V2h-.684zm2.736 0h.684V2h-.684z" fill="#2d2000"/></symbol><symbol id="usersgroups" viewBox="0 0 32 32"><path d="M1.959 21.857c-.522-3.043 3.05-6.815 7.504-7.55 1.767-.196.59-1.606 0-2.37C8.09 10.556 7.515 7.73 8.388 5.854c.462-.992 1.224-3.404 4.884-3.352 3.482.049 4.505 2.46 4.883 3.478v19.244H7.285c-2.112-.208-5.061-1.82-5.326-3.366z" fill="url(#c18)" stroke="#b7b7b7"/><path stroke="#b7b7b7" fill="url(#d18)" d="M7.145 25.857c-.522-3.043 3.05-6.815 7.504-7.55 1.768-.196.59-1.606 0-2.37-1.373-1.382-1.948-4.207-1.075-6.084.462-.992 1.225-3.404 4.884-3.352 3.483.049 4.505 2.46 4.884 3.478.724 1.947.316 4.402-.774 5.959-.638.836-1.61 2.079 0 2.369 4.32.992 7.825 4.49 7.504 7.55-.179 1.708-3.29 3.158-5.585 3.366-3.987.362-8.2.376-12.016 0-2.112-.208-5.06-1.82-5.326-3.366z"/></symbol><radialGradient gradientUnits="userSpaceOnUse" gradientTransform="matrix(-.54714 .06051 -.12907 -1.17643 13.214 300.365)" r="14" fy="5.691" fx="9.01" cy="5.691" cx="9.01" id="b14" xlink:href="#a14"/><radialGradient gradientTransform="matrix(-.75148 .0495 -.10739 -1.6306 28.19 12.403)" gradientUnits="userSpaceOnUse" r="15" fy="6.027" fx="15.523" cy="6.027" cx="15.523" id="b11" xlink:href="#a11"/><radialGradient xlink:href="#a18" id="d18" gradientUnits="userSpaceOnUse" gradientTransform="matrix(-.59626 .0349 -.07957 -1.3598 28.232 15.616)" cx="15.523" cy="6.027" fx="15.523" fy="6.027" r="15"/><radialGradient xlink:href="#a9" id="b9" cx="15.523" cy="6.027" fx="15.523" fy="6.027" r="15" gradientUnits="userSpaceOnUse" gradientTransform="matrix(-.59107 -.00259 -.01013 -1.10949 25.152 1103.518)"/><radialGradient xlink:href="#b18" id="c18" cx="15.523" cy="6.027" fx="15.523" fy="6.027" r="15" gradientUnits="userSpaceOnUse" gradientTransform="matrix(-.59667 .02702 -.05918 -1.30679 22.929 11.419)"/><radialGradient r="17.171" fy="2.897" fx="19.701" cy="2.897" cx="19.701" gradientTransform="matrix(1.27512 0 0 .60062 -15.965 7.942)" gradientUnits="userSpaceOnUse" id="h6" xlink:href="#d6"/><radialGradient xlink:href="#a0" id="b0" gradientUnits="userSpaceOnUse" gradientTransform="matrix(-1.49063 -.05396 .03755 -1.03736 10.632 1106.466)" cx="-3.841" cy="10.14" fx="-3.841" fy="10.14" r="13"/><filter id="a17"><feGaussianBlur stdDeviation="12.362"/></filter></defs></svg>