<svg xmlns="http://www.w3.org/2000/svg" xmlns:xlink="http://www.w3.org/1999/xlink" viewBox="0 0 48 48"><defs><linearGradient id="a"><stop offset="0" stop-color="#c18686"/><stop offset=".907" stop-color="#a02c2c"/><stop offset="1" stop-color="#b26868"/></linearGradient><linearGradient gradientTransform="translate(-.21 -1)" gradientUnits="userSpaceOnUse" y2="21.737" x2="25.163" y1="1.733" x1="24.739" id="b" xlink:href="#a"/><linearGradient y2="21.737" x2="25.163" y1="1.733" x1="24.739" gradientTransform="translate(-15.21 26)" gradientUnits="userSpaceOnUse" id="c" xlink:href="#a"/><linearGradient y2="21.737" x2="25.163" y1="1.733" x1="24.739" gradientTransform="translate(13.79 26)" gradientUnits="userSpaceOnUse" id="d" xlink:href="#a"/></defs><path d="M26.798 39.66a13.999 13.999 0 0 1-5.557.115" opacity=".993" fill="none" stroke="#a02c2c" stroke-width="2" stroke-linecap="square" stroke-linejoin="round" paint-order="markers stroke fill"/><path d="M24.502 1L16 4.54v11.683L24.5 20l8.5-3.806V4.452zm6.42 3.892l-6.42 2.628-6.448-2.566 6.448-2.687zm-13.86.908l6.907 2.748v9.918l-6.907-3.069zm7.971 12.666V8.543l6.907-2.8v9.654z" fill="url(#b)"/><path d="M36.316 16.838a13.999 13.999 0 0 1 3.385 8.245" opacity=".993" fill="none" stroke="#a02c2c" stroke-width="2" stroke-linecap="square" stroke-linejoin="round" paint-order="markers stroke fill"/><path d="M8.748 25.36a13.999 13.999 0 0 1 3.88-9.047" opacity=".993" fill="none" stroke="#a02c2c" stroke-width="2" stroke-linecap="square" stroke-linejoin="round" paint-order="markers stroke fill"/><path d="M9.502 28L1 31.54v11.683L9.5 47l8.5-3.806V31.452zm6.42 3.892l-6.42 2.628-6.448-2.566 6.448-2.687zm-13.86.908l6.907 2.748v9.918l-6.907-3.069zm7.971 12.666v-9.923l6.907-2.8v9.654z" fill="url(#c)"/><path d="M38.502 28L30 31.54v11.683L38.5 47l8.5-3.806V31.452zm6.42 3.892l-6.42 2.628-6.448-2.566 6.448-2.687zm-13.86.908l6.907 2.748v9.918l-6.907-3.069zm7.971 12.666v-9.923l6.907-2.8v9.654z" fill="url(#d)"/></svg>