<svg xmlns="http://www.w3.org/2000/svg" height="48" width="48"><rect ry="2.5" rx="2.5" y="4.5" x="6.5" height="11" width="11" opacity=".993" fill="#79c500" stroke="#a00" stroke-linejoin="round"/><rect width="11" height="11" x="34.5" y="4.5" rx="2.5" ry="2.5" opacity=".993" fill="#3b4ed9" stroke="#a00" stroke-linejoin="round"/><rect ry="2.5" rx="2.5" y="4.5" x="20.5" height="11" width="11" opacity=".993" fill="#ff9232" stroke="#a00" stroke-linejoin="round"/><path d="M23 18.5c-.654 0-1.243.255-1.688.664L5.137 35.346A2.481 2.481 0 004.5 37v6c0 1.385 1.115 2.5 2.5 2.5h6c.639 0 1.213-.245 1.654-.637l16.184-16.175A2.485 2.485 0 0031.5 27v-6c0-1.385-1.115-2.5-2.5-2.5z" opacity=".993" fill="#eb3117" stroke="#a00" stroke-linejoin="round"/><rect width="11" height="11" x="34.5" y="18.5" rx="2.5" ry="2.5" opacity=".993" fill="#ffd61f" stroke="#a00" stroke-linejoin="round"/><rect ry="2.5" rx="2.5" y="32.5" x="34.5" height="11" width="11" opacity=".993" fill="#b819ff" stroke="#a00" stroke-linejoin="round"/></svg>