<svg xmlns="http://www.w3.org/2000/svg" height="48" width="48"><g fill-rule="evenodd" stroke="#4888c8"><path d="M22.136 22.178c-2.425 8.405-4.947 16.867-7.424 25.31l4 .025c2.069-7.05 3.231-11.931 5.288-18.989 2.057 7.058 3.22 11.938 5.288 18.989l4-.026c-2.477-8.442-5-16.904-7.424-25.31L24 22.183z" style="line-height:normal;font-variant-ligatures:normal;font-variant-position:normal;font-variant-caps:normal;font-variant-numeric:normal;font-variant-alternates:normal;font-feature-settings:normal;text-indent:0;text-align:start;text-decoration-line:none;text-decoration-style:solid;text-decoration-color:#000;text-transform:none;text-orientation:mixed;white-space:normal;shape-padding:0;isolation:auto;mix-blend-mode:normal;solid-color:#000;solid-opacity:1" color="#000" font-weight="400" font-family="sans-serif" overflow="visible" fill="#bed5ec"/><path d="M28.472 18.199a4.5 4.5 0 0 1-3.96 4.977 4.5 4.5 0 0 1-4.983-3.954 4.5 4.5 0 0 1 3.95-4.986 4.5 4.5 0 0 1 4.99 3.945" fill="#bed5ec"/><path d="M8.104 2.813a22.503 22.498 0 0 0-6.459 18.473A22.503 22.498 0 0 0 8.71 35.2l2.78-2.78a18.59 18.585 0 0 1-5.956-11.583 18.59 18.585 0 0 1 5.321-15.274zm31.792 0l-2.75 2.75a18.59 18.585 0 0 1 5.317 10.973l.008.076a18.59 18.585 0 0 1-5.96 15.809l2.768 2.767a22.503 22.498 0 0 0 7.081-19.017l-.01-.09a22.503 22.498 0 0 0-6.454-13.268z" fill="#dde8f3"/><path d="M14.46 9.169a13.497 13.497 0 0 0-3.873 11.084 13.498 13.498 0 0 0 4.499 8.572l2.95-2.95a9.642 9.642 0 0 1-3.275-6.177 9.64 9.64 0 0 1 2.544-7.685zm16.582 2.496a9.641 9.641 0 0 1 2.878 5.8l.004.04a9.641 9.641 0 0 1-3.65 8.681l2.648 2.647a13.498 13.498 0 0 0 4.493-11.65l-.006-.053a13.498 13.498 0 0 0-3.872-7.96z" fill="#99bde1"/></g></svg>