<svg xmlns="http://www.w3.org/2000/svg" xmlns:xlink="http://www.w3.org/1999/xlink" width="48" height="48"><defs><linearGradient id="b"><stop offset="0" stop-color="#787878"/><stop offset="1" stop-color="#d0d0d0"/></linearGradient><linearGradient id="a"><stop offset="0" stop-color="#919191"/><stop offset=".202" stop-color="#e9e9e9"/><stop offset=".236" stop-color="#f3f3f3"/><stop offset=".299" stop-color="#e6e6e6"/><stop offset="1" stop-color="#f8f8f8"/></linearGradient><linearGradient xlink:href="#a" id="c" gradientTransform="matrix(1.40058 0 0 .90149 -2.858 -10.2)" x1="17.828" y1="46.606" x2="17.809" y2="17.641" gradientUnits="userSpaceOnUse"/><linearGradient xlink:href="#b" id="d" gradientTransform="matrix(1.15696 0 0 .96241 -1.504 -6.915)" x1="12.745" y1="38.134" x2="12.728" y2="25.54" gradientUnits="userSpaceOnUse"/></defs><path d="M1.03 26.702c-.51 3.722.82 5.588 3.01 5.588h37.891c2.19 0 4.485-2.523 3.842-5.529L41.198 5.35c-.127-.595-.85-1.06-1.424-1.059L4.42 4.35c-.957-.024-1.466.537-1.442 1.514z" fill="url(#c)" fill-rule="evenodd" stroke="#666" transform="translate(.58 5.21)"/><path d="M38.687 12.736h-8.552l.644 6.004h9.033z" fill="#888" fill-rule="evenodd"/><path d="M39.741 23.033h-15.83" fill="none" stroke="#d1d1d1" stroke-width="2" stroke-linecap="round"/><path d="M41.077 26.95H24.113" fill="none" stroke="#d1d1d1" stroke-width="2" stroke-linecap="round"/><path d="M41.825 31.033H23.916" fill="none" stroke="#d1d1d1" stroke-width="2" stroke-linecap="round"/><path d="M41.161 34.564H23.885" fill="none" stroke="#828282" stroke-width="2" stroke-linecap="round"/><g stroke-width=".902" font-weight="400" font-size="12.8" font-family="Times New Roman"><text transform="matrix(1.04697 0 -.0658 1.3363 -5.3 -8.954)" y="20.621" x="12.523" style="line-height:0%"><tspan style="line-height:1" y="20.621" x="12.523" font-size="7.027">N</tspan></text><text transform="matrix(1.04697 0 -.00866 1.3363 -5.3 -8.954)" y="20.621" x="16.475" style="line-height:0%"><tspan style="line-height:1" y="20.621" x="16.475" font-size="7.027">E</tspan></text><text transform="matrix(1.04697 0 .17002 1.3363 -5.3 -8.954)" y="20.621" x="17.747" style="line-height:0%"><tspan style="line-height:1" y="20.621" x="17.747" font-size="7.027">W</tspan></text><text transform="matrix(1.04697 0 .22613 1.3363 -5.3 -8.954)" y="20.617" x="23.265" style="line-height:0%"><tspan style="line-height:1" y="20.617" x="23.265" font-size="7.027">S</tspan></text></g><path d="M20.198 17.328v12.93H6.828c-1.17 0-2.131-1.28-1.55-3.099l.802-9.73z" fill="url(#d)" fill-rule="evenodd" stroke="#9e9e9e" stroke-width="1.067" transform="translate(.58 5.21)"/></svg>