<svg xmlns="http://www.w3.org/2000/svg" height="48" width="48"><path overflow="visible" font-weight="400" style="line-height:normal;font-variant-ligatures:normal;font-variant-position:normal;font-variant-caps:normal;font-variant-numeric:normal;font-variant-alternates:normal;font-feature-settings:normal;text-indent:0;text-align:start;text-decoration-line:none;text-decoration-style:solid;text-decoration-color:#000;text-transform:none;text-orientation:mixed;white-space:normal;shape-padding:0;isolation:auto;mix-blend-mode:normal;solid-color:#000;solid-opacity:1" d="M21.936 18.178l-7.224 29.31 4 .025L24 24.524l5.288 22.989 4-.026-7.224-29.31z" color="#000" font-family="sans-serif" fill="#bed5ec" fill-rule="evenodd" stroke="#4888c8"/><path d="M23.972 11.5c2.478-.015 4.503 2.022 4.528 4.5.025 2.478-1.958 4.464-4.436 4.5-2.477.035-4.518-1.985-4.564-4.5a4.468 4.468 0 014.472-4.5z" fill="#bed5ec" stroke="#3a88d6"/><path d="M8.05 1.926c-3.339 3.661-5.263 8.85-5.3 13.768-.037 5.115 1.803 10.276 5.3 14.4" fill="none" stroke="#3a88d6" stroke-width="1.5"/><path d="M9.192 2.887c-2.95 3.179-4.9 8.028-4.941 12.807-.04 4.68 1.547 9.301 4.9 13.4" fill="none" stroke="#d2e8fe" stroke-width="1.5"/><path d="M39.891 1.926c3.34 3.661 5.264 8.85 5.3 13.768.038 5.115-1.802 10.276-5.3 14.4" fill="none" stroke="#3a88d6" stroke-width="1.5"/><path d="M38.75 2.887c2.949 3.179 4.9 8.028 4.941 12.807.04 4.68-1.548 9.301-4.9 13.4" fill="none" stroke="#d2e8fe" stroke-width="1.5"/><path d="M14.984 7.797c-2.645 2.69-3.228 5.611-3.234 7.903-.006 2.292.514 5.3 3.234 8.529" fill="none" stroke="#3a88d6" stroke-width="1.5"/><path d="M16.06 8.85c-2.005 2.15-2.737 4.135-2.764 6.85-.026 2.658.776 5.3 2.764 7.529" fill="none" stroke="#d2e8fe" stroke-width="1.5"/><path d="M33.036 7.797c2.644 2.69 3.228 5.611 3.234 7.903.005 2.292-.514 5.3-3.234 8.529" fill="none" stroke="#3a88d6" stroke-width="1.5"/><path d="M31.96 8.85c2.004 2.15 2.737 4.135 2.763 6.85.026 2.658-.775 5.3-2.763 7.529" fill="none" stroke="#d2e8fe" stroke-width="1.5"/></svg>