<svg xmlns="http://www.w3.org/2000/svg" height="48" width="48"><path d="M28.471 23.493a4.5 4.5 0 0 1-3.96 4.977 4.5 4.5 0 0 1-4.981-3.954 4.5 4.5 0 0 1 3.95-4.985 4.5 4.5 0 0 1 4.989 3.944" fill="#bed5ec" fill-rule="evenodd" stroke="#4888c8"/><path d="M8.107 8.107A22.498 22.498 0 0 0 1.65 26.58a22.498 22.498 0 0 0 7.063 13.914l2.78-2.78a18.585 18.585 0 0 1-5.956-11.583 18.585 18.585 0 0 1 5.32-15.274l-2.75-2.75zm31.786 0l-2.75 2.75a18.585 18.585 0 0 1 5.316 10.973l.008.076a18.585 18.585 0 0 1-5.96 15.809l2.768 2.767a22.498 22.498 0 0 0 7.08-19.017l-.01-.09a22.498 22.498 0 0 0-6.452-13.268z" fill="#dde8f3" fill-rule="evenodd" stroke="#4888c8"/><path d="M14.463 14.463a13.499 13.499 0 0 0-3.873 11.084 13.499 13.499 0 0 0 4.498 8.572l2.95-2.95a9.642 9.642 0 0 1-3.274-6.177 9.642 9.642 0 0 1 2.543-7.685l-2.844-2.844zm19.072.002l-2.494 2.494a9.642 9.642 0 0 1 2.877 5.8l.004.04a9.642 9.642 0 0 1-3.649 8.681l2.647 2.647a13.499 13.499 0 0 0 4.492-11.65l-.006-.053a13.499 13.499 0 0 0-3.87-7.96z" fill="#99bde1" fill-rule="evenodd" stroke="#4888c8"/></svg>