<svg xmlns="http://www.w3.org/2000/svg" height="48" width="48"><rect ry=".142" height="48" width="48" fill="#071854"/><path d="M32.361 2.006c-1.114-.03-2.27.06-3.453.277L19.092 4.09c-2.904.534-5.632 1.502-8.022 2.865v2.961H7.086C3.946 12.946 2 16.997 2 21.937v9.252c0 9.79 7.623 16.27 17.092 14.528l9.816-1.807C38.378 42.167 46 35.853 46 26.063V16.81c0-8.567-5.836-14.598-13.639-14.805z" fill="#fff"/><path d="M19 20l-8 1.442V39l18-3.723v-7.445l-10 2.055zm10 7.7l8-1.443V8.7l-18 3.722V20l10-2.05z" fill="#071854" fill-rule="evenodd"/><path fill="#f60" font-family="Blue Highway" word-spacing="0" letter-spacing="0" font-size="40" font-weight="700" aria-label="u" d="M2 18h4.098v-5.723c.935.9 1.598 1.244 3.702 1.198 2.184-.049 5.187-2.32 5.2-5.248V2h-4.024l-.03 5.176c0 1.721-.943 2.549-2.424 2.549-1.488-.143-2.404-1.142-2.424-2.549V2H2z"/><rect ry="4" rx="12.044" y="86" x="-44" height="4" width="1" opacity=".432"/></svg>