<svg xmlns="http://www.w3.org/2000/svg" height="22" width="22"><defs><clipPath id="a" clipPathUnits="userSpaceOnUse"><path d="M23.705 29.953C37.37 36.81 24.849 52.391 5.87 47.116c-10.137-2.817-.983 1.734-.983 1.734s4.735 4.253 13.356 4.173c8.622-.08 19.263-4.173 19.263-4.173L32.3 29.937z" fill="#ffc938"/></clipPath></defs><g transform="translate(0 2)"><text y="-10.364" x="-32.625" style="line-height:150%;-inkscape-font-specification:'Bitstream Vera Sans Mono, Normal';font-variant-ligatures:normal;font-variant-caps:normal;font-variant-numeric:normal;font-feature-settings:normal;text-align:start" font-weight="400" font-size="18.667" font-family="Bitstream Vera Sans Mono" letter-spacing="0" word-spacing="0"/><rect width="15" height="15" x="1.5" y="-1.5" ry="0" fill="#f9f9f9" fill-rule="evenodd" stroke="#999" stroke-miterlimit="2.4"/><rect ry="0" y="1.5" x="3.5" height="15" width="15" fill="#f9f9f9" fill-rule="evenodd" stroke="#666" stroke-miterlimit="2.4"/><rect width="15" height="15" x="5.5" y="4.5" ry="0" fill="#f9f9f9" fill-rule="evenodd" stroke="#1a1a1a" stroke-miterlimit="2.4"/><g fill-rule="evenodd"><g transform="rotate(29.782 1902.126 510.503)" fill="#be8511"><rect transform="matrix(.99971 -.02407 .00858 .99996 0 0)" width="2.243" height="7.436" x="3.655" y="1002.596" rx=".509" ry=".542"/><rect transform="rotate(-.275)" width="9.483" height="2.813" x="3.858" y="1009.379" rx=".839" ry=".839"/></g><path d="M9.028 6.118C7.202 9.143 5.113 10.44 3.064 12a18.629 18.629 0 0 0 2.737 2.655l3.17-3.084-2.124 3.852c2.506 1.715 5.32 2.782 8.28 3.542-.244-2.92.767-5.55 2.114-8.106z" fill="#ffe87c"/><path d="M10.094 29.938c-.162 8.271-2.878 13.35-5.207 18.912a43.624 43.624 0 0 0 8.658 2.18l2.818-9.968.201 10.3c7.092.544 14.048-.587 20.942-2.512-3.914-5.634-4.946-12.154-5.205-18.913z" clip-path="url(#a)" transform="scale(.42704) rotate(30 44.75 42.746)" fill="#ab9a09" fill-opacity=".58"/></g></g></svg>