<svg xmlns="http://www.w3.org/2000/svg" xmlns:xlink="http://www.w3.org/1999/xlink" height="24" width="24"><defs><radialGradient xlink:href="#a" id="b" cx="-11.898" cy="3.864" fx="-11.898" fy="3.864" r="12" gradientUnits="userSpaceOnUse" gradientTransform="matrix(.99145 .01277 -.00862 .66949 23.932 1.43)"/><linearGradient id="a"><stop offset="0" stop-color="#f6ed62"/><stop offset="1" stop-color="#f7c700"/></linearGradient></defs><circle cx="12" cy="12" r="12" fill="url(#b)"/><path d="M12.01 2.999c-1.16-.034-2.118 1.109-1.996 2.276l-.017 4.26c.018 2.09.723 4.98 1.287 5.281.292.235 1.149.255 1.474 0 .727-.453 1.24-3.21 1.24-5.311-.032-.257 0-4.604 0-4.604-.057-1.05-.964-1.923-1.988-1.902z" style="line-height:normal;font-variant-ligatures:normal;font-variant-position:normal;font-variant-caps:normal;font-variant-numeric:normal;font-variant-alternates:normal;font-feature-settings:normal;text-indent:0;text-align:start;text-decoration-line:none;text-decoration-style:solid;text-decoration-color:#000;text-transform:none;text-orientation:mixed;white-space:normal;shape-padding:0;isolation:auto;mix-blend-mode:normal;solid-color:#000;solid-opacity:1" color="#000" font-weight="400" font-family="sans-serif" overflow="visible" fill="#1a1a1a"/><path d="M14 19a2 2 0 01-2 2 2 2 0 01-2-1.998A2 2 0 0111.997 17 2 2 0 0114 18.997L12 19z" paint-order="markers stroke fill"/></svg>