<svg xmlns="http://www.w3.org/2000/svg" xmlns:xlink="http://www.w3.org/1999/xlink" width="20" height="20"><defs><radialGradient xlink:href="#a" id="b" cx="-205.085" cy="208.491" fx="-205.085" fy="208.491" r="1.808" gradientTransform="matrix(4.8048 4.7502 -1.62935 1.64812 1331.194 638.437)" gradientUnits="userSpaceOnUse"/><linearGradient id="a"><stop offset="0" stop-color="#f6ed62"/><stop offset="1" stop-color="#f7c700"/></linearGradient></defs><rect transform="rotate(-45)" ry="1.789" y="6.548" x="-7.594" height="15.188" width="15.188" fill="url(#b)" fill-rule="evenodd"/><path overflow="visible" font-weight="400" d="M10.009 3.001c-.868-.03-1.588.615-1.498 1.578L8.5 8.094c.017 1.724.544 3.506.964 3.754.227.194.862.211 1.106 0 .55-.374.93-2.047.93-3.777-.023-.211 0-3.795 0-3.795-.04-.867-.72-1.289-1.491-1.272z" style="line-height:normal;font-variant-ligatures:normal;font-variant-position:normal;font-variant-caps:normal;font-variant-numeric:normal;font-variant-alternates:normal;font-feature-settings:normal;text-indent:0;text-align:start;text-decoration-line:none;text-decoration-style:solid;text-decoration-color:#000;text-transform:none;text-orientation:mixed;white-space:normal;shape-padding:0;isolation:auto;mix-blend-mode:normal;solid-color:#000;solid-opacity:1" color="#000" font-family="sans-serif" fill="#1a1a1a"/><path d="M11.5 15.503A1.503 1.503 0 0110.003 17 1.503 1.503 0 018.5 15.503 1.503 1.503 0 0110.003 14a1.503 1.503 0 011.497 1.497h-1.497z" paint-order="markers stroke fill"/></svg>