<svg xmlns="http://www.w3.org/2000/svg" xmlns:xlink="http://www.w3.org/1999/xlink" width="22" height="22"><defs><radialGradient xlink:href="#a" id="b" cx="-6.133" cy="6.424" fx="-6.133" fy="6.424" r="13" gradientUnits="userSpaceOnUse" gradientTransform="matrix(1.85164 .01778 -.01122 1.16838 22.26 -3.56)"/><linearGradient id="a"><stop offset="0" stop-color="#959cff" stop-opacity=".992"/><stop offset="1" stop-color="#484df0"/></linearGradient></defs><text style="line-height:150%;-inkscape-font-specification:'Bitstream Vera Sans, Normal';text-align:start" x="-26" y="12.125" font-weight="400" font-size="15" font-family="Bitstream Vera Sans" letter-spacing="0" word-spacing="0"/><text style="line-height:150%;-inkscape-font-specification:'Densmore, Normal';font-variant-ligatures:normal;font-variant-caps:normal;font-variant-numeric:normal;font-feature-settings:normal;text-align:start" x="-31" y="5.875" font-weight="400" font-size="37.333" font-family="Densmore" letter-spacing="0" word-spacing="0"/><path d="M22 11a11 11 0 01-10.919 11A11 11 0 01.001 11.163 11 11 0 0110.756.003a11 11 0 0111.24 10.672" fill="url(#b)"/><g style="line-height:150%;-inkscape-font-specification:'Bitstream Vera Sans, Bold';font-variant-ligatures:normal;font-variant-caps:normal;font-variant-numeric:normal;font-feature-settings:normal;text-align:start"><path word-spacing="0" letter-spacing="0" font-size="30.502" font-weight="700" aria-label="?" style="-inkscape-font-specification:'Bitstream Vera Sans, Bold';font-variant-ligatures:normal;font-variant-caps:normal;font-variant-numeric:normal;font-feature-settings:normal;text-align:start" d="M8.987 13a3.206 3.206 0 01.813-2.28c.723-.946 1.806-1.57 2.558-2.49.558-.637.653-1.751-.128-2.27-.906-.57-2.093-.344-3.062-.052-.772.245-2.485.834-3.168 1.25v-2.87C8.125 2.794 12.062 2.24 13.954 3.1c1.38.562 2.353 1.618 2.556 2.882.263 1.235-.048 2.588-.97 3.527-.716.877-1.82 1.226-2.414 2.196-.203.362-.132.9-.136 1.295zm0 2h4.003v4H8.987z" font-family="Bitstream Vera Sans" fill="#fff" stroke-width="1.354"/></g></svg>