<svg xmlns="http://www.w3.org/2000/svg" xmlns:xlink="http://www.w3.org/1999/xlink"><defs><symbol id="export" viewBox="0 0 20 20"><g><rect width="19" height="19" x=".5" y=".5" ry="0" fill="#f9f9f9" stroke="#1a1a1a" stroke-miterlimit="2.4"/><path d="M6.774 15.89c1.089-3.755 4.233-4.587 6.708-4.27v3.192l4.79-4.788-4.79-4.787v3.191c-4.578-.27-7.444 3.12-6.708 7.462z" fill="#127a00" stroke="#116b00" stroke-linecap="round"/></g></symbol><symbol id="warning" viewBox="0 0 20 20"><rect width="15.188" height="15.188" x="-7.594" y="6.548" ry="1.79" transform="rotate(-45)" fill="url(#b36)"/><path style="line-height:normal;font-variant-ligatures:normal;font-variant-position:normal;font-variant-caps:normal;font-variant-numeric:normal;font-variant-alternates:normal;font-feature-settings:normal;text-indent:0;text-align:start;text-decoration-line:none;text-decoration-style:solid;text-decoration-color:#000;text-transform:none;text-orientation:mixed;white-space:normal;shape-padding:0;isolation:auto;mix-blend-mode:normal;solid-color:#000;solid-opacity:1" d="M10.01 3.001c-.87-.03-1.589.616-1.498 1.578L8.5 8.09c.014 1.724.542 3.509.965 3.757.22.194.862.21 1.105 0 .545-.374.93-2.049.93-3.781-.024-.211 0-3.796 0-3.796-.042-.866-.723-1.287-1.49-1.27z" color="#000" font-weight="400" font-family="sans-serif" overflow="visible" fill="#1a1a1a"/><path d="M11.5 15.5A1.5 1.5 0 0110 17a1.5 1.5 0 01-1.5-1.5A1.5 1.5 0 019.998 14a1.5 1.5 0 011.502 1.497L10 15.5z" paint-order="markers stroke fill"/></symbol><symbol id="arrow-d" viewBox="0 0 22 22"><path d="M19.798 1112.037h-6.29v-10.982H8.493v10.982h-6.29l8.797 9.69z" fill="url(#b1)" stroke="#177f0f" stroke-width="1.067" stroke-linecap="square" transform="translate(0 -1100.52)"/></symbol><symbol id="arrow-l" viewBox="0 0 22 22"><path d="M10.5 1102.748v6.272h11v5h-11v6.27l-9.705-8.77z" fill="url(#b2)" stroke="#177f0f" stroke-width="1.067" stroke-linecap="square" transform="translate(0 -1100.52)"/></symbol><symbol id="arrow-r" viewBox="0 0 22 22"><path d="M11.516 1102.72v6.29H.533v5.015h10.983v6.29l9.689-8.798z" fill="url(#b3)" stroke="#177f0f" stroke-width="1.067" stroke-linecap="square" transform="translate(0 -1100.52)"/></symbol><symbol id="arrow-u" viewBox="0 0 22 22"><path d="M19.771 1110.986H13.5v11h-5v-11H2.229l8.77-9.704z" fill="url(#b4)" stroke="#177f0f" stroke-width="1.067" stroke-linecap="square" transform="translate(0 -1100.52)"/></symbol><symbol id="attachment" viewBox="0 0 20 20"><rect width="17" height="15" x="1.5" y="4.5" ry="0" fill="#f9f9f9" stroke="#1a1a1a" stroke-miterlimit="2.4"/><path d="M17 4c.027-4.517-6.5-4.134-6.5-.025v10.261c-.01 3.659 6.03 4.362 6.017 0l-.034-6.834c-.12-1.842-2.96-1.635-2.983 0 .067 2.589-.065 3.354 0 5.941" fill="none" stroke="#489e46" stroke-width="1.5"/></symbol><symbol id="back" viewBox="0 0 20 20"><path d="M20 10a10 10 0 01-10 10A10 10 0 010 10 10 10 0 0110 0a10 10 0 0110 10H10z" opacity=".993" fill="#23680a"/><path d="M13.135 4.613L6.85 10l6.278 5.387" fill="none" stroke="#fffaf0" stroke-width="3" stroke-linecap="round" stroke-linejoin="round"/></symbol><symbol id="bookmark" viewBox="0 0 22 22"><path d="M6.057 3.5C6.13 1.814 6.653.556 8.203.525L16.41.5c.892 0 1.126.77 1.126 1.41l.001 18.92-4.575-4.78-4.595 4.79.045-17.34z" fill="url(#b7)" stroke="#660080"/></symbol><symbol id="contract" viewBox="0 0 20 20"><path d="M6.818 3.405L10 6.587l3.182-3.182m0 13.19L10 13.413l-3.182 3.182" fill="none" stroke="#3c9b0a" stroke-width="2" paint-order="markers stroke fill"/><path d="M17 8.502H3m14 3H3" fill="none" stroke="#23680a" paint-order="markers stroke fill"/></symbol><symbol id="contractall" viewBox="0 0 20 20"><path d="M2 8.5h6.5V2m9.5 9.5h-6.5V18" fill="none" stroke="#3c9b0a" stroke-width="3" paint-order="markers stroke fill"/><path fill="none" stroke="#23680a" stroke-width="2" stroke-linecap="round" paint-order="markers stroke fill" d="M3 3h16v16H3z"/><path fill="none" stroke="#23680a" stroke-width="2" stroke-linecap="round" paint-order="markers stroke fill" d="M1 1h16v16H1z"/></symbol><symbol id="copy" viewBox="0 0 20 20"><rect width="15" height="15" x=".5" y=".5" ry="0" fill="#f9f9f9" stroke="#1a1a1a" stroke-miterlimit="2.4"/><rect ry="0" y="4.5" x="4.5" height="15" width="15" fill="#f9f9f9" stroke="#1a1a1a" stroke-miterlimit="2.4"/></symbol><symbol id="css" viewBox="0 0 20 20"><rect width="19" height="19" x=".5" y=".5" ry="0" fill="#f9f9f9" stroke="#1a1a1a" stroke-miterlimit="2.4"/><text style="line-height:150%;-inkscape-font-specification:'Bitstream Vera Sans Mono, Bold';font-variant-ligatures:normal;font-variant-caps:normal;font-variant-numeric:normal;font-feature-settings:normal;text-align:start" x="4.98" y="7.873" transform="scale(.89843 1.11305)" font-weight="700" font-size="6.815" font-family="Bitstream Vera Sans Mono" letter-spacing="0" word-spacing="0"><tspan x="4.98" y="7.873">{ }</tspan></text><text style="line-height:150%;-inkscape-font-specification:'Bitstream Vera Sans Mono, Bold';font-variant-ligatures:normal;font-variant-caps:normal;font-variant-numeric:normal;font-feature-settings:normal;text-align:start" x="1.174" y="18.554" transform="scale(1.09868 .91019)" font-weight="700" font-size="8.716" font-family="Bitstream Vera Sans Mono" letter-spacing="0" word-spacing="0"><tspan x="1.174" y="18.554">CSS</tspan></text></symbol><symbol id="delete" viewBox="0 0 20 20"><rect width="19" height="19" x=".5" y=".5" ry="0" fill="#f9f9f9" stroke="#1a1a1a" stroke-miterlimit="2.4"/><path d="M16.5 10a6.5 6.5 0 01-6.493 6.5A6.5 6.5 0 013.5 10.014 6.5 6.5 0 019.98 3.5a6.5 6.5 0 016.52 6.473" fill="url(#b12) #d00000"/><path d="M6 10h8" fill="none" stroke="#fff" stroke-width="3"/></symbol><symbol id="document-list" viewBox="0 0 20 20"><g stroke="#1a1a1a"><path d="M.5 19.493V.5h13.118L19.5 7v12.494z" fill="#f9f9f9"/><rect width="3" height="3" x="4.5" y="8.5" ry="0" fill="#f9f9f9" stroke-miterlimit="2.4"/><path d="M13.609 6.996V.53l5.832 6.465H13.61z" fill="#fff" stroke-linejoin="round"/><rect ry="0" y="2.5" x="4.5" height="3" width="3" fill="#f9f9f9" stroke-miterlimit="2.4"/><rect ry="0" y="14.5" x="4.5" height="3" width="3" fill="#f9f9f9" stroke-miterlimit="2.4"/></g></symbol><symbol id="edit" viewBox="0 0 20 20"><g><rect width="19" height="19" x=".547" y=".563" ry="0" fill="#f9f9f9" stroke="#1a1a1a" stroke-miterlimit="2.4"/><path d="M16.585 3.37c-.43-.47-1.622-.776-2.035-.351L3.98 13.629l-.503 2.134.647.647 2.234-.39L16.93 5.415l-.014-.014.017.01c.436-.437.279-1.353-.348-2.041z" fill="#dbc400" stroke="#6d4d02" stroke-width=".5"/><path d="M3.781 13.397c.784.775 1.964 2.014 2.828 2.84l-2.71.827-.942-.946.823-2.721z" fill="#fd5"/><path d="M2.957 16.118l-.387 1.14.179.18 1.15-.374z" fill="#6d4d02"/><path d="M16.806 5.205L6.143 15.917l-1.554.472-.467.138L16.849 3.736z" fill="#b37a22"/></g></symbol><symbol id="expand" viewBox="0 0 20 20"><path d="M14.596 7.018L10 2.422 5.404 7.018m0 5.964L10 17.578l4.596-4.596" fill="none" stroke="#3c9b0a" stroke-width="2" paint-order="markers stroke fill"/><path d="M17 19.5H3m14-19H3" fill="none" stroke="#23680a" paint-order="markers stroke fill"/></symbol><symbol id="expandall" viewBox="0 0 20 20"><path d="M8 1.5H1.5V8" fill="none" stroke="#3c9b0a" stroke-width="3" paint-order="markers stroke fill"/><path fill="#23680a" stroke="#23680a" stroke-width="2" stroke-linecap="round" paint-order="markers stroke fill" d="M6 6h8v8H6z"/><path d="M12 18.5h6.5V12" fill="none" stroke="#3c9b0a" stroke-width="3" paint-order="markers stroke fill"/></symbol><symbol id="accept" viewBox="0 0 20 20"><path d="M20 10a10 10 0 01-9.996 10A10 10 0 010 10.008 10 10 0 019.987 0 10 10 0 0120 9.983L10 10z" fill="url(#b0)"/><path d="M5.205 11.689l4.293 3.016 4.438-8.179" fill="none" stroke="#ceeece" stroke-width="3" stroke-linecap="round" stroke-linejoin="round"/></symbol><symbol id="false" viewBox="0 0 20 20"><path d="M1.97 1.936l16.06 16.127m-16.084-.008l16.108-16.08" fill="none" stroke="#a00" stroke-width="5.5" stroke-linejoin="round"/><path d="M17.356 2.6L2.644 17.273M2.75 2.57l14.5 14.731" fill="none" stroke="#dd3131" stroke-width="4"/></symbol><symbol id="view" viewBox="0 0 20 20"><rect width="19" height="19" x=".5" y=".5" ry="0" fill="#f9f9f9" stroke="#1a1a1a" stroke-miterlimit="2.4"/><path d="M8.481 9.5a2 2 0 01-1.966 2 2 2 0 01-2.033-1.931 2 2 0 011.896-2.066 2 2 0 012.098 1.86m7.005.137a2 2 0 01-1.966 2 2 2 0 01-2.033-1.931 2 2 0 011.896-2.066 2 2 0 012.098 1.86" fill="none" stroke="#000" stroke-linecap="round" paint-order="markers stroke fill"/><path d="M8.267 8.407c.545-.377 1.092-.757 1.655-.77.563-.015 1.145.333 1.726.682M2.981 9.516h1.338m11.362 0h1.338" fill="none" stroke="#000"/></symbol><symbol id="groupassign" viewBox="0 0 20 20"><path d="M11.838 14.5L9.756 9.04s-.416-1.162 0-1.714c.967-1 1.372-3.043.757-4.4C10.187 2.206 9.65.462 7.073.5c-2.45.036-3.171 1.78-3.437 2.516-.51 1.408-.223 3.184.545 4.31.45.605 1.133 1.504 0 1.713-1.521.36-2.916 1.202-3.68 2.446V14.5z" fill="#13960e" stroke="#050"/><path d="M6.5 19.5v-3.015c.96-1.024 2.35-2.18 3.893-2.446 1.224-.14.408-1.161 0-1.713-.952-1-1.35-3.043-.745-4.4.32-.719.848-2.463 3.383-2.425 2.413.035 3.122 1.78 3.384 2.515.502 1.408.22 3.184-.536 4.31-.442.605-1.115 1.504 0 1.713 1.497.36 2.87 1.202 3.621 2.446V19.5z" fill="url(#b19)" stroke="#050"/></symbol><symbol id="true" viewBox="0 0 20 20"><path d="M2.999 7.441l5.424 5.6 8.62-8.9" transform="matrix(1.14281 0 0 1.18492 -1.431 -1.218)" fill="none" stroke="#43723a" stroke-width="4.726"/><path d="M3.322 7.93l5.097 5.376 8.343-8.814" transform="matrix(1.10868 0 0 1.1346 -1.084 -.826)" fill="none" stroke="#3e882e" stroke-width="3.566"/></symbol><symbol id="help" viewBox="0 0 22 22"><path d="M22 11a11 11 0 01-10.919 11A11 11 0 01.001 11.163 11 11 0 0110.756.003a11 11 0 0111.24 10.672" fill="url(#b20)"/><path d="M9.16 16h3.805v3H9.159zm.1-2c.052-1.145-.272-2.042.865-3.037C11.3 9.96 13.01 9.06 14.279 8.11c.741-.54.814-1.702-.222-2.21-1.62-.853-3.273-.646-5.136-.212-1.32.316-1.725.593-2.921 1.064V4.685c1.898-1.195 3.482-1.779 6.36-1.66 1.94.145 3.126.765 4.319 1.721 1.509 1.334 1.22 3.46-.202 4.699-.434.341-.768.671-1.745 1.284-.837.49-1.806 1.03-1.819 1.8-.082.609-.04.86-.05 1.471z" aria-label="?" font-weight="400" font-size="19.305" font-family="sans-serif" letter-spacing="0" word-spacing="0" fill="#fff"/></symbol><symbol id="import" viewBox="0 0 20 20"><g><rect width="19" height="19" x=".5" y=".5" ry="0" fill="#f9f9f9" stroke="#1a1a1a" stroke-miterlimit="2.4"/><path d="M15.893.602c-3.755 1.113-4.587 4.328-4.27 6.86h3.192l-4.787 4.897L5.24 7.462h3.192C8.16 2.78 11.55-.151 15.892.602z" fill="#127a00" stroke="#116b00" stroke-linecap="round"/></g></symbol><symbol id="stop" viewBox="0 0 20 20"><path d="M20 10a10 10 0 01-9.996 10A10 10 0 010 10.008 10 10 0 019.987 0 10 10 0 0120 9.983L10 10z" fill="url(#b33)"/><path d="M13.52 13.52L6.48 6.48m0 7.04l7.04-7.04" fill="none" stroke="#fff" stroke-width="3" stroke-linecap="round" stroke-linejoin="round"/></symbol><symbol id="info-external" viewBox="0 0 22 22"><path d="M22 11a11 11 0 01-10.919 11A11 11 0 01.001 11.163 11 11 0 0110.756.003a11 11 0 0111.24 10.672" fill="url(#b22)"/><g style="line-height:150%;-inkscape-font-specification:'Bitstream Vera Sans, Bold';font-variant-ligatures:normal;font-variant-caps:normal;font-variant-numeric:normal;font-feature-settings:normal;text-align:start"><path word-spacing="0" letter-spacing="0" font-size="30.502" font-weight="700" aria-label="?" style="-inkscape-font-specification:'Bitstream Vera Sans, Bold';font-variant-ligatures:normal;font-variant-caps:normal;font-variant-numeric:normal;font-feature-settings:normal;text-align:start" d="M8.987 13a3.206 3.206 0 01.813-2.28c.723-.946 1.806-1.57 2.558-2.49.558-.637.653-1.751-.128-2.27-.906-.57-2.093-.344-3.062-.052-.772.245-2.485.834-3.168 1.25v-2.87C8.125 2.794 12.062 2.24 13.954 3.1c1.38.562 2.353 1.618 2.556 2.882.263 1.235-.048 2.588-.97 3.527-.716.877-1.82 1.226-2.414 2.196-.203.362-.132.9-.136 1.295zm0 2h4.003v4H8.987z" font-family="Bitstream Vera Sans" fill="#fff"/></g><path d="M14.611 9.716l3.968-3.969L21.5 7.51V.5h-7l1.753 2.92-3.969 3.969z" fill="#f9f9f9" stroke="#666" stroke-linecap="round"/></symbol><symbol id="info-plain" viewBox="0 0 22 22"><path d="M22 11a11 11 0 01-10.919 11A11 11 0 01.001 11.163 11 11 0 0110.756.003a11 11 0 0111.24 10.672" fill="url(#b23)"/><g style="line-height:150%;-inkscape-font-specification:'Bitstream Vera Sans, Bold';font-variant-ligatures:normal;font-variant-caps:normal;font-variant-numeric:normal;font-feature-settings:normal;text-align:start"><path d="M8.987 13a3.206 3.206 0 01.813-2.28c.723-.946 1.806-1.57 2.558-2.49.558-.637.653-1.751-.128-2.27-.906-.57-2.093-.344-3.062-.052-.772.245-2.485.834-3.168 1.25v-2.87C8.125 2.794 12.062 2.24 13.954 3.1c1.38.562 2.353 1.618 2.556 2.882.263 1.235-.048 2.588-.97 3.527-.716.877-1.82 1.226-2.414 2.196-.203.362-.132.9-.136 1.295zm0 2h4.003v4H8.987z" style="-inkscape-font-specification:'Bitstream Vera Sans, Bold';font-variant-ligatures:normal;font-variant-caps:normal;font-variant-numeric:normal;font-feature-settings:normal;text-align:start" aria-label="?" font-weight="700" font-size="30.502" letter-spacing="0" word-spacing="0" font-family="Bitstream Vera Sans" fill="#fff"/></g></symbol><symbol id="sort_up" viewBox="0 0 22 22"><path d="M0 20h22M3 14h16M6 8h10M9 2h4" fill="none" stroke="green" stroke-width="4"/></symbol><symbol id="info" viewBox="0 0 22 22"><path d="M22 11a11 11 0 01-10.919 11A11 11 0 01.001 11.163 11 11 0 0110.756.003a11 11 0 0111.24 10.672" fill="url(#b24)"/><g style="line-height:150%;-inkscape-font-specification:'Bitstream Vera Sans, Bold';font-variant-ligatures:normal;font-variant-caps:normal;font-variant-numeric:normal;font-feature-settings:normal;text-align:start"><path word-spacing="0" letter-spacing="0" font-size="30.502" font-weight="700" aria-label="?" style="-inkscape-font-specification:'Bitstream Vera Sans, Bold';font-variant-ligatures:normal;font-variant-caps:normal;font-variant-numeric:normal;font-feature-settings:normal;text-align:start" d="M8.987 13a3.206 3.206 0 01.813-2.28c.723-.946 1.806-1.57 2.558-2.49.558-.637.653-1.751-.128-2.27-.906-.57-2.093-.344-3.062-.052-.772.245-2.485.834-3.168 1.25v-2.87C8.125 2.794 12.062 2.24 13.954 3.1c1.38.562 2.353 1.618 2.556 2.882.263 1.235-.048 2.588-.97 3.527-.716.877-1.82 1.226-2.414 2.196-.203.362-.132.9-.136 1.295zm0 2h4.003v4H8.987z" font-family="Bitstream Vera Sans" fill="#fff"/></g></symbol><symbol id="menu" viewBox="0 0 24 24"><rect width="20" height="24" x="4" ry=".005" fill="#cbd4cb"/><path d="M2.521 5.5H19.48m-16.959 6H19.48m-16.959 6H19.48" fill="none" stroke="#1a3225" stroke-width="3" stroke-linecap="round"/><path d="M4.5 3V.5h19v23h-19V20" fill="none" stroke="#000"/></symbol><symbol id="newfolder" viewBox="0 0 22 22"><path d="M2.377 3.48h5.488c.728-.037.861.266 1.056.486l.909 1.521h9.793c.546 0 .877.355.877.846v11.723a.452.452 0 01-.46.444H1.96a.452.452 0 01-.46-.444V4.326c0-.456.356-.846.877-.846z" fill="#ea9b15" stroke="#905a00" stroke-linecap="round"/><path d="M3.331 7.5h16.338c.517 0 .831.322.831.769v9.827c0 .224-.195.404-.436.404H2.936c-.241 0-.436-.18-.436-.404V8.27c0-.415.337-.769.831-.769z" fill="#eabf3d" stroke="#d88800" stroke-linecap="round"/><path d="M10 14h12m-6-6v12" fill="none" stroke="green" stroke-width="4"/></symbol><symbol id="newobject" viewBox="0 0 20 20"><rect width="19" height="19" x=".5" y=".5" ry="0" fill="#f9f9f9" stroke="#1a1a1a" stroke-miterlimit="2.4"/><path d="M8 14h12m-6-6v12" fill="none" stroke="green" stroke-width="4"/></symbol><symbol id="permissions" viewBox="0 0 20 20"><path d="M9.287 2.243a5.812 5.812 0 00-1.04 6.906l-1.163 1.146-1.613.043.019 2.14-1.931.042-.73.717.008 1.994-1.313.145-1.024.916V19.5h2.477l7.817-7.889a6.05 6.05 0 006.964-1.066 5.815 5.815 0 00-.004-8.314l-.017-.017c-2.342-2.286-6.124-2.273-8.45.03zm4.844 1.382a1.577 1.577 0 012.204-.007l.005.004c.608.599.608 1.57 0 2.168-.607.6-1.593.602-2.203.005a1.517 1.517 0 01-.006-2.17z" fill="#fcc858" stroke="#6e5800" stroke-linecap="round" stroke-linejoin="round" stroke-dashoffset="3.003"/><path d="M1 19l7.713-7.826.508.486-7.201 7.335z" fill="#ac8900"/></symbol><symbol id="reorder" viewBox="0 0 20 20"><path style="line-height:normal;font-variant-ligatures:normal;font-variant-position:normal;font-variant-caps:normal;font-variant-numeric:normal;font-variant-alternates:normal;font-feature-settings:normal;text-indent:0;text-align:start;text-decoration-line:none;text-decoration-style:solid;text-decoration-color:#000;text-transform:none;text-orientation:mixed;white-space:normal;shape-padding:0;isolation:auto;mix-blend-mode:normal;solid-color:#000;solid-opacity:1" d="M8.5 4v4.4H4v3.1h4.5V16h3v-4.5H16V8.4h-4.5V4z" color="#000" font-weight="400" font-family="sans-serif" overflow="visible" fill="#1e9612"/><path d="M6.85 16.25h6.344l-3.18 3.384zm9.4-9.409v6.357l3.385-3.187z" fill="#1d9e1d" stroke="#1e9612" stroke-width=".5"/><path d="M6.85 3.75h6.344L10.014.366z" fill="#32d82b" stroke="#1e9612" stroke-width=".5"/><path d="M3.75 6.841v6.357L.365 10.01z" fill="#1d9e1d" stroke="#1e9612" stroke-width=".5"/><path style="line-height:normal;font-variant-ligatures:normal;font-variant-position:normal;font-variant-caps:normal;font-variant-numeric:normal;font-variant-alternates:normal;font-feature-settings:normal;text-indent:0;text-align:start;text-decoration-line:none;text-decoration-style:solid;text-decoration-color:#000;text-transform:none;text-orientation:mixed;white-space:normal;shape-padding:0;isolation:auto;mix-blend-mode:normal;solid-color:#000;solid-opacity:1" d="M9.5 3.5v6h-6v1h6s-.133 5.5 0 5.5h1v-5.5h5.9v-1h-5.9v-6z" color="#000" font-weight="400" font-family="sans-serif" overflow="visible" fill="url(#b29)"/></symbol><symbol id="run" viewBox="0 0 20 20"><path d="M8.926.5l-.489 2.582a7.103 7.103 0 00-2.162.88L4.143 2.435A9.707 9.707 0 002.58 3.963L4.06 6.11a7.11 7.11 0 00-.978 2.287L.5 8.816v2.137l2.555.461a7.018 7.018 0 001.02 2.461l-1.536 2.096c.44.543.947 1.039 1.494 1.474l2.176-1.488a7.03 7.03 0 002.527.986l.409 2.557h2.105l.49-2.65a7.139 7.139 0 002.405-1.096l2.093 1.516a9.715 9.715 0 001.467-1.557l-1.521-2.19c.412-.708.697-1.49.841-2.326l2.475-.406V8.6l-2.61-.473a7.05 7.05 0 00-.964-2.082l1.535-2.096a9.721 9.721 0 00-1.617-1.57l-2.215 1.516a7.02 7.02 0 00-2.066-.825L11.153.5zM9.99 7c1.656-.005 3.03 1.315 3.01 2.988-.02 1.673-1.323 3.137-2.996 3.012a3 3 0 01-.014-6z" color="#000" fill="#8dc18d" stroke="#050"/><path d="M14.25 41.2a4.25 4.25 0 01-4.247 4.25 4.25 4.25 0 01-4.253-4.244 4.25 4.25 0 014.242-4.256 4.25 4.25 0 014.258 4.239" fill="none" stroke="url(#b30)" stroke-width="1.5" transform="translate(0 -31.2)"/></symbol><symbol id="sort_down" viewBox="0 0 22 22"><path d="M0 2h22M3 8h16M6 14h10m-7 6h4" fill="none" stroke="green" stroke-width="4"/></symbol><linearGradient id="a20"><stop offset="0" stop-color="#959cff" stop-opacity=".992"/><stop offset="1" stop-color="#484df0"/></linearGradient><linearGradient id="a4"><stop offset="0" stop-color="#6ce163"/><stop offset="1" stop-color="#219810"/></linearGradient><linearGradient id="a36"><stop offset="0" stop-color="#f6ed62"/><stop offset="1" stop-color="#f7c700"/></linearGradient><linearGradient id="a12"><stop offset="0" stop-color="red"/><stop offset="1" stop-color="#a40000"/></linearGradient><linearGradient id="a22"><stop offset="0" stop-color="#959cff" stop-opacity=".992"/><stop offset="1" stop-color="#484df0"/></linearGradient><linearGradient xlink:href="#a4" id="b4" x1="11.044" y1="1104.343" x2="10.956" y2="1109.592" gradientUnits="userSpaceOnUse"/><linearGradient id="a33"><stop offset="0" stop-color="#f6000e"/><stop offset="1" stop-color="#c70713"/></linearGradient><linearGradient id="a23"><stop offset="0" stop-color="#959cff" stop-opacity=".992"/><stop offset="1" stop-color="#484df0"/></linearGradient><linearGradient id="a19"><stop offset="0" stop-color="#24d51b"/><stop offset=".431" stop-color="#13780e"/><stop offset="1" stop-color="#1aa613"/></linearGradient><linearGradient id="a2"><stop offset="0" stop-color="#6ce163"/><stop offset="1" stop-color="#219810"/></linearGradient><linearGradient id="a24"><stop offset="0" stop-color="#959cff" stop-opacity=".992"/><stop offset="1" stop-color="#484df0"/></linearGradient><linearGradient xlink:href="#a2" id="b2" x1="10.871" y1="5.468" x2="10.871" y2="10.128" gradientUnits="userSpaceOnUse" gradientTransform="matrix(-1.11667 0 0 1.46188 21.14 1096.9)"/><linearGradient xlink:href="#a7" id="b7" gradientUnits="userSpaceOnUse" gradientTransform="matrix(1.01571 0 0 .9037 -5.317 -.782)" x1="18.431" y1="19.119" x2="18.402" y2="4.27"/><linearGradient id="a7"><stop offset="0" stop-color="#80a"/><stop offset="1" stop-color="#b746f0"/></linearGradient><linearGradient id="a1"><stop offset="0" stop-color="#6ce163"/><stop offset="1" stop-color="#219810"/></linearGradient><linearGradient id="a3"><stop offset="0" stop-color="#6ce163"/><stop offset="1" stop-color="#219810"/></linearGradient><linearGradient id="a29"><stop offset="0" stop-color="#32d82b"/><stop offset="1" stop-color="#1d9e1d"/></linearGradient><linearGradient xlink:href="#a29" id="b29" x1="7.839" y1="2.54" x2="7.887" y2="8.326" gradientUnits="userSpaceOnUse" gradientTransform="matrix(1.1 0 0 1.1198 1.377 .677)"/><linearGradient id="a0"><stop offset="0" stop-color="#00ce15"/><stop offset="1" stop-color="#06a01a"/></linearGradient><linearGradient id="a30"><stop offset="0" stop-color="#509450"/><stop offset="1" stop-color="#c2dec2"/></linearGradient><linearGradient xlink:href="#a30" id="b30" x1="9.986" y1="37.026" x2="10.139" y2="45.617" gradientUnits="userSpaceOnUse" gradientTransform="matrix(.85 0 0 .85 1.5 6.18)"/><linearGradient xlink:href="#a3" id="b3" x1="10.859" y1="5.397" x2="10.859" y2="10.085" gradientUnits="userSpaceOnUse" gradientTransform="matrix(1.11486 0 0 1.4663 .893 1096.854)"/><linearGradient xlink:href="#a1" id="b1" x1=".59" y1="10" x2="10.683" y2="10" gradientUnits="userSpaceOnUse" gradientTransform="matrix(0 1.11486 -1.46634 0 25.664 1101.415)"/><radialGradient xlink:href="#a24" id="b24" cx="-6.133" cy="6.424" fx="-6.133" fy="6.424" r="13" gradientUnits="userSpaceOnUse" gradientTransform="matrix(1.85164 .01778 -.01122 1.16838 22.26 -3.56)"/><radialGradient xlink:href="#a33" id="b33" cx="-6.133" cy="6.424" fx="-6.133" fy="6.424" r="13" gradientUnits="userSpaceOnUse" gradientTransform="matrix(.66325 .01905 -.01172 .4081 13.99 .982)"/><radialGradient gradientTransform="matrix(1.85164 .01778 -.01122 1.16838 22.26 -3.56)" gradientUnits="userSpaceOnUse" r="13" fy="6.424" fx="-6.133" cy="6.424" cx="-6.133" id="b23" xlink:href="#a23"/><radialGradient xlink:href="#a22" id="b22" cx="-6.133" cy="6.424" fx="-6.133" fy="6.424" r="13" gradientUnits="userSpaceOnUse" gradientTransform="matrix(1.85164 .01778 -.01122 1.16838 22.26 -3.56)"/><radialGradient xlink:href="#a20" id="b20" cx="-6.133" cy="6.424" fx="-6.133" fy="6.424" r="13" gradientUnits="userSpaceOnUse" gradientTransform="matrix(1.85163 .01778 -.01122 1.16833 22.26 -3.56)"/><radialGradient xlink:href="#a19" id="b19" cx="15.523" cy="6.027" fx="15.523" fy="6.027" r="15" gradientUnits="userSpaceOnUse" gradientTransform="matrix(-.41294 .0284 -.05901 -.93535 19.824 11.754)"/><radialGradient xlink:href="#a36" id="b36" cx="-205.085" cy="208.491" fx="-205.085" fy="208.491" r="1.808" gradientTransform="matrix(4.80529 4.75068 -1.62954 1.64827 1331.334 638.5)" gradientUnits="userSpaceOnUse"/><radialGradient xlink:href="#a12" id="b12" cx="10.166" cy="5.912" fx="10.166" fy="5.912" r="6.5" gradientUnits="userSpaceOnUse" gradientTransform="matrix(1.30586 -.03715 .05237 1.84082 -3.419 -4.593)"/><radialGradient xlink:href="#a0" id="b0" cx="-6.133" cy="6.424" fx="-6.133" fy="6.424" r="13" gradientUnits="userSpaceOnUse" gradientTransform="matrix(.66325 .01905 -.01172 .4081 13.99 .982)"/></defs></svg>
