<svg xmlns="http://www.w3.org/2000/svg" xmlns:xlink="http://www.w3.org/1999/xlink" version="1" viewBox="0 0 48 48"><defs><linearGradient id="b"><stop offset="0" stop-color="#5d5d5d"/><stop offset="1" stop-color="#cecece" stop-opacity=".996"/></linearGradient><linearGradient x1="171.43" x2="199.41" gradientTransform="matrix(-.19682 0 0 .19867 48.263 223.186)" y1="203.86" gradientUnits="userSpaceOnUse" y2="177.52" id="h"><stop offset="0" stop-color="#1c3e47"/><stop offset=".428" stop-color="#88aeb9"/><stop offset=".585" stop-color="#b9d0d6"/><stop offset=".745" stop-color="#88aeb9"/><stop offset="1" stop-color="#2d5059"/></linearGradient><linearGradient x1="132.33" y1="151.45" gradientTransform="matrix(-.19682 0 0 .19867 48.13 223.072)" x2="149.56" gradientUnits="userSpaceOnUse" y2="135.29" id="c"><stop offset="0" stop-color="#999"/><stop offset=".555" stop-color="#f2f2f2"/><stop offset="1" stop-color="#b3b3b3"/></linearGradient><linearGradient x1="38.214" y1="132.79" gradientTransform="translate(4.018 2.59)" x2="62.749" gradientUnits="userSpaceOnUse" y2="110.64" id="a"><stop offset="0" stop-color="#fff"/><stop offset="1" stop-color="#fff" stop-opacity="0"/></linearGradient><linearGradient x1="217.86" y1="37.357" gradientTransform="matrix(-.17852 0 0 .16754 61.693 225.21)" x2="125.64" gradientUnits="userSpaceOnUse" y2="97.025" id="f"><stop offset="0" stop-color="#fff"/><stop offset="1" stop-color="#fff" stop-opacity="0"/></linearGradient><linearGradient y2="110.64" x2="62.749" y1="132.79" x1="38.214" gradientTransform="matrix(-.19682 0 0 .19867 47.76 223.445)" gradientUnits="userSpaceOnUse" id="g" xlink:href="#a"/><linearGradient gradientTransform="matrix(.19709 0 0 .19673 30.76 226.388)" gradientUnits="userSpaceOnUse" y2="-35.064" x2="120.047" y1="134.533" x1="109.786" id="e" xlink:href="#b"/><radialGradient fy="87.666" fx="154.851" r="63.571" gradientTransform="matrix(.33004 .00284 -.00403 .4674 -1.447 207.054)" cx="154.851" cy="87.666" gradientUnits="userSpaceOnUse" id="d"><stop offset="0" stop-color="#dcdcf7" stop-opacity=".8"/><stop offset="1" stop-color="#dcdcf7"/></radialGradient></defs><g transform="translate(0 -225.067)"><path d="M22.78 252.66l-.995 1.053-2.883-2.71.996-1.053z" fill="url(#c)" fill-rule="evenodd"/><circle cy="237" cx="53.015" transform="matrix(-.93964 .34217 .34216 .93964 0 0)" fill="url(#d)" stroke="url(#e)" stroke-width="2" r="13.768"/><path d="M27.515 229.379c4.233-1.447 11.377-.698 13.315 4.545-2.097.117-5.064 2.046-7.19 2.772-6.743 2.305-11.94 2.99-13.332 8.324-.092-.2-.179-.4-.26-.609-2.36-6.082.984-12.817 7.467-15.032z" fill="url(#f)"/><path d="M43.742 241.038c-.094 3.068-1.551 6.95-4.481 9.322-2.734 2.214-5.88 3.314-9.998 2.926 3.523-.884 6.276-2.443 8.795-4.597 2.41-2.06 4.702-5.009 5.684-7.651z" opacity=".7" fill="url(#g)"/><path d="M22.594 254.345l-15.64 17.472c-1.64-.652-3.909-2.984-4.704-4.49l16.067-17.122z" fill="url(#h)" fill-rule="evenodd" stroke="#000" stroke-width=".5" stroke-linejoin="round"/></g></svg>