<?xml version="1.0" standalone="no"?>
<!DOCTYPE svg PUBLIC "-//W3C//DTD SVG 1.1//EN" "http://www.w3.org/Graphics/SVG/1.1/DTD/svg11.dtd">
<svg xmlns="http://www.w3.org/2000/svg">
<metadata>Copyright (C) 2020 by original authors @ fontello.com</metadata>
<defs>
<font id="tools" horiz-adv-x="1000" >
<font-face font-family="tools" font-weight="400" font-stretch="normal" units-per-em="1000" ascent="850" descent="-150" />
<missing-glyph horiz-adv-x="1000" />
<glyph glyph-name="close" unicode="&#xea80;" d="M799 116l-156-157-234 235-235-235-156 157 234 234-234 234 156 157 235-235 234 235 156-157-234-234z" horiz-adv-x="817" />

<glyph glyph-name="fullscreen" unicode="&#xea81;" d="M716 548l-198-198 198-198 80 80q17 18 39 8 22-9 22-33v-250q0-14-10-25t-26-11h-250q-23 0-32 23-10 21 7 38l81 81-198 198-198-198 80-81q17-17 8-38-10-23-33-23h-250q-15 0-25 11t-11 25v250q0 24 22 33 22 10 39-8l80-80 198 198-198 198-80-80q-11-11-25-11-7 0-14 3-22 9-22 33v250q0 14 11 25t25 11h250q23 0 33-23 9-21-8-38l-80-81 198-198 198 198-81 81q-17 17-7 38 9 23 32 23h250q15 0 26-11t10-25v-250q0-24-22-33-7-3-14-3-14 0-25 11z" horiz-adv-x="857.1" />

<glyph glyph-name="insert-audio" unicode="&#xea82;" d="M551 750l-334-247-177-2v-304h177l334-247z m329-73l-200-149v-68l200 149z m-200-297v-60h260v60z m0-159v-68l200-133v70z" horiz-adv-x="1000" />

<glyph glyph-name="insert-image" unicode="&#xea83;" d="M980 302v-312h-960v133l218 224 110-111 348 355z m-680 298a130 130 0 0 0-130-130 130 130 0 0 0-130 130 130 130 0 0 0 130 130 130 130 0 0 0 130-130z" horiz-adv-x="1000" />

<glyph glyph-name="insert-video" unicode="&#xea84;" d="M471-30c-21 0-35 15-41 39l-55 201 175 0 69-240-148 0z m367 610l120 88 0-347-120 89 0 170z m-45-1l0-169-144 0 0-65c0-46-35-81-81-81-9 0-250-9-323 1-54 8-245 64-245 146l0 169c0 80 176 135 246 144 88 11 313 2 322 2 46 0 81-36 81-80l0-67 144 0z m-569-196c40 0 72 32 72 72s-32 73-72 73-73-33-73-73 33-72 73-72z" horiz-adv-x="958" />

<glyph glyph-name="unordered-list" unicode="&#xea85;" d="M180 700a90 90 0 0 1-90-90 90 90 0 0 1 90-90 90 90 0 0 1 90 90 90 90 0 0 1-90 90z m180-30l0-120 580 0 0 120-580 0z m-180-270a90 90 0 0 1-90-90 90 90 0 0 1 90-90 90 90 0 0 1 90 90 90 90 0 0 1-90 90z m180-30l0-120 580 0 0 120-580 0z m-180-280a90 90 0 0 1-90-90 90 90 0 0 1 90-90 90 90 0 0 1 90 90 90 90 0 0 1-90 90z m180-20l0-120 580 0 0 120-580 0z" horiz-adv-x="1000" />

<glyph glyph-name="ordered-list" unicode="&#xea86;" d="M230 740v-260h-60v200h-50v60z m-77-467v-43h107v-50h-160v119l105 48v43h-105v50h160v-119z m107-133v-260h-160v50h105v55h-105v50h105v55h-105v50z m100 220h580v-120h-580z m580-290h-580v-120h580z m0 610h-580v-120h580z" horiz-adv-x="1000" />

<glyph glyph-name="superscript" unicode="&#xea87;" d="M501 86v-93h-139l-89 141-13 23q-4 5-6 12h-2q0-2-1-4t-2-4-2-4q-5-11-14-25l-86-139h-144v93h71l110 162-103 152h-76v94h154l77-127q1-2 13-24 4-5 6-11h2q1 5 6 11l14 24 78 127h143v-94h-69l-103-149 114-165h61z m355 379v-115h-287l-1 15q-3 16-3 26 0 36 15 65t36 48 47 37 47 30 36 30 15 36q0 21-17 35t-39 13q-29 0-54-21-8-6-20-22l-59 52q15 20 35 37 47 36 105 36 61 0 99-33t38-89q0-31-13-57t-35-43-45-33-46-28-37-28-17-36h130v45h70z" horiz-adv-x="857.1" />

<glyph glyph-name="subscript" unicode="&#xea88;" d="M501 86v-93h-139l-89 141-13 23q-4 5-6 12h-2q0-2-1-4t-2-4-2-4q-5-11-14-25l-86-139h-144v93h71l110 162-103 152h-76v94h154l77-127q1-2 13-24 4-5 6-11h2q1 5 6 11l14 24 78 127h143v-94h-69l-103-149 114-165h61z m356-121v-115h-287l-2 15q-2 25-2 26 0 35 15 65t36 48 47 37 47 30 36 30 15 36q0 21-17 35t-39 13q-28 0-54-21-8-6-20-22l-59 52q15 20 35 37 45 36 105 36 62 0 100-33t37-89q0-37-19-66t-47-48-55-35-49-35-23-41h130v45h70z" horiz-adv-x="857.1" />

<glyph glyph-name="justify-left" unicode="&#xea89;" d="M40 120h620v-120h-620z m0 290h920v-120h-920z m0 290h770v-120h-770z" horiz-adv-x="1000" />

<glyph glyph-name="justify-center" unicode="&#xea8a;" d="M750 410h-500v-120h500z m100-410h-700v120h700z m35 580h-770v120h770z" horiz-adv-x="1000" />

<glyph glyph-name="justify-right" unicode="&#xea8b;" d="M960 580h-620v120h620z m0-290h-920v120h920z m0-290h-770v120h770z" horiz-adv-x="1000" />

<glyph glyph-name="justify-full" unicode="&#xea8c;" d="M40 120h920v-120h-920z m0 580h920v-120h-920z m0-290h920v-120h-920z" horiz-adv-x="1000" />

<glyph glyph-name="p" unicode="&#xea8e;" d="M713 745v-41q0-16-10-34t-24-18q-28 0-30-1-14-3-18-17-1-6-1-36v-643q0-14-11-24t-24-10h-60q-14 0-24 10t-10 24v680h-80v-680q0-14-9-24t-25-10h-60q-14 0-24 10t-10 24v277q-82 7-137 33-70 33-107 100-36 65-36 145 0 92 50 159 49 66 116 89 62 21 233 21h267q14 0 24-10t10-24z" horiz-adv-x="714.3" />

<glyph glyph-name="blockquote" unicode="&#xea8f;" d="M146 680q146 0 184-146 38-140-40-302-80-168-224-204-32-8-66-8l0 70q112 0 182 108 54 86 26 146-16 36-62 36-60 0-103 44t-43 106 43 106 103 44z m420 0q146 0 184-146 38-140-40-302-80-168-224-204-32-8-66-8l0 70q112 0 182 108 54 86 26 146-16 36-62 36-60 0-103 44t-43 106 43 106 103 44z" horiz-adv-x="762" />

<glyph glyph-name="removeformat" unicode="&#xea90;" d="M767 38l42-42-42-41-41 41z m0 0m-90-128h60v-60h-60z m0 0m175 60h60v-60h-60z m0 0m-788-15l-41 41 41 42 41-42z m0 0m143 504h530v-115h-530z m0 0m527-183h-117c-3-103-25-205-65-302l-55 19c38 91 58 186 61 283h-58c-3-103-24-205-65-302l-54 19c37 91 57 186 60 283h-58c-3-103-24-205-65-302l-54 19c37 91 57 186 61 283h-118c-8-243-118-391-133-426h533c13 30 119 168 127 426z m0 0m-319 574h115v-340h-115z m0 0" horiz-adv-x="1000" />

<glyph glyph-name="semantize" unicode="&#xea91;" d="M955 586c-37-4-41-14-46-49v-532c-17-28-83-27-98 0-1 23-1 539-2 565h-69l0-565c-15-29-90-29-101 0v237c-71 5-152 30-193 92-57 84-55 208 16 284 35 41 77 69 130 72h363c25-26 25-81 0-104z m-402 203h-324c-11 0-18-9-19-18v-601h-120c-33-2-42-38-27-59l178-214c17-17 43-17 56 0l171 214c19 27-1 59-28 59h-110v499h57c35 59 83 93 166 120z" horiz-adv-x="1000" />

<glyph glyph-name="indent-left" unicode="&#xea92;" d="M900 240h-500v130h500z m-860 320h920v120h-920z m0-610h750v120h-750z m20 519v-309c0-13 21-21 33-10l172 152c7 7 6 19 0 25l-172 153c-14 11-32 1-33-11z" horiz-adv-x="1000" />

<glyph glyph-name="outdent-left" unicode="&#xea93;" d="M900 240h-500v130h500z m-860 320h920v120h-920z m0-610h750v120h-750z m230 519v-309c0-13-21-21-33-10l-172 152c-7 7-6 19 0 25l172 153c14 11 32 1 33-11z" horiz-adv-x="1000" />

<glyph glyph-name="indent-right" unicode="&#xea94;" d="M100 370h500v-130h-500z m860-300h-920v-120h920z m0 610h-750v-120h750z m-20-519v309c0 13-21 21-33 10l-172-152c-7-7-6-19 0-25l172-153c14-11 32-1 33 11z" horiz-adv-x="1000" />

<glyph glyph-name="outdent-right" unicode="&#xea95;" d="M100 370h500v-130h-500z m860-300h-920v-120h920z m0 610h-750v-120h750z m-230-519v309c0 13 21 21 33 10l172-152c7-7 6-19 0-25l-172-153c-14-11-32-1-33 11z" horiz-adv-x="1000" />

<glyph glyph-name="h1" unicode="&#xea9a;" d="M410 810h250v-167h-61v-587h61v-166h-250v166h61v236h-263v-236h62v-166h-250v166h60v587h-60v167h250v-167h-62v-191h263v191h-61z m321-615h49v244l-72-43v108l129 76 45-1v-384h49v-85h-200z" horiz-adv-x="1000" />

<glyph glyph-name="h2" unicode="&#xea9b;" d="M410 810h250v-167h-61v-587h61v-166h-250v166h61v236h-263v-236h62v-166h-250v166h60v587h-60v167h250v-167h-62v-191h263v191h-61z m241-615l158 163q21 19 32 38 11 20 11 40 0 8-3 16-4 9-11 15-6 7-16 11-10 4-22 4-15 0-27-5-10-4-18-12-7-8-11-19-4-10-4-22h-91q0 35 11 61 12 28 33 46 21 19 48 28 28 10 60 10 30 0 57-9 27-8 48-25 21-17 33-42 12-25 12-57 0-26-11-49-11-22-30-42l-131-136h171v-90h-299z" horiz-adv-x="1000" />

<glyph glyph-name="h3" unicode="&#xea9c;" d="M410 810h250v-167h-61v-587h61v-166h-250v166h61v236h-263v-236h62v-166h-250v166h60v587h-60v167h250v-167h-62v-191h263v191h-61z m447-367q0 8-4 17-4 9-12 16-7 7-18 11-11 5-24 5-11 0-21-4-10-4-18-10-8-6-12-14-5-8-5-27l-94 0q1 29 12 54 10 26 30 46 19 19 47 31t61 11q32 0 60-11 28-10 49-28 20-18 32-42 12-24 12-50 0-28-13-51-12-24-33-38 11-6 21-15 9-10 16-23 7-12 11-27 5-15 5-31 0-29-13-55-12-25-33-45-21-19-50-31-29-11-63-11-32 0-59 10-28 9-48 26-21 17-33 41-13 23-15 38-2 16-3 33h95q2-31 19-46 16-14 45-14 13 0 24 4 12 4 20 11 9 8 14 17 5 10 5 21 0 12-5 22-4 10-12 17-8 7-20 11-12 4-26 4h-43v80h43q14 0 24 4 10 3 18 9 7 7 11 15 3 8 3 19z" horiz-adv-x="1000" />

<glyph glyph-name="h4" unicode="&#xea9d;" d="M410 810h250v-167h-61v-587h61v-166h-250v166h61v236h-263v-236h62v-166h-250v166h60v587h-60v167h250v-167h-62v-191h263v191h-61z m210-488l164 268h102l-162-268h98v92l95 1v-93h64v-81h-64v-44h59v-86h-198v86h44v44h-202z" horiz-adv-x="1000" />

<glyph glyph-name="h5" unicode="&#xea9e;" d="M410 810h250v-167h-61v-587h61v-166h-250v166h61v236h-263v-236h62v-166h-250v166h60v587h-60v167h250v-167h-62v-191h263v191h-61z m332-402q15 5 32 9 18 3 37 3 32 0 60-9 29-9 50-27 22-18 35-44 13-27 13-61 0-38-14-66-14-28-37-47-23-19-53-29-29-9-60-9-30 0-57 7-27 8-49 22t-37 38q-15 22-21 52l96 25q2-14 8-25 6-11 15-18 9-8 20-12 12-4 25-4 15 0 28 5 12 5 21 14 8 10 13 22 5 12 5 27 0 12-5 23-5 12-14 20-10 9-23 14-13 6-28 6-21 0-36-4-14-4-29-10l-85 14v236h300v-89h-210z" horiz-adv-x="1000" />

<glyph glyph-name="h6" unicode="&#xea9f;" d="M410 810h250v-167h-61v-587h61v-166h-250v166h61v236h-263v-236h62v-166h-250v166h60v587h-60v167h250v-167h-62v-191h263v191h-61z m489-219l-95-170q8 1 16 0 8-1 15-2 27-5 49-19 23-13 40-33 17-19 26-44 10-25 10-53 0-34-13-63-12-29-35-51-22-21-51-33-30-12-63-12-32 0-62 12-29 12-51 33-21 21-34 49-13 29-13 62 0 15 3 29 3 15 8 28 6 14 12 27 7 14 15 27l115 213z m-102-259q-19 0-34-7-15-7-25-20-4-8-7-17-2-9-2-20t4-23q4-11 13-21 8-9 21-15 14-6 32-6 12 0 25 4 12 4 22 13 10 8 16 20 7 12 7 27 0 15-6 27-6 12-16 20-9 9-22 14-13 4-28 4z" horiz-adv-x="1000" />

<glyph glyph-name="table" unicode="&#xeaa0;" d="M325 170h-215v-150h215z m0 60v150h-215v-150z m285-60h-215v-150h215z m-285 420h-215v-150h215z m285-210h-215v-150h215z m280-210h-210v-150h210z m-280 420h-215v-150h215z m280-210h-210v-150h210z m0 210h-210v-150h210z m70 80v-630c-1-52-27-81-80-80h-760c-52 2-79 35-80 80v630c3 51 35 69 80 70h760c51-2 79-25 80-70z" horiz-adv-x="1000" />

<glyph glyph-name="mention" unicode="&#xeaa1;" d="M770 548c16-41 25-87 25-138 0-68-17-133-46-182-39-61-94-92-163-92-27 0-52 7-70 21-12 9-23 21-30 36-26-33-68-55-113-55-52 0-95 19-123 58-27 35-41 84-41 141s16 110 49 148c33 41 82 63 141 63 35 0 67-15 90-37l7 26 85 0-17-259c-1-21 1-36 9-43 3-5 10-8 20-8 76 0 102 123 102 183 0 72-24 132-67 176-50 51-122 76-209 76-84 0-158-26-214-76-65-59-101-143-101-245 0-86 31-165 85-221 52-53 122-82 205-82 95 0 167 14 241 47l15 7 0-96-6-3c-69-34-150-50-251-50-108 0-200 33-269 97-81 73-124 183-124 308 0 119 40 220 116 294 38 36 83 65 133 84 52 21 109 31 169 31 113 0 215-37 283-106 30-29 54-64 69-103z m-384-317c30 0 54 14 69 40 14 25 18 61 18 85 0 31-7 56-17 74-13 20-33 28-60 28-28 0-50-12-63-38-13-22-19-53-19-83 0-32 7-106 72-106z" horiz-adv-x="795" />

<glyph glyph-name="horizontal-rule" unicode="&#xeaa2;" d="M161 390h678l161 95-1-270-160 95h-680l-159-95 1 270z" horiz-adv-x="1000" />

<glyph glyph-name="special-chars" unicode="&#xeaa3;" d="M478 546v-65q0-7-5-12t-13-5h-166v-453q0-7-5-13t-12-5h-75q-8 0-13 5t-5 13v453h-166q-7 0-13 5t-5 12v65q0 8 5 13t13 5h442q8 0 13-5t5-13z m580 2l42-536q1-7-4-14-6-5-13-5h-75q-6 0-11 5t-6 11l-26 328-105-237q-4-11-16-11h-67q-11 0-16 11l-105 238-25-329q-1-7-6-11t-12-5h-75q-7 0-13 5-5 6-5 14l44 536q0 7 5 12t12 4h79q11 0 16-10l123-290q6-14 11-29 2 4 6 14t5 15l124 290q5 10 16 10h79q7 0 12-4t6-12z" horiz-adv-x="1101" />

<glyph glyph-name="emoji" unicode="&#xeaa4;" d="M643 243q0-15-11-25t-25-11h-357q-14 0-25 11t-11 25 11 25 25 11h357q15 0 25-11t11-25z m-286 250q0-30-21-51t-50-21-51 21-21 51 21 50 51 21 50-21 21-50z m286 0q0-30-21-51t-51-21-50 21-21 51 21 50 50 21 51-21 21-50z m143-143q0 73-29 139t-76 114-114 76-138 28-139-28-114-76-76-114-29-139 29-139 76-113 114-77 139-28 138 28 114 77 76 113 29 139z m71 0q0-117-57-215t-156-156-215-58-216 58-155 156-58 215 58 215 155 156 216 58 215-58 156-156 57-215z" horiz-adv-x="857.1" />

<glyph glyph-name="preformatted" unicode="&#xeaa5;" d="M60 394c41 5 106 30 99 81 1 74-2 148 2 222 11 71 77 120 147 112h72v-90c-33-2-84 10-109-18-20-35-9-76-12-114-1-53 3-105-3-157-11-46-43-74-86-80 39-5 73-25 85-69 8-54 3-115 4-170 3-37-7-78 12-112 24-29 75-16 108-19 2-28 0-60 1-90-52 3-119-10-165 22-45 29-60 81-54 133-1 64 2 132-2 196-2 51-63 58-99 71z m880 0c-41 5-106 30-99 81-1 74 2 148-2 222-11 71-77 120-147 112h-72v-90c34-2 84 10 109-18 20-35 9-76 12-114 1-53-3-105 3-157 11-46 43-74 86-80-39-5-73-25-85-69-8-54-3-115-4-170-3-37 7-78-12-112-24-29-75-16-108-19-2-28 0-60-1-90 52 3 119-10 165 22 45 29 60 81 54 133 1 64-1 132 2 196 2 51 63 58 99 71z" horiz-adv-x="1000" />

<glyph glyph-name="view-html" unicode="&#xeaa6;" d="M540 691l-174-656 97-26 174 656z m-242-86l-258-259 258-252 72 70-188 183 188 189z m404 0l-72-69 187-189-187-183 71-70 259 252z" horiz-adv-x="1000" />

<glyph glyph-name="radio" unicode="&#xeaa7;" d="M500 750c-221 0-400-179-400-400 2-231 168-401 400-400 234-1 403 187 400 400 1 238-187 395-400 400z m0-100c166 0 300-134 300-300 0-166-134-300-300-300-166 0-300 134-300 300s134 300 300 300z m0-150c-83 0-150-67-150-150 0-83 67-150 150-150 83 0 150 67 150 150s-67 150-150 150z" horiz-adv-x="1000" />

<glyph glyph-name="base64" unicode="&#xeaa8;" d="M889 614v-528h-778v528h778m111 111h-1000v-750h1000z m-582-157l-85-157q7 1 14 0 7 0 14-2 23-5 44-17 20-12 35-30 15-18 24-41 8-23 8-49 0-31-11-58-11-27-31-47-20-20-46-31-26-11-56-11-29 0-55 11-26 11-46 30-19 20-31 46-11 27-11 57 0 14 3 27 3 14 7 26 5 13 11 25 6 12 13 25l103 196z m-91-239q-17 0-31-6-13-7-22-19-4-7-6-15-2-9-2-19t3-21q4-10 12-19 8-9 19-15 12-5 28-5 11 0 23 4 11 4 20 12 8 7 14 18 6 11 6 26 0 13-5 24-5 11-14 19t-21 12q-11 4-24 4z m162-6l148 244h92l-146-245h88v85l86 1v-86h58v-74h-58v-40h53v-79h-178v79h39v40h-182z" horiz-adv-x="1000" />

<glyph glyph-name="strong" unicode="&#xeaaa;" d="M126 56h94v586h-94v168l447-1q62 0 114-23 52-21 89-60 38-37 58-88 21-50 21-107 0-67-23-111-23-43-66-70 45-29 71-72 27-42 27-104 0-62-22-114-21-52-58-91-37-37-88-58-51-21-110-21h-460z m295 214v-214h152q18 0 33 9 16 9 26 24 12 15 19 34 6 20 6 42 0 22-6 41-7 19-19 33-11 15-27 23-15 8-32 8z m0 372v-206h144q17 0 32 9 15 8 26 22 11 15 18 32 7 18 7 38 0 19-7 37-7 19-18 34-11 15-26 24-15 10-32 10z" horiz-adv-x="1000" />

<glyph glyph-name="noembed" unicode="&#xeaae;" d="M390 500l235-150-235-150z m499 99v-498h-778v498h778m111 111h-1000v-720h1000z" horiz-adv-x="1000" />

<glyph glyph-name="em" unicode="&#xeab0;" d="M396 810h409l-38-167h-92l-136-587h104l-39-166h-409l39 166h94l135 587h-105z" horiz-adv-x="1000" />

<glyph glyph-name="check" unicode="&#xeab2;" d="M856 619l-353-671-334 308 115 126 158-146 248 471z" horiz-adv-x="1000" />

<glyph glyph-name="strikethrough" unicode="&#xeab3;" d="M492 810c-104 0-219-37-273-133-38-66-42-150-17-222h327c-29 10-58 19-87 29-33 13-55 46-49 81 5 53 65 72 110 69 61-1 129-49 123-115 4-10-8-36 10-33h199v175h-58c-50 103-171 150-280 149-2 0-3 0-5 0z m44-565c24-9 46-20 64-40 34-44 5-120-51-129-60-14-138 0-165 62-13 28-10 59-10 88h-209v-173h60c42-104 157-158 265-162 115-7 243 39 302 144 36 63 45 140 28 210h-284z m-436 155h800v-100h-800z" horiz-adv-x="1000" />

<glyph glyph-name="underline" unicode="&#xeab4;" d="M80-30v-80h843v80h-803z m-10 838h363v-165h-83v-254c0-35 4-64 11-88 8-24 19-43 33-59 14-15 31-26 50-33 19-7 40-10 63-10 23 0 44 3 64 9 19 6 36 16 49 30 14 15 25 35 32 59 7 24 11 55 11 92v254h-96v165h363v-165h-72v-231c0-64-9-121-28-171-18-49-43-91-75-126-32-34-70-60-113-78-43-18-90-27-139-27-49 0-95 9-137 26-43 18-80 44-112 78-32 34-56 75-75 123-18 48-27 103-27 164v242h-82z" horiz-adv-x="1000" />

<glyph glyph-name="anchor" unicode="&#xeab5;" d="M536 707q0 15-11 25t-25 11-25-11-11-25 11-25 25-11 25 11 11 25z m464-518v-196q0-12-11-17-5-1-7-1-7 0-13 5l-52 52q-66-80-177-127t-240-46-240 46-177 127l-52-52q-5-5-13-5-2 0-7 1-11 5-11 17v196q0 8 5 13t13 5h196q13 0 17-11 5-11-4-19l-56-56q38-51 106-86t152-46v361h-108q-14 0-25 11t-10 25v71q0 15 10 25t25 11h108v91q-33 19-52 51t-20 72q0 59 42 101t101 42 101-42 42-101q0-39-20-72t-52-51v-91h108q14 0 25-11t10-25v-71q0-15-10-25t-25-11h-108v-361q84 11 152 46t106 86l-56 56q-8 8-4 19 4 11 17 11h196q8 0 13-5t5-13z" horiz-adv-x="1000" />

<glyph glyph-name="pagelink" unicode="&#xeab6;" d="M432 600l-182-182c-86-86-86-227 0-313 103-97 254-66 318-5l182 182v0l0 0c92 91 73 237-5 318-89 94-233 78-313 0z m242-71c42-46 52-131 5-177v0l0 0-181-181c-64-42-136-36-177 5-48 48-48 123 0 172l181 181c52 48 131 46 172 0z m-114 281a50 50 0 0 1-50-50v-350a50 50 0 0 1 50-50h350a50 50 0 0 1 50 50v350a50 50 0 0 1-50 50z m50-100h250v-250h-250z m-520-370a50 50 0 0 1-50-50v-350a50 50 0 0 1 50-50h350a50 50 0 0 1 50 50v350a50 50 0 0 1-50 50z m50-100h250v-250h-250z" horiz-adv-x="1000" />

<glyph glyph-name="link" unicode="&#xeab7;" d="M8 96q-17 66 0 132t67 115l131 131q49 49 115 67t131 0 116-67q20-20 20-49t-20-50-50-20-49 20q-35 34-82 34t-81-34l-132-131q-33-34-33-82t33-82q34-33 82-33t81 33l27 28q78-38 164-35l-91-92q-49-49-115-66t-132 0-115 66-67 115z m291 180q0 29 21 49 20 21 49 21t50-21q33-34 81-34t82 34l131 132q34 34 34 81t-34 81q-33 34-81 34t-82-34l-27-26q-77 36-164 35l91 91q50 49 116 66t131 0 115-66q49-49 67-115t0-132-67-115l-131-131q-49-49-115-67t-132 0-114 67q-21 21-21 50z" horiz-adv-x="887.2" />

<glyph glyph-name="unlink" unicode="&#xeab8;" d="M887-36c-6-7-16-9-26-1l-143 143c-15 18 7 40 26 25l142-142c8-9 7-19 1-25z m71 231c-3-3-8-5-13-5l-178 0c-23 0-24 35 0 36h178c18 0 23-22 13-31z m-305-305c-10-9-27-4-29 14v179c-2 22 36 25 35 0v-179c-1-6-3-11-6-14z m-177 75c-55-56-216-108-344 18-142 143-81 279-20 342 52 50 116 120 175 158l27-151-91-91c-37-42-31-119 6-158 47-48 117-37 158-7l91 92 151-27c-19-54-99-121-153-176z m231 256l-27 149 93 93c31 41 58 96-5 158-64 63-116 37-159 6l-93-93-150 28c41 68 103 121 159 177 66 68 237 88 341-20 109-113 96-261 22-341-43-47-126-138-181-157z m-337 386c-10-11-31-7-32 12v178c0 23 35 24 36 0v-178c0-5-2-9-4-12z m-125-125c-3-3-8-5-14-6h-179c-23 0-24 34 0 35h179c19-3 23-20 14-29z m33 88c-6-6-15-7-24 0l-143 143c-14 17 6 41 25 26l143-143c8-9 6-20-1-26z" horiz-adv-x="1000" />

<glyph glyph-name="link-add" unicode="&#xeab9;" d="M878 729c-68 71-202 125-311 40l-188-189 166-34c33 33 55 57 90 88 44 45 112 23 142-15 40-35 56-102 16-143l-87-87 34-170 188 189c82 104 35 236-50 321z m-589-238c-62-63-126-124-187-189-74-79-63-205 47-313 110-107 231-117 313-47l188 188c-55 10-114 24-170 34-33-31-62-68-97-97-54-41-101-14-136 22-37 33-62 90-22 137l99 99z m171-30v-71h-71c-56-6-41-79 0-80h71v-71c6-56 79-41 80 0v71h71c56 6 41 79 0 80h-71v71c-6 55-78 36-80 0z" horiz-adv-x="1000" />

<glyph glyph-name="cut" unicode="&#xeaba;" d="M536 350q14 0 25-11t10-25-10-25-25-10-25 10-11 25 11 25 25 11z m167-36l283-222q16-11 14-31-3-20-19-28l-72-36q-7-4-16-4-10 0-17 4l-385 216-62-36q-4-3-7-3 8-28 6-54-4-43-31-83t-74-69q-74-47-154-47-76 0-124 44-51 47-44 116 4 42 31 82t73 69q74 47 155 47 46 0 84-18 5 8 13 13l68 40-68 41q-8 5-13 12-38-17-84-17-81 0-155 47-46 30-73 69t-31 82q-3 33 8 63t36 52q47 44 124 44 80 0 154-47 46-29 74-68t31-83q2-27-6-54 3-1 7-3l62-37 385 216q7 5 17 5 9 0 16-4l72-36q16-9 19-28 2-20-14-32z m-380 145q26 24 12 61t-59 65q-52 33-107 33-42 0-63-20-26-24-12-60t59-66q51-33 107-33 41 0 63 20z m-47-415q45 28 59 65t-12 60q-22 20-63 20-56 0-107-33-45-28-59-65t12-60q21-20 63-20 55 0 107 33z m99 342l54-33v7q0 20 18 31l8 4-44 26-15-14q-1-2-5-6t-7-7q-1-1-2-2t-2-1z m125-125l54-18 410 321-71 36-429-240v-64l-89-53 5-5q1-1 4-3 2-2 6-7t6-6l15-15z m393-232l71 35-290 228-99-77q-1-2-7-4z" horiz-adv-x="1000" />

<glyph glyph-name="copy" unicode="&#xeabb;" d="M946 636q23 0 38-16t16-38v-678q0-23-16-38t-38-16h-535q-23 0-38 16t-16 38v160h-303q-23 0-38 16t-16 38v375q0 22 11 49t27 42l228 228q15 16 42 27t49 11h232q23 0 38-16t16-38v-183q38 23 71 23h232z m-303-119l-167-167h167v167z m-357 214l-167-167h167v167z m109-361l176 176v233h-214v-233q0-22-15-37t-38-16h-233v-357h286v143q0 22 11 49t27 42z m534-449v643h-215v-232q0-22-15-38t-38-15h-232v-358h500z" horiz-adv-x="1000" />

<glyph glyph-name="paste" unicode="&#xeabc;" d="M429-79h500v358h-233q-22 0-37 15t-16 38v232h-214v-643z m142 804v36q0 7-5 12t-12 6h-393q-7 0-13-6t-5-12v-36q0-7 5-13t13-5h393q7 0 12 5t5 13z m143-375h167l-167 167v-167z m286-71v-375q0-23-16-38t-38-16h-535q-23 0-38 16t-16 38v89h-303q-23 0-38 16t-16 37v750q0 23 16 38t38 16h607q22 0 38-16t15-38v-183q12-7 20-15l228-228q16-15 27-42t11-49z" horiz-adv-x="1000" />

<glyph glyph-name="undo" unicode="&#xeabd;" d="M569 50c-132 0-134 157-1 160h124c54 1 108 61 108 130 0 68-55 130-108 130h-312v-180l-340 260 340 270v-190h312c156 0 268-140 268-290 0-150-112-288-267-290z" horiz-adv-x="1000" />

<glyph glyph-name="redo" unicode="&#xeabe;" d="M150 630c-120-3-119-159 0-160h541c55-1 109-61 109-130 0-68-56-130-108-130h-92v175l-340-255 340-265v185h92c156 0 268 140 268 290 0 150-112 288-268 290z" horiz-adv-x="1000" />
</font>
</defs>
</svg>
