<svg xmlns="http://www.w3.org/2000/svg" height="48" width="48"><rect ry=".142" height="48" width="48" fill="#071854"/><path d="M19.092 4.09l9.816-1.807C38.377.541 46 7.02 46 16.81v9.253c0 9.79-7.623 16.104-17.092 17.847l-9.816 1.807C9.623 47.459 2 40.98 2 31.19v-9.253C2 12.147 9.623 5.833 19.092 4.09z" fill="#fff"/><path d="M19 20l-8 1.442V39l18-3.723v-7.445l-10 2.055zM29 27.7l8-1.443V8.7l-18 3.722V20l10-2.05z" fill="#071854" fill-rule="evenodd"/><path word-spacing="0" letter-spacing="0" font-size="40" font-weight="700" aria-label="u" d="M32 46h4.098v-4.723c.935.9 1.598 1.244 3.702 1.198 2.184-.049 5.187-2.32 5.2-5.248V31h-4.024l-.03 5.176c0 1.721-.943 2.549-2.424 2.549-1.488-.143-2.404-1.142-2.424-2.549V31H32z" font-family="Blue Highway" fill="#f60"/></svg>